{
.appVersion = "1141";
copyright = "Copyright (c) 2010 by Julia Petretta (www.juliapetretta.com), with Reserved Font Name \"Kreon\".";
customParameters = (
{
name = macintoshFONDFamilyID;
value = 128;
},
{
name = macintoshFONDName;
value = Kreon;
},
{
name = note;
value = "";
},
{
name = openTypeHeadFlags;
value = (
);
},
{
name = description;
value = "";
},
{
name = openTypeNameLicense;
value = "This Font Software is licensed under the SIL Open Font License,
Version 1.1. This license is available with a FAQ at:
http://scripts.sil.org/OFL";
},
{
name = openTypeNameLicenseURL;
value = "http://scripts.sil.org/OFL";
},
{
name = openTypeNameSampleText;
value = "";
},
{
name = openTypeNameUniqueID;
value = "JuliaPetretta: Kreon light: 2010";
},
{
name = openTypeNameVersion;
value = "1.001";
},
{
name = openTypeOS2FamilyClass;
value = (
0,
0
);
},
{
name = openTypeOS2Panose;
value = (
2,
0,
5,
6,
0,
0,
0,
2,
0,
3
);
},
{
name = openTypeOS2Selection;
value = (
);
},
{
name = openTypeOS2StrikeoutPosition;
value = 250;
},
{
name = openTypeOS2StrikeoutSize;
value = 50;
},
{
name = openTypeOS2SubscriptXOffset;
value = 0;
},
{
name = openTypeOS2SubscriptXSize;
value = 700;
},
{
name = openTypeOS2SubscriptYOffset;
value = 140;
},
{
name = openTypeOS2SubscriptYSize;
value = 650;
},
{
name = openTypeOS2SuperscriptXOffset;
value = 0;
},
{
name = openTypeOS2SuperscriptXSize;
value = 700;
},
{
name = openTypeOS2SuperscriptYOffset;
value = 477;
},
{
name = openTypeOS2SuperscriptYSize;
value = 650;
},
{
name = fsType;
value = (
);
},
{
name = unicodeRanges;
value = (
0,
1,
2,
7,
31,
33
);
},
{
name = vendorID;
value = pyrs;
},
{
name = blueFuzz;
value = 1;
},
{
name = blueScale;
value = 0.03963;
},
{
name = blueShift;
value = 7;
},
{
name = postscriptForceBold;
value = 0;
},
{
name = postscriptIsFixedPitch;
value = 0;
},
{
name = postscriptUniqueID;
value = -1;
},
{
name = trademark;
value = "Kreon is a trademark of Julia Petretta.";
},
{
name = year;
value = 2010;
}
);

glyphs = (
{
glyphname = A;
lastChange = "2018-07-23 17:46:20 +0000";
layers = (
{
layerId = "7A2A571C-0203-4ADD-BC50-2735B3AB72B4";
paths = (
{
closed = 1;
nodes = (
"364 44 LINE",
"445 65 LINE",
"392 241 LINE",
"169 241 LINE",
"117 62 LINE",
"205 45 LINE",
"205 0 LINE",
"11 0 LINE",
"-2 47 LINE",
"52 65 LINE",
"243 691 LINE {name = mh01;}",
"327 691 LINE {name = ah01;}",
"519 65 LINE",
"566 47 LINE",
"555 0 LINE",
"364 0 LINE {name = hr00;}"
);
},
{
closed = 1;
nodes = (
"188 304 LINE",
"373 304 LINE",
"279 616 LINE {name = mh02;}"
);
}
);
width = 570;
},
{
layerId = "3C57ECF2-80FF-487A-B259-F9D598FB850F";
paths = (
{
closed = 1;
nodes = (
"349 75 LINE",
"429 96 LINE",
"393 218 LINE",
"197 218 LINE",
"159 92 LINE",
"247 76 LINE",
"247 0 LINE",
"8 0 LINE",
"-5 78 LINE",
"50 96 LINE {name = mv01;}",
"248 690 LINE {name = ah01;}",
"372 690 LINE {name = mv02;}",
"573 96 LINE",
"619 78 LINE",
"609 0 LINE",
"349 0 LINE {name = hr00;}"
);
},
{
closed = 1;
nodes = (
"349 323 LINE",
"296 548 LINE",
"228 323 LINE"
);
}
);
width = 621;
}
);
leftKerningGroup = A;
rightKerningGroup = A;
unicode = 0041;
userData = {
com.typemytype.robofont.mark = (
0.713,
0.6,
1,
1
);
};
},
{
glyphname = Aacute;
lastChange = "2018-07-23 17:46:20 +0000";
layers = (
{
layerId = "7A2A571C-0203-4ADD-BC50-2735B3AB72B4";
paths = (
{
closed = 1;
nodes = (
"334 897 LINE {name = ah02;}",
"364 890 LINE",
"401 818 LINE",
"208 717 LINE",
"176 764 LINE {name = hr00;}"
);
},
{
closed = 1;
nodes = (
"364 44 LINE",
"445 65 LINE",
"392 241 LINE",
"169 241 LINE",
"117 62 LINE",
"205 45 LINE",
"205 0 LINE",
"11 0 LINE",
"-2 47 LINE",
"52 65 LINE",
"243 691 LINE {name = ah01;}",
"327 691 LINE",
"519 65 LINE",
"566 47 LINE",
"555 0 LINE",
"364 0 LINE"
);
},
{
closed = 1;
nodes = (
"188 304 LINE",
"373 304 LINE",
"279 616 LINE"
);
}
);
width = 570;
},
{
layerId = "3C57ECF2-80FF-487A-B259-F9D598FB850F";
paths = (
{
closed = 1;
nodes = (
"349 75 LINE",
"429 96 LINE",
"393 218 LINE",
"197 218 LINE",
"159 92 LINE",
"247 76 LINE",
"247 0 LINE",
"8 0 LINE",
"-5 78 LINE",
"50 96 LINE",
"248 691 LINE {name = mv01;}",
"372 691 LINE",
"573 96 LINE",
"619 78 LINE",
"609 0 LINE",
"349 0 LINE {name = hr00;}"
);
},
{
closed = 1;
nodes = (
"349 323 LINE",
"296 549 LINE",
"228 323 LINE"
);
},
{
closed = 1;
nodes = (
"316 959 LINE {name = mv02;}",
"353 974 LINE",
"431 865 LINE",
"234 741 LINE {name = mv03;}",
"187 795 LINE"
);
}
);
width = 621;
}
);
leftKerningGroup = A;
rightKerningGroup = A;
unicode = 00C1;
userData = {
com.typemytype.robofont.mark = (
0.713,
0.6,
1,
1
);
};
},
{
glyphname = Acircumflex;
lastChange = "2018-07-23 17:46:20 +0000";
layers = (
{
layerId = "7A2A571C-0203-4ADD-BC50-2735B3AB72B4";
paths = (
{
closed = 1;
nodes = (
"289 884 LINE",
"429 727 LINE",
"356 727 LINE",
"280 790 LINE",
"205 727 LINE",
"131 727 LINE",
"273 884 LINE {name = hr00;}"
);
},
{
closed = 1;
nodes = (
"364 44 LINE",
"445 65 LINE",
"392 241 LINE",
"169 241 LINE",
"117 62 LINE",
"205 45 LINE",
"205 0 LINE",
"11 0 LINE",
"-2 47 LINE",
"52 65 LINE",
"243 691 LINE {name = ah01;}",
"327 691 LINE",
"519 65 LINE",
"566 47 LINE",
"555 0 LINE",
"364 0 LINE"
);
},
{
closed = 1;
nodes = (
"188 304 LINE",
"373 304 LINE",
"279 616 LINE"
);
}
);
width = 570;
},
{
layerId = "3C57ECF2-80FF-487A-B259-F9D598FB850F";
paths = (
{
closed = 1;
nodes = (
"286 903 LINE {name = mv01;}",
"323 903 LINE",
"495 736 LINE",
"487 724 LINE",
"401 724 LINE",
"304 782 LINE",
"206 724 LINE",
"121 724 LINE",
"115 737 LINE {name = hr00;}"
);
},
{
closed = 1;
nodes = (
"349 75 LINE",
"429 96 LINE",
"393 218 LINE",
"197 218 LINE",
"159 92 LINE",
"247 76 LINE",
"247 0 LINE",
"8 0 LINE",
"-5 78 LINE",
"50 96 LINE",
"248 691 LINE {name = mv02;}",
"372 691 LINE",
"573 96 LINE",
"619 78 LINE",
"609 0 LINE",
"349 0 LINE"
);
},
{
closed = 1;
nodes = (
"349 323 LINE",
"296 549 LINE",
"228 323 LINE"
);
}
);
width = 621;
}
);
leftKerningGroup = A;
rightKerningGroup = A;
unicode = 00C2;
userData = {
com.typemytype.robofont.mark = (
0.713,
0.6,
1,
1
);
};
},
{
glyphname = Adieresis;
lastChange = "2018-07-23 17:46:20 +0000";
layers = (
{
layerId = "7A2A571C-0203-4ADD-BC50-2735B3AB72B4";
paths = (
{
closed = 1;
nodes = (
"364 44 LINE",
"445 65 LINE",
"392 241 LINE",
"169 241 LINE",
"117 62 LINE",
"205 45 LINE",
"205 0 LINE",
"11 0 LINE",
"-2 47 LINE",
"52 65 LINE",
"243 691 LINE {name = mh01;}",
"327 691 LINE {name = mh02;}",
"519 65 LINE",
"566 47 LINE",
"555 0 LINE",
"364 0 LINE {name = hr00;}"
);
},
{
closed = 1;
nodes = (
"188 304 LINE",
"373 304 LINE",
"279 616 LINE {name = mh03;}"
);
},
{
closed = 1;
nodes = (
"127 796 OFFCURVE",
"160 829 OFFCURVE",
"184 829 QCURVE {name = mh04;}",
"207 829 OFFCURVE",
"242 796 OFFCURVE",
"242 772 QCURVE",
"242 748 OFFCURVE",
"207 714 OFFCURVE",
"184 714 QCURVE",
"160 714 OFFCURVE",
"127 748 OFFCURVE",
"127 772 QCURVE"
);
},
{
closed = 1;
nodes = (
"303 796 OFFCURVE",
"338 829 OFFCURVE",
"363 829 QCURVE {name = mh05;}",
"386 829 OFFCURVE",
"418 796 OFFCURVE",
"418 772 QCURVE",
"418 748 OFFCURVE",
"386 714 OFFCURVE",
"363 714 QCURVE",
"338 714 OFFCURVE",
"303 748 OFFCURVE",
"303 772 QCURVE"
);
}
);
width = 570;
},
{
layerId = "3C57ECF2-80FF-487A-B259-F9D598FB850F";
paths = (
{
closed = 1;
nodes = (
"349 75 LINE",
"429 96 LINE",
"393 218 LINE",
"197 218 LINE",
"159 92 LINE",
"247 76 LINE",
"247 0 LINE",
"8 0 LINE",
"-5 78 LINE",
"50 96 LINE",
"248 690 LINE {name = ah01;}",
"372 690 LINE {name = mh01;}",
"573 96 LINE",
"619 78 LINE",
"609 0 LINE",
"349 0 LINE {name = hr00;}"
);
},
{
closed = 1;
nodes = (
"349 323 LINE",
"296 548 LINE {name = mh03;}",
"228 323 LINE {name = mh02;}"
);
},
{
closed = 1;
nodes = (
"155 833 OFFCURVE",
"195 873 OFFCURVE",
"223 873 QCURVE",
"252 873 OFFCURVE",
"292 833 OFFCURVE",
"292 804 QCURVE {name = mh04;}",
"292 775 OFFCURVE",
"252 736 OFFCURVE",
"223 736 QCURVE {name = mv01;}",
"195 736 OFFCURVE",
"155 775 OFFCURVE",
"155 804 QCURVE"
);
},
{
closed = 1;
nodes = (
"333 833 OFFCURVE",
"372 873 OFFCURVE",
"401 873 QCURVE",
"430 873 OFFCURVE",
"468 833 OFFCURVE",
"468 804 QCURVE",
"468 775 OFFCURVE",
"430 736 OFFCURVE",
"401 736 QCURVE {name = mv02;}",
"372 736 OFFCURVE",
"333 775 OFFCURVE",
"333 804 QCURVE"
);
}
);
width = 621;
}
);
leftKerningGroup = A;
rightKerningGroup = A;
unicode = 00C4;
userData = {
com.typemytype.robofont.mark = (
0.713,
0.6,
1,
1
);
};
},
{
glyphname = Agrave;
lastChange = "2018-07-23 17:46:20 +0000";
layers = (
{
layerId = "7A2A571C-0203-4ADD-BC50-2735B3AB72B4";
paths = (
{
closed = 1;
nodes = (
"168 818 LINE",
"205 890 LINE {name = mh01;}",
"235 897 LINE {name = mh02;}",
"403 764 LINE",
"372 717 LINE {name = hr00;}"
);
},
{
closed = 1;
nodes = (
"364 44 LINE",
"445 65 LINE",
"392 241 LINE",
"169 241 LINE",
"117 62 LINE",
"205 45 LINE",
"205 0 LINE",
"11 0 LINE",
"-2 47 LINE",
"52 65 LINE",
"243 691 LINE {name = mh03;}",
"327 691 LINE",
"519 65 LINE",
"566 47 LINE",
"555 0 LINE",
"364 0 LINE"
);
},
{
closed = 1;
nodes = (
"188 304 LINE",
"373 304 LINE",
"279 616 LINE"
);
}
);
width = 570;
},
{
layerId = "3C57ECF2-80FF-487A-B259-F9D598FB850F";
paths = (
{
closed = 1;
nodes = (
"349 75 LINE",
"429 96 LINE",
"393 218 LINE",
"197 218 LINE",
"159 92 LINE",
"247 76 LINE",
"247 0 LINE",
"8 0 LINE",
"-5 78 LINE",
"50 96 LINE",
"248 691 LINE {name = mh01;}",
"372 691 LINE",
"573 96 LINE",
"619 78 LINE",
"609 0 LINE",
"349 0 LINE {name = hr00;}"
);
},
{
closed = 1;
nodes = (
"349 323 LINE",
"296 549 LINE",
"228 323 LINE"
);
},
{
closed = 1;
nodes = (
"194 868 LINE",
"271 959 LINE",
"306 942 LINE",
"418 765 LINE",
"377 724 LINE"
);
}
);
width = 621;
}
);
leftKerningGroup = A;
rightKerningGroup = A;
unicode = 00C0;
userData = {
com.typemytype.robofont.mark = (
0.713,
0.6,
1,
1
);
};
},
{
glyphname = Aring;
lastChange = "2018-07-23 17:46:20 +0000";
layers = (
{
layerId = "7A2A571C-0203-4ADD-BC50-2735B3AB72B4";
paths = (
{
closed = 1;
nodes = (
"363 44 LINE",
"444 65 LINE",
"391 241 LINE",
"168 241 LINE",
"116 62 LINE",
"204 45 LINE",
"204 0 LINE",
"10 0 LINE",
"-3 47 LINE",
"51 65 LINE",
"235 670 LINE",
"215 682 OFFCURVE",
"191 725 OFFCURVE",
"191 751 QCURVE",
"191 770 OFFCURVE",
"206 805 OFFCURVE",
"231 830 OFFCURVE",
"266 845 OFFCURVE",
"286 845 QCURVE {name = mh01;}",
"305 845 OFFCURVE",
"340 830 OFFCURVE",
"365 805 OFFCURVE",
"380 770 OFFCURVE",
"380 751 QCURVE",
"380 724 OFFCURVE",
"354 681 OFFCURVE",
"333 668 QCURVE",
"518 65 LINE",
"565 47 LINE",
"554 0 LINE",
"363 0 LINE {name = hr00;}"
);
},
{
closed = 1;
nodes = (
"187 304 LINE",
"372 304 LINE",
"278 616 LINE {name = mh02;}"
);
},
{
closed = 1;
nodes = (
"248 734 OFFCURVE",
"269 713 OFFCURVE",
"286 713 QCURVE",
"303 713 OFFCURVE",
"323 734 OFFCURVE",
"323 751 QCURVE",
"323 768 OFFCURVE",
"303 789 OFFCURVE",
"286 789 QCURVE {name = mh03;}",
"269 789 OFFCURVE",
"248 768 OFFCURVE",
"248 751 QCURVE"
);
}
);
width = 567;
},
{
layerId = "3C57ECF2-80FF-487A-B259-F9D598FB850F";
paths = (
{
closed = 1;
nodes = (
"347 75 LINE",
"427 96 LINE",
"391 218 LINE",
"195 218 LINE",
"157 92 LINE",
"245 76 LINE",
"245 0 LINE",
"6 0 LINE",
"-7 78 LINE",
"48 96 LINE",
"234 656 LINE",
"216 670 OFFCURVE",
"195 714 OFFCURVE",
"195 740 QCURVE",
"195 762 OFFCURVE",
"211 801 OFFCURVE",
"240 830 OFFCURVE",
"278 846 OFFCURVE",
"301 846 QCURVE {name = mh01;}",
"323 846 OFFCURVE",
"362 830 OFFCURVE",
"390 801 OFFCURVE",
"407 762 OFFCURVE",
"407 740 QCURVE",
"407 718 OFFCURVE",
"392 680 OFFCURVE",
"378 666 QCURVE",
"571 96 LINE",
"617 78 LINE",
"607 0 LINE",
"347 0 LINE {name = hr00;}"
);
},
{
closed = 1;
nodes = (
"347 323 LINE",
"294 549 LINE",
"226 323 LINE"
);
},
{
closed = 1;
nodes = (
"262 722 OFFCURVE",
"282 701 OFFCURVE",
"301 701 QCURVE",
"319 701 OFFCURVE",
"339 722 OFFCURVE",
"339 740 QCURVE",
"339 758 OFFCURVE",
"319 779 OFFCURVE",
"301 779 QCURVE",
"282 779 OFFCURVE",
"262 758 OFFCURVE",
"262 740 QCURVE"
);
}
);
width = 617;
}
);
leftKerningGroup = A;
rightKerningGroup = A;
unicode = 00C5;
userData = {
com.typemytype.robofont.mark = (
0.713,
0.6,
1,
1
);
};
},
{
glyphname = Atilde;
lastChange = "2018-07-23 17:46:20 +0000";
layers = (
{
layerId = "7A2A571C-0203-4ADD-BC50-2735B3AB72B4";
paths = (
{
closed = 1;
nodes = (
"466 770 LINE",
"458 763 OFFCURVE",
"438 748 OFFCURVE",
"415 735 OFFCURVE",
"392 727 OFFCURVE",
"382 727 QCURVE {name = mh01;}",
"359 727 OFFCURVE",
"327 743 OFFCURVE",
"297 762 OFFCURVE",
"265 778 OFFCURVE",
"243 778 QCURVE {name = mh02;}",
"211 778 OFFCURVE",
"179 747 OFFCURVE",
"168 729 QCURVE",
"131 760 LINE",
"131 776 LINE",
"134 782 OFFCURVE",
"149 804 OFFCURVE",
"176 826 OFFCURVE",
"216 842 OFFCURVE",
"245 842 QCURVE {name = mh03;}",
"282 842 OFFCURVE",
"335 808 OFFCURVE",
"367 786 QCURVE {name = mh04;}",
"429 836 LINE {name = hr00;}"
);
},
{
closed = 1;
nodes = (
"364 44 LINE",
"445 65 LINE",
"392 241 LINE",
"169 241 LINE",
"117 62 LINE",
"205 45 LINE",
"205 0 LINE",
"11 0 LINE",
"-2 47 LINE",
"52 65 LINE",
"243 691 LINE {name = mh05;}",
"327 691 LINE {name = mh06;}",
"519 65 LINE",
"566 47 LINE",
"555 0 LINE",
"364 0 LINE"
);
},
{
closed = 1;
nodes = (
"188 304 LINE",
"373 304 LINE",
"279 616 LINE"
);
}
);
width = 570;
},
{
layerId = "3C57ECF2-80FF-487A-B259-F9D598FB850F";
paths = (
{
closed = 1;
nodes = (
"514 805 LINE",
"492 775 OFFCURVE",
"426 727 OFFCURVE",
"391 727 QCURVE",
"368 727 OFFCURVE",
"335 741 OFFCURVE",
"305 758 OFFCURVE",
"274 772 OFFCURVE",
"253 772 QCURVE",
"224 772 OFFCURVE",
"190 737 OFFCURVE",
"184 718 QCURVE {name = hr01;}",
"110 762 LINE",
"110 781 LINE",
"114 793 OFFCURVE",
"135 825 OFFCURVE",
"167 853 OFFCURVE",
"212 873 OFFCURVE",
"242 873 QCURVE",
"268 873 OFFCURVE",
"312 857 OFFCURVE",
"347 839 OFFCURVE",
"372 823 OFFCURVE",
"379 823 QCURVE",
"433 881 LINE {name = hr02;}"
);
},
{
closed = 1;
nodes = (
"349 75 LINE",
"429 96 LINE",
"393 218 LINE",
"197 218 LINE",
"159 92 LINE",
"247 76 LINE",
"247 0 LINE",
"8 0 LINE",
"-5 78 LINE",
"50 96 LINE",
"248 691 LINE {name = mh01;}",
"372 691 LINE",
"573 96 LINE",
"619 78 LINE",
"609 0 LINE",
"349 0 LINE"
);
},
{
closed = 1;
nodes = (
"349 323 LINE",
"296 549 LINE",
"228 323 LINE"
);
}
);
width = 621;
}
);
leftKerningGroup = A;
rightKerningGroup = A;
unicode = 00C3;
userData = {
com.typemytype.robofont.mark = (
0.713,
0.6,
1,
1
);
};
},
{
glyphname = AE;
lastChange = "2018-07-23 17:46:20 +0000";
layers = (
{
layerId = "7A2A571C-0203-4ADD-BC50-2735B3AB72B4";
paths = (
{
closed = 1;
nodes = (
"-12 47 LINE",
"41 65 LINE",
"278 691 LINE {name = mh01;}",
"650 691 LINE",
"670 520 LINE",
"622 520 LINE",
"588 623 LINE",
"399 623 LINE",
"399 364 LINE",
"541 364 LINE",
"541 301 LINE",
"399 301 LINE",
"399 68 LINE",
"598 68 LINE",
"633 171 LINE",
"680 171 LINE",
"661 0 LINE",
"291 0 LINE",
"283 56 LINE",
"331 68 LINE",
"331 298 LINE",
"196 298 LINE",
"107 62 LINE",
"193 45 LINE",
"193 0 LINE",
"1 0 LINE {name = hr00;}"
);
},
{
closed = 1;
nodes = (
"320 628 LINE {name = mh03;}",
"219 361 LINE",
"331 361 LINE",
"331 627 LINE {name = mh02;}"
);
}
);
width = 720;
},
{
layerId = "3C57ECF2-80FF-487A-B259-F9D598FB850F";
paths = (
{
closed = 1;
nodes = (
"-12 78 LINE",
"41 96 LINE",
"266 691 LINE {name = ah01;}",
"745 691 LINE",
"765 487 LINE",
"686 487 LINE {name = hr03;}",
"646 586 LINE",
"484 586 LINE",
"484 408 LINE",
"636 408 LINE",
"636 303 LINE",
"484 303 LINE",
"484 105 LINE",
"653 105 LINE {name = hr02;}",
"690 204 LINE",
"768 204 LINE {name = hr01;}",
"747 0 LINE",
"313 0 LINE",
"298 88 LINE",
"353 101 LINE",
"353 260 LINE",
"215 260 LINE",
"152 92 LINE",
"240 76 LINE",
"240 0 LINE",
"1 0 LINE {name = hr00;}"
);
},
{
closed = 1;
nodes = (
"255 365 LINE",
"353 365 LINE",
"353 595 LINE",
"342 596 LINE"
);
}
);
width = 803;
}
);
rightKerningGroup = E;
unicode = 00C6;
userData = {
com.typemytype.robofont.mark = (
0.713,
0.6,
1,
1
);
};
},
{
glyphname = B;
lastChange = "2018-07-23 17:46:20 +0000";
layers = (
{
layerId = "7A2A571C-0203-4ADD-BC50-2735B3AB72B4";
paths = (
{
closed = 1;
nodes = (
"181 68 LINE",
"309 68 LINE",
"346 68 OFFCURVE",
"396 90 OFFCURVE",
"426 126 OFFCURVE",
"439 171 OFFCURVE",
"439 195 QCURVE",
"439 220 OFFCURVE",
"417 264 OFFCURVE",
"378 296 OFFCURVE",
"325 314 OFFCURVE",
"293 314 QCURVE",
"181 314 LINE {name = hr00;}"
);
},
{
closed = 1;
nodes = (
"409 529 OFFCURVE",
"393 572 OFFCURVE",
"358 604 OFFCURVE",
"301 623 OFFCURVE",
"261 623 QCURVE {name = mh01;}",
"181 623 LINE {name = hr01;}",
"181 377 LINE",
"276 377 LINE",
"311 377 OFFCURVE",
"361 399 OFFCURVE",
"394 435 OFFCURVE",
"409 481 OFFCURVE",
"409 505 QCURVE"
);
},
{
closed = 1;
nodes = (
"55 56 LINE",
"112 68 LINE",
"112 627 LINE",
"55 632 LINE",
"55 691 LINE {name = mh02;}",
"263 691 LINE",
"316 691 OFFCURVE",
"397 663 OFFCURVE",
"452 614 OFFCURVE",
"480 548 OFFCURVE",
"480 510 QCURVE",
"480 475 OFFCURVE",
"464 424 OFFCURVE",
"438 387 OFFCURVE",
"407 362 OFFCURVE",
"392 354 QCURVE",
"412 345 OFFCURVE",
"454 320 OFFCURVE",
"488 282 OFFCURVE",
"510 226 OFFCURVE",
"510 187 QCURVE",
"510 140 OFFCURVE",
"478 69 OFFCURVE",
"420 23 OFFCURVE",
"338 0 OFFCURVE",
"289 0 QCURVE",
"62 0 LINE"
);
}
);
width = 557;
},
{
layerId = "3C57ECF2-80FF-487A-B259-F9D598FB850F";
paths = (
{
closed = 1;
nodes = (
"41 85 LINE",
"105 100 LINE",
"105 593 LINE",
"35 600 LINE",
"35 690 LINE {name = ah01;}",
"312 690 LINE",
"365 690 OFFCURVE",
"448 662 OFFCURVE",
"506 613 OFFCURVE",
"536 547 OFFCURVE",
"536 509 QCURVE",
"536 474 OFFCURVE",
"513 419 OFFCURVE",
"479 380 OFFCURVE",
"440 357 OFFCURVE",
"424 353 QCURVE",
"488 336 OFFCURVE",
"564 258 OFFCURVE",
"564 187 QCURVE {name = ah02;}",
"564 140 OFFCURVE",
"532 69 OFFCURVE",
"473 23 OFFCURVE",
"391 0 OFFCURVE",
"342 0 QCURVE",
"55 0 LINE {name = hr00;}"
);
},
{
closed = 1;
nodes = (
"236 105 LINE",
"310 105 LINE",
"334 105 OFFCURVE",
"377 114 OFFCURVE",
"408 136 OFFCURVE",
"427 172 OFFCURVE",
"427 199 QCURVE",
"427 249 OFFCURVE",
"358 295 OFFCURVE",
"294 295 QCURVE",
"236 295 LINE {name = hr01;}"
);
},
{
closed = 1;
nodes = (
"399 519 OFFCURVE",
"380 553 OFFCURVE",
"347 575 OFFCURVE",
"304 585 OFFCURVE",
"281 585 QCURVE",
"236 585 LINE",
"236 400 LINE",
"295 400 LINE",
"347 400 OFFCURVE",
"399 452 OFFCURVE",
"399 494 QCURVE"
);
}
);
width = 596;
}
);
leftKerningGroup = H;
unicode = 0042;
userData = {
com.typemytype.robofont.mark = (
0.713,
0.6,
1,
1
);
};
},
{
glyphname = C;
lastChange = "2018-07-23 17:46:20 +0000";
layers = (
{
layerId = "7A2A571C-0203-4ADD-BC50-2735B3AB72B4";
paths = (
{
closed = 1;
nodes = (
"112 289 OFFCURVE",
"147 186 OFFCURVE",
"214 109 OFFCURVE",
"310 64 OFFCURVE",
"372 64 QCURVE",
"406 64 OFFCURVE",
"475 83 OFFCURVE",
"500 99 QCURVE",
"525 38 LINE",
"499 20 OFFCURVE",
"415 -4 OFFCURVE",
"373 -4 QCURVE",
"297 -4 OFFCURVE",
"174 49 OFFCURVE",
"87 142 OFFCURVE",
"40 271 OFFCURVE",
"40 346 QCURVE",
"40 416 OFFCURVE",
"89 542 OFFCURVE",
"177 636 OFFCURVE",
"300 691 OFFCURVE",
"375 691 QCURVE {name = mh01;}",
"407 691 OFFCURVE",
"463 684 OFFCURVE",
"492 678 QCURVE",
"510 520 LINE",
"453 520 LINE",
"429 618 LINE",
"421 619 OFFCURVE",
"402 623 OFFCURVE",
"377 623 QCURVE {name = mh02;}",
"314 623 OFFCURVE",
"217 577 OFFCURVE",
"149 501 OFFCURVE",
"112 402 OFFCURVE",
"111 348 QCURVE {name = hr00;}"
);
}
);
width = 556;
},
{
layerId = "3C57ECF2-80FF-487A-B259-F9D598FB850F";
paths = (
{
closed = 1;
nodes = (
"163 294 OFFCURVE",
"193 203 OFFCURVE",
"247 138 OFFCURVE",
"323 101 OFFCURVE",
"370 101 QCURVE",
"411 101 OFFCURVE",
"493 131 OFFCURVE",
"522 160 QCURVE",
"564 71 LINE",
"550 55 OFFCURVE",
"507 27 OFFCURVE",
"455 7 OFFCURVE",
"395 -4 OFFCURVE",
"365 -4 QCURVE",
"297 -4 OFFCURVE",
"175 38 OFFCURVE",
"83 123 OFFCURVE",
"28 250 OFFCURVE",
"28 334 QCURVE {name = av01;}",
"28 422 OFFCURVE",
"85 555 OFFCURVE",
"178 645 OFFCURVE",
"296 691 OFFCURVE",
"358 691 QCURVE {name = ah02;}",
"425 691 OFFCURVE",
"510 672 OFFCURVE",
"527 667 QCURVE",
"547 460 LINE",
"466 460 LINE",
"445 506 OFFCURVE",
"423 556 OFFCURVE",
"412 580 OFFCURVE",
"408 584 OFFCURVE",
"407 584 QCURVE",
"400 585 OFFCURVE",
"384 586 OFFCURVE",
"368 586 QCURVE {name = ah01;}",
"326 586 OFFCURVE",
"252 553 OFFCURVE",
"197 491 OFFCURVE",
"163 403 OFFCURVE",
"162 348 QCURVE {name = hr00;}"
);
}
);
width = 587;
}
);
leftKerningGroup = C;
rightKerningGroup = C;
unicode = 0043;
userData = {
com.typemytype.robofont.mark = (
0.713,
0.6,
1,
1
);
};
},
{
glyphname = Ccedilla;
lastChange = "2018-07-23 17:46:20 +0000";
layers = (
{
layerId = "7A2A571C-0203-4ADD-BC50-2735B3AB72B4";
paths = (
{
closed = 1;
nodes = (
"278 -74 LINE",
"306 2 LINE",
"245 13 OFFCURVE",
"148 73 OFFCURVE",
"79 163 OFFCURVE",
"42 279 OFFCURVE",
"42 346 QCURVE",
"42 416 OFFCURVE",
"91 542 OFFCURVE",
"179 636 OFFCURVE",
"302 691 OFFCURVE",
"377 691 QCURVE",
"409 691 OFFCURVE",
"465 684 OFFCURVE",
"494 678 QCURVE",
"512 520 LINE",
"455 520 LINE",
"431 618 LINE",
"423 619 OFFCURVE",
"404 623 OFFCURVE",
"379 623 QCURVE",
"316 623 OFFCURVE",
"218 577 OFFCURVE",
"149 501 OFFCURVE",
"113 402 OFFCURVE",
"113 348 QCURVE",
"113 289 OFFCURVE",
"148 186 OFFCURVE",
"216 109 OFFCURVE",
"312 64 OFFCURVE",
"374 64 QCURVE",
"408 64 OFFCURVE",
"477 83 OFFCURVE",
"502 99 QCURVE",
"527 38 LINE",
"501 20 OFFCURVE",
"417 -4 OFFCURVE",
"375 -4 QCURVE",
"372 -4 OFFCURVE",
"366 -3 OFFCURVE",
"363 -3 QCURVE",
"351 -41 LINE",
"367 -43 OFFCURVE",
"400 -55 OFFCURVE",
"427 -79 OFFCURVE",
"443 -113 OFFCURVE",
"443 -136 QCURVE",
"443 -180 OFFCURVE",
"383 -236 OFFCURVE",
"321 -236 QCURVE",
"293 -236 OFFCURVE",
"252 -224 OFFCURVE",
"233 -216 QCURVE",
"221 -212 LINE",
"258 -141 LINE",
"323 -181 LINE",
"347 -181 OFFCURVE",
"378 -157 OFFCURVE",
"378 -137 QCURVE",
"378 -121 OFFCURVE",
"344 -90 OFFCURVE",
"301 -90 QCURVE",
"293 -90 LINE {name = hr00;}"
);
}
);
width = 559;
},
{
layerId = "3C57ECF2-80FF-487A-B259-F9D598FB850F";
paths = (
{
closed = 1;
nodes = (
"301 1 LINE",
"244 10 OFFCURVE",
"146 61 OFFCURVE",
"72 145 OFFCURVE",
"30 260 OFFCURVE",
"30 334 QCURVE {name = mh01;}",
"30 422 OFFCURVE",
"87 555 OFFCURVE",
"180 645 OFFCURVE",
"298 691 OFFCURVE",
"360 691 QCURVE {name = mh02;}",
"427 691 OFFCURVE",
"512 672 OFFCURVE",
"529 667 QCURVE",
"549 460 LINE",
"468 460 LINE",
"447 506 OFFCURVE",
"425 556 OFFCURVE",
"414 580 OFFCURVE",
"410 584 OFFCURVE",
"409 584 QCURVE",
"402 585 OFFCURVE",
"386 586 OFFCURVE",
"370 586 QCURVE",
"328 586 OFFCURVE",
"254 553 OFFCURVE",
"199 491 OFFCURVE",
"166 403 OFFCURVE",
"166 348 QCURVE",
"166 294 OFFCURVE",
"195 203 OFFCURVE",
"249 138 OFFCURVE",
"325 101 OFFCURVE",
"372 101 QCURVE {name = mh03;}",
"413 101 OFFCURVE",
"495 131 OFFCURVE",
"524 160 QCURVE",
"566 71 LINE",
"543 43 OFFCURVE",
"454 4 OFFCURVE",
"403 -2 QCURVE {name = mh04;}",
"391 -41 LINE {name = mh05;}",
"411 -45 OFFCURVE",
"448 -62 OFFCURVE",
"477 -89 OFFCURVE",
"495 -129 OFFCURVE",
"495 -156 QCURVE",
"495 -182 OFFCURVE",
"473 -229 OFFCURVE",
"430 -265 OFFCURVE",
"369 -286 OFFCURVE",
"330 -286 QCURVE {name = hr01;}",
"288 -286 OFFCURVE",
"227 -268 OFFCURVE",
"202 -259 QCURVE",
"252 -162 LINE",
"324 -210 LINE",
"331 -210 OFFCURVE",
"353 -205 OFFCURVE",
"373 -193 OFFCURVE",
"387 -173 OFFCURVE",
"387 -159 QCURVE",
"387 -136 OFFCURVE",
"352 -102 OFFCURVE",
"309 -102 QCURVE",
"296 -101 LINE",
"272 -82 LINE {name = hr00;}"
);
}
);
width = 589;
}
);
leftKerningGroup = C;
rightKerningGroup = C;
unicode = 00C7;
userData = {
com.typemytype.robofont.mark = (
0.713,
0.6,
1,
1
);
};
},
{
glyphname = D;
lastChange = "2018-07-23 17:46:20 +0000";
layers = (
{
layerId = "7A2A571C-0203-4ADD-BC50-2735B3AB72B4";
paths = (
{
closed = 1;
nodes = (
"112 69 LINE",
"112 627 LINE",
"55 632 LINE",
"55 691 LINE",
"198 691 LINE {name = mh01;}",
"275 691 OFFCURVE",
"408 650 OFFCURVE",
"505 565 OFFCURVE",
"561 436 OFFCURVE",
"561 349 QCURVE",
"561 260 OFFCURVE",
"512 129 OFFCURVE",
"420 42 OFFCURVE",
"291 0 OFFCURVE",
"211 0 QCURVE",
"62 0 LINE",
"55 56 LINE {name = hr00;}"
);
},
{
closed = 1;
nodes = (
"490 409 OFFCURVE",
"452 510 OFFCURVE",
"380 583 OFFCURVE",
"275 623 OFFCURVE",
"208 623 QCURVE {name = mh02;}",
"181 623 LINE",
"181 68 LINE",
"225 68 LINE",
"304 68 OFFCURVE",
"406 117 OFFCURVE",
"466 196 OFFCURVE",
"490 297 OFFCURVE",
"490 348 QCURVE"
);
}
);
width = 605;
},
{
layerId = "3C57ECF2-80FF-487A-B259-F9D598FB850F";
paths = (
{
closed = 1;
nodes = (
"104 101 LINE {name = ah05;}",
"104 594 LINE {name = mh01;}",
"41 602 LINE {name = fh01;}",
"41 690 LINE {name = ah08;}",
"219 690 LINE {name = ah01;}",
"310 690 OFFCURVE",
"454 648 OFFCURVE {name = ah04;}",
"553 564 OFFCURVE",
"606 437 OFFCURVE",
"606 353 QCURVE {name = ah02;}",
"606 183 OFFCURVE {name = fv01;}",
"433 0 OFFCURVE {name = fh02;}",
"262 0 QCURVE",
"53 0 LINE",
"39 88 LINE {name = hr00;}"
);
},
{
closed = 1;
nodes = (
"469 469 OFFCURVE",
"349 585 OFFCURVE",
"235 585 QCURVE {name = ah07;}",
"235 105 LINE {name = ah06;}",
"240 105 OFFCURVE",
"249 104 OFFCURVE",
"254 104 QCURVE",
"360 104 OFFCURVE {name = mh02;}",
"469 229 OFFCURVE {name = mv01;}",
"469 350 QCURVE {name = ah03;}"
);
}
);
width = 637;
}
);
leftKerningGroup = E;
rightKerningGroup = D;
unicode = 0044;
userData = {
com.typemytype.robofont.mark = (
0.713,
0.6,
1,
1
);
};
},
{
glyphname = Eth;
lastChange = "2018-07-23 17:46:20 +0000";
layers = (
{
layerId = "7A2A571C-0203-4ADD-BC50-2735B3AB72B4";
paths = (
{
closed = 1;
nodes = (
"113 69 LINE",
"113 314 LINE",
"23 314 LINE",
"23 369 LINE",
"30 377 LINE",
"113 377 LINE",
"113 627 LINE",
"56 632 LINE",
"56 691 LINE",
"199 691 LINE",
"276 691 OFFCURVE",
"409 650 OFFCURVE",
"506 565 OFFCURVE",
"562 436 OFFCURVE",
"562 349 QCURVE",
"562 260 OFFCURVE",
"513 129 OFFCURVE",
"421 42 OFFCURVE",
"292 0 OFFCURVE",
"212 0 QCURVE",
"63 0 LINE",
"56 56 LINE {name = hr00;}"
);
},
{
closed = 1;
nodes = (
"491 409 OFFCURVE",
"453 510 OFFCURVE",
"381 583 OFFCURVE",
"276 623 OFFCURVE",
"209 623 QCURVE",
"182 623 LINE",
"182 377 LINE",
"350 377 LINE",
"357 377 OFFCURVE",
"357 370 QCURVE",
"357 314 LINE",
"182 314 LINE",
"182 68 LINE",
"226 68 LINE",
"305 68 OFFCURVE",
"407 117 OFFCURVE",
"467 196 OFFCURVE",
"491 297 OFFCURVE",
"491 348 QCURVE"
);
}
);
width = 606;
},
{
layerId = "3C57ECF2-80FF-487A-B259-F9D598FB850F";
paths = (
{
closed = 1;
nodes = (
"106 101 LINE",
"106 309 LINE",
"14 309 LINE",
"14 391 LINE",
"28 403 LINE",
"106 403 LINE",
"106 595 LINE",
"43 603 LINE",
"43 691 LINE {name = mh01;}",
"222 691 LINE",
"313 691 OFFCURVE",
"456 649 OFFCURVE {name = mh02;}",
"555 565 OFFCURVE",
"608 438 OFFCURVE",
"608 354 QCURVE",
"608 185 OFFCURVE",
"434 0 OFFCURVE",
"265 0 QCURVE",
"48 0 LINE",
"41 88 LINE {name = hr00;}"
);
},
{
closed = 1;
nodes = (
"237 105 LINE",
"242 105 OFFCURVE",
"251 104 OFFCURVE",
"256 104 QCURVE",
"362 104 OFFCURVE",
"472 230 OFFCURVE",
"472 351 QCURVE {name = mh03;}",
"472 470 OFFCURVE {name = mh04;}",
"352 586 OFFCURVE",
"237 586 QCURVE",
"237 403 LINE {name = mh05;}",
"362 403 LINE",
"369 403 OFFCURVE",
"369 396 QCURVE",
"369 309 LINE",
"237 309 LINE"
);
}
);
width = 639;
}
);
leftKerningGroup = E;
rightKerningGroup = D;
unicode = 00D0;
userData = {
com.typemytype.robofont.mark = (
0.713,
0.6,
1,
1
);
};
},
{
glyphname = E;
lastChange = "2018-07-23 17:46:20 +0000";
layers = (
{
layerId = "7A2A571C-0203-4ADD-BC50-2735B3AB72B4";
paths = (
{
closed = 1;
nodes = (
"55 691 LINE {name = mh01;}",
"453 691 LINE",
"473 520 LINE",
"425 520 LINE",
"391 623 LINE",
"181 623 LINE {name = mh02;}",
"181 377 LINE",
"343 377 LINE",
"343 314 LINE",
"181 314 LINE {name = hr01;}",
"181 68 LINE",
"401 68 LINE {name = hr02;}",
"436 171 LINE",
"483 171 LINE",
"464 0 LINE",
"62 0 LINE",
"55 56 LINE",
"112 68 LINE",
"112 627 LINE",
"55 632 LINE {name = hr00;}"
);
}
);
width = 523;
},
{
layerId = "3C57ECF2-80FF-487A-B259-F9D598FB850F";
paths = (
{
closed = 1;
nodes = (
"516 486 LINE",
"438 486 LINE {name = hr03;}",
"397 585 LINE {name = mh02;}",
"235 585 LINE {name = mh03;}",
"235 407 LINE {name = mh04;}",
"387 407 LINE {name = mh05;}",
"387 302 LINE {name = mv01;}",
"235 302 LINE {name = mh06;}",
"235 105 LINE {name = mv02;}",
"404 105 LINE {name = hr02;}",
"441 204 LINE {name = mh07;}",
"520 204 LINE {name = hr01;}",
"499 0 LINE",
"53 0 LINE",
"39 88 LINE",
"104 101 LINE",
"104 594 LINE {name = mh08;}",
"41 601 LINE",
"41 690 LINE {name = mh09;}",
"497 690 LINE {name = mh01;}"
);
}
);
width = 555;
}
);
leftKerningGroup = E;
rightKerningGroup = E;
unicode = 0045;
userData = {
com.typemytype.robofont.mark = (
0.713,
0.6,
1,
1
);
};
},
{
glyphname = Eacute;
lastChange = "2018-07-23 17:46:20 +0000";
layers = (
{
layerId = "7A2A571C-0203-4ADD-BC50-2735B3AB72B4";
paths = (
{
closed = 1;
nodes = (
"331 897 LINE",
"361 890 LINE",
"398 818 LINE",
"205 717 LINE",
"173 764 LINE {name = hr00;}"
);
},
{
closed = 1;
nodes = (
"55 691 LINE {name = mh01;}",
"453 691 LINE",
"473 520 LINE",
"425 520 LINE",
"391 623 LINE {name = hr01;}",
"181 623 LINE",
"181 377 LINE {name = hr02;}",
"343 377 LINE",
"343 314 LINE",
"181 314 LINE",
"181 68 LINE",
"401 68 LINE",
"436 171 LINE",
"483 171 LINE",
"464 0 LINE",
"62 0 LINE",
"55 56 LINE",
"112 68 LINE",
"112 627 LINE",
"55 632 LINE"
);
}
);
width = 523;
},
{
layerId = "3C57ECF2-80FF-487A-B259-F9D598FB850F";
paths = (
{
closed = 1;
nodes = (
"516 486 LINE {name = mh02;}",
"438 486 LINE",
"397 585 LINE",
"235 585 LINE {name = mh03;}",
"235 407 LINE",
"387 407 LINE {name = mh04;}",
"387 302 LINE {name = mv01;}",
"235 302 LINE",
"235 105 LINE {name = mh05;}",
"404 105 LINE",
"441 204 LINE {name = mh06;}",
"520 204 LINE {name = hr01;}",
"499 0 LINE",
"53 0 LINE {name = hr02;}",
"39 88 LINE",
"104 101 LINE",
"104 594 LINE {name = mh07;}",
"41 601 LINE",
"41 690 LINE {name = mh08;}",
"497 690 LINE {name = mh01;}"
);
},
{
closed = 1;
nodes = (
"334 959 LINE",
"371 974 LINE {name = hr03;}",
"449 865 LINE",
"252 741 LINE {name = mh09;}",
"205 795 LINE"
);
}
);
width = 555;
}
);
leftKerningGroup = E;
rightKerningGroup = E;
unicode = 00C9;
userData = {
com.typemytype.robofont.mark = (
0.713,
0.6,
1,
1
);
};
},
{
glyphname = Ecircumflex;
lastChange = "2018-07-23 17:46:20 +0000";
layers = (
{
layerId = "7A2A571C-0203-4ADD-BC50-2735B3AB72B4";
paths = (
{
closed = 1;
nodes = (
"267 884 LINE",
"408 727 LINE",
"334 727 LINE",
"258 790 LINE",
"183 727 LINE",
"109 727 LINE",
"251 884 LINE {name = ah02;}"
);
},
{
closed = 1;
nodes = (
"55 691 LINE {name = ah01;}",
"453 691 LINE",
"473 520 LINE {name = hr01;}",
"425 520 LINE",
"391 623 LINE {name = hr02;}",
"181 623 LINE",
"181 377 LINE",
"343 377 LINE",
"343 314 LINE",
"181 314 LINE {name = hr03;}",
"181 68 LINE",
"401 68 LINE",
"436 171 LINE {name = hr04;}",
"483 171 LINE",
"464 0 LINE",
"62 0 LINE",
"55 56 LINE",
"112 68 LINE",
"112 627 LINE",
"55 632 LINE"
);
}
);
width = 523;
},
{
layerId = "3C57ECF2-80FF-487A-B259-F9D598FB850F";
paths = (
{
closed = 1;
nodes = (
"263 903 LINE {name = av01;}",
"300 903 LINE",
"472 736 LINE",
"465 724 LINE",
"379 724 LINE",
"281 782 LINE",
"184 724 LINE",
"99 724 LINE",
"92 737 LINE {name = hr00;}"
);
},
{
closed = 1;
nodes = (
"516 487 LINE {name = hr01;}",
"438 487 LINE",
"397 586 LINE {name = hr02;}",
"235 586 LINE",
"235 408 LINE",
"387 408 LINE",
"387 303 LINE",
"235 303 LINE",
"235 105 LINE",
"404 105 LINE",
"441 204 LINE",
"520 204 LINE",
"499 0 LINE",
"53 0 LINE",
"39 88 LINE",
"104 101 LINE",
"104 595 LINE",
"41 602 LINE",
"41 691 LINE",
"497 691 LINE {name = mh01;}"
);
}
);
width = 555;
}
);
leftKerningGroup = E;
rightKerningGroup = E;
unicode = 00CA;
userData = {
com.typemytype.robofont.mark = (
0.713,
0.6,
1,
1
);
};
},
{
glyphname = Edieresis;
lastChange = "2018-07-23 17:46:20 +0000";
layers = (
{
layerId = "7A2A571C-0203-4ADD-BC50-2735B3AB72B4";
paths = (
{
closed = 1;
nodes = (
"55 691 LINE {name = ah01;}",
"453 691 LINE",
"473 520 LINE",
"425 520 LINE",
"391 623 LINE",
"181 623 LINE",
"181 377 LINE",
"343 377 LINE",
"343 314 LINE",
"181 314 LINE",
"181 68 LINE",
"401 68 LINE",
"436 171 LINE",
"483 171 LINE",
"464 0 LINE",
"62 0 LINE",
"55 56 LINE",
"112 68 LINE {name = hr01;}",
"112 627 LINE",
"55 632 LINE {name = hr00;}"
);
},
{
closed = 1;
nodes = (
"119 817 OFFCURVE",
"152 850 OFFCURVE",
"176 850 QCURVE {name = ah02;}",
"199 850 OFFCURVE",
"234 817 OFFCURVE",
"234 793 QCURVE",
"234 769 OFFCURVE",
"199 735 OFFCURVE",
"176 735 QCURVE",
"152 735 OFFCURVE",
"119 769 OFFCURVE",
"119 793 QCURVE {name = hr02;}"
);
},
{
closed = 1;
nodes = (
"295 817 OFFCURVE",
"330 850 OFFCURVE",
"355 850 QCURVE",
"378 850 OFFCURVE",
"410 817 OFFCURVE",
"410 793 QCURVE {name = hr03;}",
"410 769 OFFCURVE",
"378 735 OFFCURVE",
"355 735 QCURVE",
"330 735 OFFCURVE",
"295 769 OFFCURVE",
"295 793 QCURVE"
);
}
);
width = 523;
},
{
layerId = "3C57ECF2-80FF-487A-B259-F9D598FB850F";
paths = (
{
closed = 1;
nodes = (
"516 487 LINE",
"438 487 LINE {name = hr03;}",
"397 586 LINE",
"235 586 LINE",
"235 408 LINE",
"387 408 LINE",
"387 303 LINE",
"235 303 LINE",
"235 105 LINE",
"404 105 LINE {name = hr02;}",
"441 204 LINE",
"520 204 LINE {name = hr01;}",
"499 0 LINE",
"53 0 LINE",
"39 88 LINE",
"104 101 LINE",
"104 595 LINE",
"41 602 LINE",
"41 691 LINE {name = mv01;}",
"497 691 LINE {name = hr00;}"
);
},
{
closed = 1;
nodes = (
"131 833 OFFCURVE",
"171 873 OFFCURVE",
"199 873 QCURVE",
"228 873 OFFCURVE",
"268 833 OFFCURVE",
"268 804 QCURVE",
"268 775 OFFCURVE",
"228 736 OFFCURVE",
"199 736 QCURVE",
"171 736 OFFCURVE",
"131 775 OFFCURVE",
"131 804 QCURVE"
);
},
{
closed = 1;
nodes = (
"309 833 OFFCURVE",
"348 873 OFFCURVE",
"377 873 QCURVE",
"406 873 OFFCURVE",
"444 833 OFFCURVE",
"444 804 QCURVE",
"444 775 OFFCURVE",
"406 736 OFFCURVE",
"377 736 QCURVE",
"348 736 OFFCURVE",
"309 775 OFFCURVE",
"309 804 QCURVE"
);
}
);
width = 555;
}
);
leftKerningGroup = E;
rightKerningGroup = E;
unicode = 00CB;
userData = {
com.typemytype.robofont.mark = (
0.713,
0.6,
1,
1
);
};
},
{
glyphname = Egrave;
lastChange = "2018-07-23 17:46:20 +0000";
layers = (
{
layerId = "7A2A571C-0203-4ADD-BC50-2735B3AB72B4";
paths = (
{
closed = 1;
nodes = (
"124 818 LINE",
"161 890 LINE {name = ah02;}",
"191 897 LINE",
"359 764 LINE",
"328 717 LINE {name = hr00;}"
);
},
{
closed = 1;
nodes = (
"55 691 LINE {name = ah01;}",
"453 691 LINE",
"473 520 LINE",
"425 520 LINE",
"391 623 LINE {name = hr01;}",
"181 623 LINE",
"181 377 LINE {name = hr02;}",
"343 377 LINE",
"343 314 LINE",
"181 314 LINE",
"181 68 LINE",
"401 68 LINE",
"436 171 LINE",
"483 171 LINE",
"464 0 LINE",
"62 0 LINE",
"55 56 LINE",
"112 68 LINE",
"112 627 LINE",
"55 632 LINE"
);
}
);
width = 523;
},
{
layerId = "3C57ECF2-80FF-487A-B259-F9D598FB850F";
paths = (
{
closed = 1;
nodes = (
"516 487 LINE",
"438 487 LINE {name = hr03;}",
"397 586 LINE",
"235 586 LINE",
"235 408 LINE",
"387 408 LINE",
"387 303 LINE",
"235 303 LINE",
"235 105 LINE",
"404 105 LINE {name = hr02;}",
"441 204 LINE",
"520 204 LINE {name = hr01;}",
"499 0 LINE",
"53 0 LINE",
"39 88 LINE",
"104 101 LINE",
"104 595 LINE",
"41 602 LINE",
"41 691 LINE {name = mv01;}",
"497 691 LINE {name = hr00;}"
);
},
{
closed = 1;
nodes = (
"170 868 LINE",
"247 959 LINE",
"282 942 LINE",
"394 765 LINE",
"353 724 LINE"
);
}
);
width = 555;
}
);
leftKerningGroup = E;
rightKerningGroup = E;
unicode = 00C8;
userData = {
com.typemytype.robofont.mark = (
0.713,
0.6,
1,
1
);
};
},
{
glyphname = F;
lastChange = "2018-07-23 17:46:20 +0000";
layers = (
{
layerId = "7A2A571C-0203-4ADD-BC50-2735B3AB72B4";
paths = (
{
closed = 1;
nodes = (
"61 0 LINE",
"55 56 LINE",
"112 68 LINE {name = hr01;}",
"112 627 LINE",
"55 632 LINE {name = hr02;}",
"55 691 LINE {name = mh01;}",
"453 691 LINE",
"474 520 LINE",
"426 520 LINE",
"391 624 LINE",
"181 624 LINE {name = mh02;}",
"181 377 LINE",
"343 377 LINE",
"343 314 LINE",
"181 314 LINE",
"181 72 LINE",
"333 51 LINE",
"328 0 LINE {name = hr00;}"
);
}
);
width = 492;
},
{
layerId = "3C57ECF2-80FF-487A-B259-F9D598FB850F";
paths = (
{
closed = 1;
nodes = (
"53 0 LINE",
"39 88 LINE",
"104 101 LINE",
"104 594 LINE {name = mh01;}",
"41 601 LINE {name = mh02;}",
"41 690 LINE {name = mv01;}",
"497 690 LINE {name = mh03;}",
"516 485 LINE",
"440 485 LINE {name = hr01;}",
"397 585 LINE {name = mh04;}",
"235 585 LINE {name = mh05;}",
"235 407 LINE {name = mh06;}",
"387 407 LINE {name = av01;}",
"387 302 LINE {name = mv02;}",
"235 302 LINE",
"235 105 LINE",
"405 79 LINE {name = mv03;}",
"398 0 LINE {name = hr00;}"
);
}
);
width = 528;
}
);
leftKerningGroup = E;
unicode = 0046;
userData = {
com.typemytype.robofont.mark = (
0.713,
0.6,
1,
1
);
};
},
{
glyphname = G;
lastChange = "2018-07-23 17:46:20 +0000";
layers = (
{
layerId = "7A2A571C-0203-4ADD-BC50-2735B3AB72B4";
paths = (
{
closed = 1;
nodes = (
"544 17 LINE",
"507 6 OFFCURVE",
"427 -4 OFFCURVE",
"386 -4 QCURVE",
"311 -4 OFFCURVE",
"184 47 OFFCURVE",
"92 138 OFFCURVE",
"40 264 OFFCURVE",
"40 340 QCURVE",
"40 417 OFFCURVE",
"89 546 OFFCURVE",
"180 639 OFFCURVE",
"308 691 OFFCURVE",
"386 691 QCURVE {name = mh01;}",
"423 691 OFFCURVE",
"493 681 OFFCURVE",
"525 673 QCURVE",
"536 519 LINE",
"473 519 LINE",
"450 618 LINE",
"435 620 OFFCURVE",
"395 623 OFFCURVE",
"381 623 QCURVE {name = mh02;}",
"316 623 OFFCURVE",
"215 579 OFFCURVE",
"146 503 OFFCURVE",
"111 401 OFFCURVE",
"111 343 QCURVE",
"111 280 OFFCURVE",
"152 178 OFFCURVE",
"226 104 OFFCURVE",
"329 64 OFFCURVE",
"392 64 QCURVE",
"411 64 OFFCURVE",
"457 67 OFFCURVE",
"475 71 QCURVE",
"475 238 LINE",
"352 252 LINE",
"370 313 LINE",
"544 313 LINE {name = hr00;}"
);
}
);
width = 607;
},
{
layerId = "3C57ECF2-80FF-487A-B259-F9D598FB850F";
paths = (
{
closed = 1;
nodes = (
"572 9 LINE",
"558 7 OFFCURVE",
"516 3 OFFCURVE",
"465 -1 OFFCURVE",
"408 -4 OFFCURVE",
"380 -4 QCURVE",
"310 -4 OFFCURVE",
"182 36 OFFCURVE",
"85 120 OFFCURVE",
"27 249 OFFCURVE",
"27 337 QCURVE {name = av01;}",
"27 420 OFFCURVE",
"79 552 OFFCURVE",
"172 643 OFFCURVE {name = ah04;}",
"299 692 OFFCURVE {name = ah05;}",
"374 692 QCURVE {name = ah01;}",
"404 692 OFFCURVE",
"459 686 OFFCURVE",
"506 678 OFFCURVE {name = ah03;}",
"539 669 OFFCURVE {name = ah02;}",
"547 667 QCURVE",
"565 461 LINE",
"484 461 LINE",
"433 584 LINE",
"424 585 OFFCURVE",
"402 587 OFFCURVE",
"372 587 QCURVE {name = ah06;}",
"330 587 OFFCURVE",
"254 552 OFFCURVE {name = av02;}",
"197 486 OFFCURVE",
"164 394 OFFCURVE",
"164 337 QCURVE",
"164 284 OFFCURVE",
"196 197 OFFCURVE",
"258 133 OFFCURVE",
"351 98 OFFCURVE",
"411 98 QCURVE",
"422 98 OFFCURVE",
"436 99 OFFCURVE",
"441 100 QCURVE",
"441 229 LINE",
"338 243 LINE",
"356 324 LINE",
"572 324 LINE {name = hr00;}"
);
}
);
width = 620;
}
);
leftKerningGroup = C;
unicode = 0047;
userData = {
com.typemytype.robofont.mark = (
0.713,
0.6,
1,
1
);
};
},
{
glyphname = H;
lastChange = "2018-07-23 17:46:20 +0000";
layers = (
{
layerId = "7A2A571C-0203-4ADD-BC50-2735B3AB72B4";
paths = (
{
closed = 1;
nodes = (
"476 324 LINE",
"180 324 LINE",
"180 64 LINE",
"238 60 LINE {name = hr01;}",
"238 0 LINE",
"62 0 LINE",
"57 56 LINE",
"112 64 LINE {name = hr02;}",
"112 627 LINE",
"54 631 LINE {name = hr03;}",
"54 691 LINE",
"231 691 LINE {name = mh01;}",
"235 635 LINE",
"180 627 LINE",
"180 387 LINE",
"476 387 LINE {name = hr04;}",
"476 627 LINE",
"418 631 LINE {name = hr05;}",
"418 691 LINE",
"594 691 LINE",
"599 635 LINE",
"544 627 LINE {name = hr06;}",
"544 64 LINE",
"602 60 LINE {name = hr07;}",
"602 0 LINE",
"425 0 LINE",
"421 56 LINE",
"476 64 LINE {name = hr00;}"
);
}
);
width = 656;
},
{
layerId = "3C57ECF2-80FF-487A-B259-F9D598FB850F";
paths = (
{
closed = 1;
nodes = (
"461 102 LINE",
"461 302 LINE",
"236 302 LINE",
"236 99 LINE",
"299 87 LINE",
"299 68 LINE",
"299 55 OFFCURVE",
"300 27 OFFCURVE",
"300 15 QCURVE",
"300 0 LINE",
"55 0 LINE",
"40 89 LINE",
"105 102 LINE",
"105 592 LINE",
"42 599 LINE",
"42 690 LINE",
"286 690 LINE",
"301 597 LINE",
"236 585 LINE",
"236 407 LINE",
"461 407 LINE",
"461 592 LINE",
"405 599 LINE",
"405 690 LINE",
"652 690 LINE",
"667 597 LINE",
"592 585 LINE",
"592 99 LINE",
"665 87 LINE",
"665 68 LINE",
"665 55 OFFCURVE",
"664 27 OFFCURVE",
"664 15 QCURVE",
"664 0 LINE",
"418 0 LINE",
"403 89 LINE {name = hr00;}"
);
}
);
width = 702;
}
);
leftKerningGroup = H;
rightKerningGroup = H;
unicode = 0048;
userData = {
com.typemytype.robofont.mark = (
0.713,
0.6,
1,
1
);
};
},
{
glyphname = I;
lastChange = "2018-07-23 17:46:20 +0000";
layers = (
{
layerId = "7A2A571C-0203-4ADD-BC50-2735B3AB72B4";
paths = (
{
closed = 1;
nodes = (
"112 627 LINE",
"55 631 LINE",
"55 691 LINE",
"231 691 LINE {name = hr01;}",
"235 635 LINE",
"181 627 LINE",
"181 64 LINE",
"238 60 LINE {name = hr02;}",
"238 0 LINE",
"62 0 LINE {name = hr03;}",
"58 56 LINE",
"112 64 LINE {name = hr00;}"
);
}
);
width = 293;
},
{
layerId = "3C57ECF2-80FF-487A-B259-F9D598FB850F";
paths = (
{
closed = 1;
nodes = (
"107 102 LINE",
"107 592 LINE",
"39 599 LINE",
"39 690 LINE",
"299 690 LINE",
"314 597 LINE",
"238 585 LINE",
"238 99 LINE",
"312 87 LINE",
"312 68 LINE",
"312 55 OFFCURVE",
"311 27 OFFCURVE",
"311 15 QCURVE",
"311 0 LINE",
"51 0 LINE",
"37 89 LINE {name = hr00;}"
);
}
);
width = 348;
}
);
leftKerningGroup = I;
rightKerningGroup = I;
unicode = 0049;
userData = {
com.typemytype.robofont.mark = (
0.713,
0.6,
1,
1
);
};
},
{
glyphname = Iacute;
lastChange = "2018-07-23 17:46:20 +0000";
layers = (
{
layerId = "7A2A571C-0203-4ADD-BC50-2735B3AB72B4";
paths = (
{
closed = 1;
nodes = (
"194 897 LINE {name = ah01;}",
"225 890 LINE",
"261 818 LINE",
"68 717 LINE {name = hr01;}",
"37 764 LINE {name = hr00;}"
);
},
{
closed = 1;
nodes = (
"112 627 LINE",
"55 631 LINE",
"55 691 LINE {name = hr02;}",
"231 691 LINE",
"235 635 LINE {name = hr03;}",
"181 627 LINE",
"181 64 LINE",
"238 60 LINE",
"238 0 LINE",
"62 0 LINE",
"58 56 LINE",
"112 64 LINE"
);
}
);
width = 293;
},
{
layerId = "3C57ECF2-80FF-487A-B259-F9D598FB850F";
paths = (
{
closed = 1;
nodes = (
"107 102 LINE",
"107 593 LINE",
"39 600 LINE",
"39 691 LINE",
"299 691 LINE",
"314 598 LINE",
"238 586 LINE",
"238 99 LINE",
"312 87 LINE",
"312 68 LINE",
"312 55 OFFCURVE",
"311 27 OFFCURVE",
"311 15 QCURVE",
"311 0 LINE",
"51 0 LINE",
"37 89 LINE {name = hr00;}"
);
},
{
closed = 1;
nodes = (
"200 959 LINE",
"237 974 LINE",
"315 865 LINE",
"118 741 LINE",
"71 795 LINE"
);
}
);
width = 348;
}
);
leftKerningGroup = I;
rightKerningGroup = I;
unicode = 00CD;
userData = {
com.typemytype.robofont.mark = (
0.713,
0.6,
1,
1
);
};
},
{
glyphname = Icircumflex;
lastChange = "2018-07-23 17:46:20 +0000";
layers = (
{
layerId = "7A2A571C-0203-4ADD-BC50-2735B3AB72B4";
paths = (
{
closed = 1;
nodes = (
"157 884 LINE",
"297 727 LINE",
"224 727 LINE",
"148 790 LINE {name = hr01;}",
"73 727 LINE",
"-1 727 LINE",
"141 884 LINE {name = ah01;}"
);
},
{
closed = 1;
nodes = (
"112 627 LINE {name = hr02;}",
"55 631 LINE",
"55 691 LINE {name = hr03;}",
"231 691 LINE",
"235 635 LINE",
"181 627 LINE",
"181 64 LINE",
"238 60 LINE",
"238 0 LINE",
"62 0 LINE",
"58 56 LINE",
"112 64 LINE"
);
}
);
width = 293;
},
{
layerId = "3C57ECF2-80FF-487A-B259-F9D598FB850F";
paths = (
{
closed = 1;
nodes = (
"107 102 LINE",
"107 593 LINE",
"39 600 LINE",
"39 691 LINE",
"299 691 LINE",
"314 598 LINE",
"238 586 LINE",
"238 99 LINE",
"312 87 LINE",
"312 68 LINE",
"312 55 OFFCURVE",
"311 27 OFFCURVE",
"311 15 QCURVE",
"311 0 LINE",
"51 0 LINE",
"37 89 LINE {name = hr00;}"
);
},
{
closed = 1;
nodes = (
"157 903 LINE",
"194 903 LINE",
"366 736 LINE",
"359 724 LINE",
"273 724 LINE",
"175 782 LINE",
"77 724 LINE",
"-8 724 LINE",
"-14 737 LINE"
);
}
);
width = 348;
}
);
leftKerningGroup = I;
rightKerningGroup = I;
unicode = 00CE;
userData = {
com.typemytype.robofont.mark = (
0.713,
0.6,
1,
1
);
};
},
{
glyphname = Idieresis;
lastChange = "2018-07-23 17:46:20 +0000";
layers = (
{
layerId = "7A2A571C-0203-4ADD-BC50-2735B3AB72B4";
paths = (
{
closed = 1;
nodes = (
"20 816 OFFCURVE",
"52 850 OFFCURVE",
"76 850 QCURVE {name = ah02;}",
"100 850 OFFCURVE",
"134 816 OFFCURVE",
"134 793 QCURVE",
"134 769 OFFCURVE",
"100 735 OFFCURVE",
"76 735 QCURVE",
"52 735 OFFCURVE",
"20 769 OFFCURVE",
"20 793 QCURVE {name = hr01;}"
);
},
{
closed = 1;
nodes = (
"165 816 OFFCURVE",
"199 850 OFFCURVE",
"223 850 QCURVE",
"247 850 OFFCURVE",
"279 816 OFFCURVE",
"279 793 QCURVE",
"279 769 OFFCURVE",
"247 735 OFFCURVE",
"223 735 QCURVE",
"199 735 OFFCURVE",
"165 769 OFFCURVE",
"165 793 QCURVE"
);
},
{
closed = 1;
nodes = (
"112 627 LINE",
"55 631 LINE",
"55 691 LINE {name = ah01;}",
"231 691 LINE",
"235 635 LINE",
"181 627 LINE",
"181 64 LINE",
"238 60 LINE",
"238 0 LINE",
"62 0 LINE",
"58 56 LINE",
"112 64 LINE"
);
}
);
width = 293;
},
{
layerId = "3C57ECF2-80FF-487A-B259-F9D598FB850F";
paths = (
{
closed = 1;
nodes = (
"107 102 LINE",
"107 593 LINE",
"39 600 LINE",
"39 691 LINE",
"299 691 LINE",
"314 598 LINE",
"238 586 LINE",
"238 99 LINE",
"312 87 LINE",
"312 68 LINE",
"312 55 OFFCURVE",
"311 27 OFFCURVE",
"311 15 QCURVE",
"311 0 LINE",
"51 0 LINE",
"37 89 LINE {name = hr00;}"
);
},
{
closed = 1;
nodes = (
"23 833 OFFCURVE",
"63 873 OFFCURVE",
"91 873 QCURVE",
"120 873 OFFCURVE",
"160 833 OFFCURVE",
"160 804 QCURVE {name = hr01;}",
"160 775 OFFCURVE",
"120 736 OFFCURVE",
"91 736 QCURVE",
"63 736 OFFCURVE",
"23 775 OFFCURVE",
"23 804 QCURVE"
);
},
{
closed = 1;
nodes = (
"201 833 OFFCURVE",
"240 873 OFFCURVE",
"269 873 QCURVE",
"298 873 OFFCURVE",
"336 833 OFFCURVE",
"336 804 QCURVE",
"336 775 OFFCURVE",
"298 736 OFFCURVE",
"269 736 QCURVE",
"240 736 OFFCURVE",
"201 775 OFFCURVE",
"201 804 QCURVE"
);
}
);
width = 348;
}
);
leftKerningGroup = I;
rightKerningGroup = I;
unicode = 00CF;
userData = {
com.typemytype.robofont.mark = (
0.713,
0.6,
1,
1
);
};
},
{
glyphname = Igrave;
lastChange = "2018-07-23 17:46:20 +0000";
layers = (
{
layerId = "7A2A571C-0203-4ADD-BC50-2735B3AB72B4";
paths = (
{
closed = 1;
nodes = (
"40 818 LINE",
"76 890 LINE",
"107 897 LINE",
"275 764 LINE {name = hr01;}",
"243 717 LINE {name = hr00;}"
);
},
{
closed = 1;
nodes = (
"112 627 LINE",
"55 631 LINE",
"55 691 LINE {name = hr02;}",
"231 691 LINE",
"235 635 LINE {name = hr03;}",
"181 627 LINE",
"181 64 LINE",
"238 60 LINE",
"238 0 LINE",
"62 0 LINE",
"58 56 LINE",
"112 64 LINE"
);
}
);
width = 293;
},
{
layerId = "3C57ECF2-80FF-487A-B259-F9D598FB850F";
paths = (
{
closed = 1;
nodes = (
"107 102 LINE",
"107 593 LINE",
"39 600 LINE",
"39 691 LINE",
"299 691 LINE",
"314 598 LINE",
"238 586 LINE",
"238 99 LINE",
"312 87 LINE",
"312 68 LINE",
"312 55 OFFCURVE",
"311 27 OFFCURVE",
"311 15 QCURVE",
"311 0 LINE",
"51 0 LINE",
"37 89 LINE {name = hr00;}"
);
},
{
closed = 1;
nodes = (
"58 868 LINE",
"135 959 LINE",
"170 942 LINE",
"282 765 LINE",
"241 724 LINE"
);
}
);
width = 348;
}
);
leftKerningGroup = I;
rightKerningGroup = I;
unicode = 00CC;
userData = {
com.typemytype.robofont.mark = (
0.713,
0.6,
1,
1
);
};
},
{
glyphname = J;
lastChange = "2018-07-23 17:46:20 +0000";
layers = (
{
layerId = "7A2A571C-0203-4ADD-BC50-2735B3AB72B4";
paths = (
{
closed = 1;
nodes = (
"122 691 LINE",
"315 691 LINE {name = mh01;}",
"315 631 LINE",
"257 627 LINE",
"257 144 LINE",
"257 90 OFFCURVE",
"227 30 OFFCURVE",
"187 2 OFFCURVE",
"145 -4 OFFCURVE",
"133 -4 QCURVE",
"99 -4 OFFCURVE",
"35 23 OFFCURVE",
"11 44 QCURVE",
"50 102 LINE",
"60 92 OFFCURVE",
"105 62 OFFCURVE",
"138 62 QCURVE",
"159 62 OFFCURVE",
"189 89 OFFCURVE",
"189 123 QCURVE",
"189 627 LINE",
"116 635 LINE {name = hr00;}"
);
}
);
width = 358;
},
{
layerId = "3C57ECF2-80FF-487A-B259-F9D598FB850F";
paths = (
{
closed = 1;
nodes = (
"304 117 OFFCURVE",
"276 47 OFFCURVE {name = mh01;}",
"232 9 OFFCURVE",
"181 -4 OFFCURVE",
"159 -4 QCURVE",
"135 -4 OFFCURVE {name = mv01;}",
"89 8 OFFCURVE",
"48 26 OFFCURVE",
"14 48 OFFCURVE {name = mh02;}",
"2 59 QCURVE",
"72 160 LINE {name = mv02;}",
"101 137 OFFCURVE",
"142 110 OFFCURVE",
"156 110 QCURVE",
"173 110 OFFCURVE",
"173 136 QCURVE {name = mh03;}",
"173 585 LINE",
"93 597 LINE {name = mh04;}",
"108 690 LINE {name = ah01;}",
"372 690 LINE {name = mh05;}",
"372 599 LINE",
"304 592 LINE {name = mh06;}",
"304 175 LINE {name = hr00;}"
);
}
);
width = 397;
}
);
unicode = 004A;
userData = {
com.typemytype.robofont.mark = (
0.713,
0.6,
1,
1
);
};
},
{
glyphname = K;
lastChange = "2018-07-23 17:46:20 +0000";
layers = (
{
layerId = "7A2A571C-0203-4ADD-BC50-2735B3AB72B4";
paths = (
{
closed = 1;
nodes = (
"112 627 LINE",
"55 631 LINE",
"55 691 LINE",
"231 691 LINE {name = hr01;}",
"235 635 LINE",
"181 627 LINE",
"181 286 LINE",
"461 631 LINE",
"382 637 LINE",
"382 691 LINE",
"572 691 LINE",
"572 635 LINE",
"538 628 LINE",
"338 381 LINE",
"517 66 LINE",
"577 57 LINE",
"577 0 LINE",
"471 0 LINE",
"291 323 LINE",
"181 187 LINE",
"181 64 LINE",
"238 60 LINE {name = hr02;}",
"238 0 LINE",
"62 0 LINE {name = hr03;}",
"58 56 LINE",
"112 64 LINE {name = hr00;}"
);
}
);
width = 594;
},
{
layerId = "3C57ECF2-80FF-487A-B259-F9D598FB850F";
paths = (
{
closed = 1;
nodes = (
"107 102 LINE",
"107 592 LINE",
"39 597 LINE",
"39 690 LINE",
"292 690 LINE",
"307 600 LINE",
"238 585 LINE",
"238 345 LINE",
"439 585 LINE",
"362 601 LINE",
"362 690 LINE",
"614 690 LINE",
"614 601 LINE",
"575 593 LINE",
"562 576 OFFCURVE",
"525 531 OFFCURVE",
"479 479 OFFCURVE",
"428 421 OFFCURVE",
"402 391 QCURVE",
"564 97 LINE",
"618 87 LINE",
"618 0 LINE",
"460 0 LINE",
"314 291 LINE",
"291 265 OFFCURVE",
"252 219 OFFCURVE",
"238 202 QCURVE",
"238 99 LINE",
"304 87 LINE",
"304 68 LINE",
"304 55 OFFCURVE",
"305 27 OFFCURVE",
"305 15 QCURVE",
"305 0 LINE",
"51 0 LINE",
"37 89 LINE {name = hr00;}"
);
}
);
width = 635;
}
);
leftKerningGroup = I;
unicode = 004B;
userData = {
com.typemytype.robofont.mark = (
0.713,
0.6,
1,
1
);
};
},
{
glyphname = L;
lastChange = "2018-07-23 17:46:20 +0000";
layers = (
{
layerId = "7A2A571C-0203-4ADD-BC50-2735B3AB72B4";
paths = (
{
closed = 1;
nodes = (
"54 691 LINE {name = mh01;}",
"240 691 LINE",
"244 635 LINE",
"180 627 LINE",
"180 68 LINE",
"400 68 LINE",
"435 171 LINE",
"482 171 LINE",
"463 0 LINE",
"61 0 LINE",
"54 56 LINE",
"111 64 LINE",
"111 627 LINE",
"54 631 LINE {name = hr00;}"
);
}
);
width = 496;
},
{
layerId = "3C57ECF2-80FF-487A-B259-F9D598FB850F";
paths = (
{
closed = 1;
nodes = (
"310 599 LINE",
"235 585 LINE {name = mv02;}",
"235 105 LINE {name = mv03;}",
"404 105 LINE {name = hr02;}",
"441 204 LINE",
"520 204 LINE {name = hr01;}",
"499 0 LINE",
"53 0 LINE",
"39 88 LINE",
"104 101 LINE",
"104 594 LINE",
"41 601 LINE",
"41 690 LINE {name = mh01;}",
"295 690 LINE {name = mv01;}"
);
}
);
width = 524;
}
);
unicode = 004C;
userData = {
com.typemytype.robofont.mark = (
0.713,
0.6,
1,
1
);
};
},
{
glyphname = M;
lastChange = "2018-07-23 17:46:20 +0000";
layers = (
{
layerId = "7A2A571C-0203-4ADD-BC50-2735B3AB72B4";
paths = (
{
closed = 1;
nodes = (
"421 87 LINE",
"608 691 LINE",
"766 691 LINE",
"772 631 LINE",
"720 626 LINE",
"720 67 LINE",
"780 55 LINE",
"780 0 LINE",
"600 0 LINE",
"595 55 LINE",
"651 68 LINE",
"651 636 LINE",
"458 15 LINE",
"371 15 LINE",
"175 623 LINE",
"175 66 LINE",
"238 56 LINE",
"238 0 LINE",
"62 0 LINE",
"54 56 LINE",
"112 68 LINE",
"112 627 LINE",
"55 632 LINE",
"55 691 LINE {name = mh01;}",
"226 691 LINE {name = hr00;}"
);
}
);
width = 831;
},
{
layerId = "3C57ECF2-80FF-487A-B259-F9D598FB850F";
paths = (
{
closed = 1;
nodes = (
"306 690 LINE {name = mh01;}",
"450 178 LINE {name = mh02;}",
"595 690 LINE {name = mh03;}",
"834 690 LINE {name = mh04;}",
"849 597 LINE",
"794 585 LINE {name = mh05;}",
"794 94 LINE",
"845 87 LINE",
"845 0 LINE",
"633 0 LINE {name = mh06;}",
"624 90 LINE",
"668 103 LINE",
"668 596 LINE {name = mh07;}",
"501 13 LINE {name = mh08;}",
"367 13 LINE {name = mh09;}",
"204 589 LINE {name = mh10;}",
"204 98 LINE {name = mh11;}",
"250 87 LINE",
"250 83 OFFCURVE",
"251 55 OFFCURVE",
"251 40 QCURVE",
"251 0 LINE",
"51 0 LINE",
"45 87 LINE",
"104 95 LINE",
"104 590 LINE {name = mh12;}",
"49 596 LINE",
"49 690 LINE {name = hr00;}"
);
}
);
width = 895;
}
);
leftKerningGroup = H;
rightKerningGroup = H;
unicode = 004D;
userData = {
com.typemytype.robofont.mark = (
0.713,
0.6,
1,
1
);
};
},
{
glyphname = N;
lastChange = "2018-07-23 17:46:20 +0000";
layers = (
{
layerId = "7A2A571C-0203-4ADD-BC50-2735B3AB72B4";
paths = (
{
closed = 1;
nodes = (
"174 66 LINE",
"241 56 LINE",
"241 0 LINE",
"62 0 LINE",
"54 56 LINE",
"112 68 LINE",
"112 627 LINE",
"54 632 LINE",
"54 691 LINE {name = mh01;}",
"221 691 LINE {name = mh02;}",
"491 75 LINE",
"491 625 LINE",
"427 635 LINE",
"427 691 LINE",
"605 691 LINE",
"615 635 LINE",
"554 623 LINE",
"554 0 LINE",
"449 0 LINE {name = mh03;}",
"174 629 LINE {name = hr00;}"
);
}
);
width = 659;
},
{
layerId = "3C57ECF2-80FF-487A-B259-F9D598FB850F";
paths = (
{
closed = 1;
nodes = (
"211 104 LINE",
"262 88 LINE",
"262 65 LINE",
"262 51 OFFCURVE",
"261 24 OFFCURVE",
"261 13 QCURVE",
"261 0 LINE",
"53 0 LINE",
"37 87 LINE",
"106 100 LINE",
"106 590 LINE",
"42 597 LINE",
"42 690 LINE",
"298 690 LINE",
"525 96 LINE",
"525 592 LINE",
"467 599 LINE",
"467 690 LINE",
"682 690 LINE",
"697 597 LINE",
"630 585 LINE",
"630 0 LINE",
"428 0 LINE",
"211 562 LINE {name = hr00;}"
);
}
);
width = 727;
}
);
leftKerningGroup = H;
rightKerningGroup = N;
unicode = 004E;
userData = {
com.typemytype.robofont.mark = (
0.713,
0.6,
1,
1
);
};
},
{
glyphname = Ntilde;
lastChange = "2018-07-23 17:46:20 +0000";
layers = (
{
layerId = "7A2A571C-0203-4ADD-BC50-2735B3AB72B4";
paths = (
{
closed = 1;
nodes = (
"504 770 LINE",
"496 763 OFFCURVE",
"476 748 OFFCURVE",
"453 735 OFFCURVE",
"430 727 OFFCURVE {name = mh01;}",
"420 727 QCURVE",
"397 727 OFFCURVE",
"365 743 OFFCURVE",
"335 762 OFFCURVE",
"303 778 OFFCURVE",
"281 778 QCURVE {name = mh02;}",
"249 778 OFFCURVE",
"217 747 OFFCURVE",
"206 729 QCURVE",
"169 760 LINE",
"169 776 LINE",
"172 782 OFFCURVE",
"187 804 OFFCURVE",
"214 826 OFFCURVE",
"254 842 OFFCURVE",
"283 842 QCURVE {name = mh03;}",
"320 842 OFFCURVE",
"373 808 OFFCURVE",
"405 786 QCURVE {name = mh04;}",
"467 836 LINE {name = hr00;}"
);
},
{
closed = 1;
nodes = (
"174 66 LINE",
"241 56 LINE",
"241 0 LINE",
"62 0 LINE",
"54 56 LINE",
"112 68 LINE",
"112 627 LINE",
"54 632 LINE",
"54 691 LINE {name = mh05;}",
"221 691 LINE",
"491 75 LINE",
"491 625 LINE",
"427 635 LINE",
"427 691 LINE",
"605 691 LINE",
"615 635 LINE",
"554 623 LINE",
"554 0 LINE",
"449 0 LINE",
"174 629 LINE"
);
}
);
width = 659;
},
{
layerId = "3C57ECF2-80FF-487A-B259-F9D598FB850F";
paths = (
{
closed = 1;
nodes = (
"211 104 LINE",
"262 88 LINE",
"262 65 LINE",
"262 51 OFFCURVE",
"261 24 OFFCURVE",
"261 13 QCURVE",
"261 0 LINE",
"53 0 LINE",
"37 87 LINE",
"106 100 LINE",
"106 590 LINE",
"42 597 LINE",
"42 690 LINE",
"298 690 LINE",
"525 96 LINE",
"525 592 LINE",
"467 599 LINE",
"467 690 LINE",
"682 690 LINE",
"697 597 LINE",
"630 585 LINE",
"630 0 LINE",
"428 0 LINE",
"211 562 LINE {name = hr00;}"
);
},
{
closed = 1;
nodes = (
"567 805 LINE",
"545 775 OFFCURVE",
"479 727 OFFCURVE",
"444 727 QCURVE",
"421 727 OFFCURVE",
"388 741 OFFCURVE",
"358 758 OFFCURVE",
"327 772 OFFCURVE",
"306 772 QCURVE",
"277 772 OFFCURVE",
"243 737 OFFCURVE",
"237 718 QCURVE",
"163 762 LINE {name = hr01;}",
"163 781 LINE",
"167 793 OFFCURVE",
"188 825 OFFCURVE",
"220 853 OFFCURVE",
"265 873 OFFCURVE",
"295 873 QCURVE",
"321 873 OFFCURVE",
"365 857 OFFCURVE",
"400 839 OFFCURVE",
"425 823 OFFCURVE",
"432 823 QCURVE",
"486 881 LINE"
);
}
);
width = 727;
}
);
leftKerningGroup = H;
rightKerningGroup = N;
unicode = 00D1;
userData = {
com.typemytype.robofont.mark = (
0.713,
0.6,
1,
1
);
};
},
{
glyphname = O;
lastChange = "2018-07-23 17:46:20 +0000";
layers = (
{
layerId = "7A2A571C-0203-4ADD-BC50-2735B3AB72B4";
paths = (
{
closed = 1;
nodes = (
"252 -4 OFFCURVE",
"149 57 OFFCURVE",
"82 156 OFFCURVE",
"50 280 OFFCURVE",
"50 343 QCURVE",
"50 406 OFFCURVE",
"82 530 OFFCURVE",
"149 629 OFFCURVE",
"252 691 OFFCURVE",
"323 691 QCURVE {name = mh01;}",
"394 691 OFFCURVE",
"497 629 OFFCURVE",
"563 530 OFFCURVE",
"595 406 OFFCURVE",
"595 343 QCURVE {name = mh02;}",
"595 280 OFFCURVE",
"563 156 OFFCURVE",
"497 57 OFFCURVE",
"394 -4 OFFCURVE",
"323 -4 QCURVE {name = hr00;}"
);
},
{
closed = 1;
nodes = (
"121 290 OFFCURVE",
"143 191 OFFCURVE",
"191 112 OFFCURVE",
"268 64 OFFCURVE",
"323 64 QCURVE {name = mh03;}",
"378 64 OFFCURVE",
"454 112 OFFCURVE",
"502 191 OFFCURVE",
"524 290 OFFCURVE",
"524 341 QCURVE",
"524 392 OFFCURVE",
"502 493 OFFCURVE",
"454 573 OFFCURVE",
"378 623 OFFCURVE",
"323 623 QCURVE",
"268 623 OFFCURVE",
"191 573 OFFCURVE",
"143 493 OFFCURVE",
"121 392 OFFCURVE",
"121 341 QCURVE"
);
}
);
width = 645;
},
{
layerId = "3C57ECF2-80FF-487A-B259-F9D598FB850F";
paths = (
{
closed = 1;
nodes = (
"257 -4 OFFCURVE",
"148 48 OFFCURVE",
"74 140 OFFCURVE",
"36 268 OFFCURVE",
"36 345 QCURVE {name = mh01;}",
"36 422 OFFCURVE",
"74 550 OFFCURVE",
"148 642 OFFCURVE {name = mh02;}",
"257 693 OFFCURVE",
"328 693 QCURVE {name = mh03;}",
"399 693 OFFCURVE",
"508 642 OFFCURVE",
"581 550 OFFCURVE",
"619 422 OFFCURVE",
"619 345 QCURVE {name = mh04;}",
"619 268 OFFCURVE",
"581 140 OFFCURVE",
"508 48 OFFCURVE",
"399 -4 OFFCURVE",
"328 -4 QCURVE {name = hr00;}"
);
},
{
closed = 1;
nodes = (
"173 292 OFFCURVE",
"195 204 OFFCURVE",
"235 138 OFFCURVE",
"292 101 OFFCURVE",
"328 101 QCURVE",
"363 101 OFFCURVE",
"420 138 OFFCURVE",
"460 204 OFFCURVE",
"482 292 OFFCURVE",
"482 343 QCURVE {name = mh05;}",
"482 394 OFFCURVE",
"460 484 OFFCURVE",
"420 550 OFFCURVE",
"363 588 OFFCURVE",
"328 588 QCURVE",
"292 588 OFFCURVE",
"235 550 OFFCURVE",
"195 484 OFFCURVE",
"173 394 OFFCURVE",
"173 343 QCURVE"
);
}
);
width = 655;
}
);
leftKerningGroup = O;
rightKerningGroup = O;
unicode = 004F;
userData = {
com.typemytype.robofont.mark = (
0.713,
0.6,
1,
1
);
};
},
{
glyphname = Oacute;
lastChange = "2018-07-23 17:46:20 +0000";
layers = (
{
layerId = "7A2A571C-0203-4ADD-BC50-2735B3AB72B4";
paths = (
{
closed = 1;
nodes = (
"366 897 LINE {name = ah02;}",
"396 890 LINE",
"433 818 LINE",
"240 717 LINE {name = ah05;}",
"208 764 LINE {name = hr00;}"
);
},
{
closed = 1;
nodes = (
"252 -4 OFFCURVE",
"149 57 OFFCURVE",
"82 156 OFFCURVE",
"50 280 OFFCURVE",
"50 343 QCURVE {name = ah03;}",
"50 406 OFFCURVE",
"82 530 OFFCURVE",
"149 629 OFFCURVE",
"252 691 OFFCURVE",
"323 691 QCURVE {name = ah01;}",
"394 691 OFFCURVE",
"497 629 OFFCURVE",
"563 530 OFFCURVE",
"595 406 OFFCURVE",
"595 343 QCURVE {name = ah04;}",
"595 280 OFFCURVE",
"563 156 OFFCURVE",
"497 57 OFFCURVE",
"394 -4 OFFCURVE",
"323 -4 QCURVE"
);
},
{
closed = 1;
nodes = (
"121 290 OFFCURVE",
"143 191 OFFCURVE",
"191 112 OFFCURVE",
"268 64 OFFCURVE",
"323 64 QCURVE",
"378 64 OFFCURVE",
"454 112 OFFCURVE",
"502 191 OFFCURVE",
"524 290 OFFCURVE",
"524 341 QCURVE",
"524 392 OFFCURVE",
"502 493 OFFCURVE",
"454 573 OFFCURVE",
"378 623 OFFCURVE",
"323 623 QCURVE",
"268 623 OFFCURVE",
"191 573 OFFCURVE",
"143 493 OFFCURVE",
"121 392 OFFCURVE",
"121 341 QCURVE"
);
}
);
width = 645;
},
{
layerId = "3C57ECF2-80FF-487A-B259-F9D598FB850F";
paths = (
{
closed = 1;
nodes = (
"257 -4 OFFCURVE",
"148 48 OFFCURVE",
"74 140 OFFCURVE",
"36 268 OFFCURVE",
"36 345 QCURVE",
"36 422 OFFCURVE",
"74 550 OFFCURVE",
"148 642 OFFCURVE",
"257 693 OFFCURVE",
"328 693 QCURVE {name = mv01;}",
"399 693 OFFCURVE",
"508 642 OFFCURVE",
"581 550 OFFCURVE",
"619 422 OFFCURVE",
"619 345 QCURVE",
"619 268 OFFCURVE",
"581 140 OFFCURVE",
"508 48 OFFCURVE",
"399 -4 OFFCURVE",
"328 -4 QCURVE {name = hr00;}"
);
},
{
closed = 1;
nodes = (
"173 292 OFFCURVE",
"195 204 OFFCURVE",
"235 138 OFFCURVE",
"292 101 OFFCURVE",
"328 101 QCURVE",
"363 101 OFFCURVE",
"420 138 OFFCURVE",
"460 204 OFFCURVE",
"482 292 OFFCURVE",
"482 343 QCURVE",
"482 394 OFFCURVE",
"460 484 OFFCURVE",
"420 550 OFFCURVE",
"363 588 OFFCURVE",
"328 588 QCURVE",
"292 588 OFFCURVE",
"235 550 OFFCURVE",
"195 484 OFFCURVE",
"173 394 OFFCURVE",
"173 343 QCURVE"
);
},
{
closed = 1;
nodes = (
"358 959 LINE",
"395 974 LINE",
"473 865 LINE",
"276 741 LINE",
"229 795 LINE"
);
}
);
width = 655;
}
);
leftKerningGroup = O;
rightKerningGroup = O;
unicode = 00D3;
userData = {
com.typemytype.robofont.mark = (
0.713,
0.6,
1,
1
);
};
},
{
glyphname = Ocircumflex;
lastChange = "2018-07-23 17:46:20 +0000";
layers = (
{
layerId = "7A2A571C-0203-4ADD-BC50-2735B3AB72B4";
paths = (
{
closed = 1;
nodes = (
"323 884 LINE",
"464 727 LINE",
"390 727 LINE",
"314 790 LINE",
"239 727 LINE",
"165 727 LINE",
"307 884 LINE {name = hr00;}"
);
},
{
closed = 1;
nodes = (
"252 -4 OFFCURVE",
"149 57 OFFCURVE",
"82 156 OFFCURVE",
"50 280 OFFCURVE",
"50 343 QCURVE",
"50 406 OFFCURVE",
"82 530 OFFCURVE",
"149 629 OFFCURVE",
"252 691 OFFCURVE",
"323 691 QCURVE {name = ah01;}",
"394 691 OFFCURVE",
"497 629 OFFCURVE",
"563 530 OFFCURVE",
"595 406 OFFCURVE",
"595 343 QCURVE",
"595 280 OFFCURVE",
"563 156 OFFCURVE",
"497 57 OFFCURVE",
"394 -4 OFFCURVE",
"323 -4 QCURVE"
);
},
{
closed = 1;
nodes = (
"121 290 OFFCURVE",
"143 191 OFFCURVE",
"191 112 OFFCURVE",
"268 64 OFFCURVE",
"323 64 QCURVE",
"378 64 OFFCURVE",
"454 112 OFFCURVE",
"502 191 OFFCURVE",
"524 290 OFFCURVE",
"524 341 QCURVE",
"524 392 OFFCURVE",
"502 493 OFFCURVE",
"454 573 OFFCURVE",
"378 623 OFFCURVE",
"323 623 QCURVE {name = ah02;}",
"268 623 OFFCURVE",
"191 573 OFFCURVE",
"143 493 OFFCURVE",
"121 392 OFFCURVE",
"121 341 QCURVE"
);
}
);
width = 645;
},
{
layerId = "3C57ECF2-80FF-487A-B259-F9D598FB850F";
paths = (
{
closed = 1;
nodes = (
"318 903 LINE {name = mv01;}",
"355 903 LINE",
"527 736 LINE {name = mh02;}",
"520 724 LINE",
"434 724 LINE",
"336 782 LINE",
"238 724 LINE",
"153 724 LINE",
"147 737 LINE {name = mh01;}"
);
},
{
closed = 1;
nodes = (
"257 -4 OFFCURVE",
"148 48 OFFCURVE",
"74 140 OFFCURVE",
"36 268 OFFCURVE",
"36 345 QCURVE",
"36 422 OFFCURVE",
"74 550 OFFCURVE",
"148 642 OFFCURVE",
"257 693 OFFCURVE",
"328 693 QCURVE {name = mv02;}",
"399 693 OFFCURVE",
"508 642 OFFCURVE",
"581 550 OFFCURVE",
"619 422 OFFCURVE",
"619 345 QCURVE",
"619 268 OFFCURVE",
"581 140 OFFCURVE",
"508 48 OFFCURVE",
"399 -4 OFFCURVE",
"328 -4 QCURVE"
);
},
{
closed = 1;
nodes = (
"173 292 OFFCURVE",
"195 204 OFFCURVE",
"235 138 OFFCURVE",
"292 101 OFFCURVE",
"328 101 QCURVE",
"363 101 OFFCURVE",
"420 138 OFFCURVE",
"460 204 OFFCURVE",
"482 292 OFFCURVE",
"482 343 QCURVE",
"482 394 OFFCURVE",
"460 484 OFFCURVE",
"420 550 OFFCURVE",
"363 588 OFFCURVE",
"328 588 QCURVE",
"292 588 OFFCURVE",
"235 550 OFFCURVE",
"195 484 OFFCURVE",
"173 394 OFFCURVE",
"173 343 QCURVE"
);
}
);
width = 655;
}
);
leftKerningGroup = O;
rightKerningGroup = O;
unicode = 00D4;
userData = {
com.typemytype.robofont.mark = (
0.713,
0.6,
1,
1
);
};
},
{
glyphname = Odieresis;
lastChange = "2018-07-23 17:46:20 +0000";
layers = (
{
layerId = "7A2A571C-0203-4ADD-BC50-2735B3AB72B4";
paths = (
{
closed = 1;
nodes = (
"252 -4 OFFCURVE",
"149 57 OFFCURVE",
"82 156 OFFCURVE",
"50 280 OFFCURVE",
"50 343 QCURVE",
"50 406 OFFCURVE",
"82 530 OFFCURVE",
"149 629 OFFCURVE",
"252 691 OFFCURVE",
"323 691 QCURVE {name = mh01;}",
"394 691 OFFCURVE",
"497 629 OFFCURVE",
"563 530 OFFCURVE",
"595 406 OFFCURVE",
"595 343 QCURVE",
"595 280 OFFCURVE",
"563 156 OFFCURVE",
"497 57 OFFCURVE",
"394 -4 OFFCURVE",
"323 -4 QCURVE {name = hr00;}"
);
},
{
closed = 1;
nodes = (
"121 290 OFFCURVE",
"143 191 OFFCURVE",
"191 112 OFFCURVE",
"268 64 OFFCURVE",
"323 64 QCURVE",
"378 64 OFFCURVE",
"454 112 OFFCURVE",
"502 191 OFFCURVE",
"524 290 OFFCURVE",
"524 341 QCURVE",
"524 392 OFFCURVE",
"502 493 OFFCURVE",
"454 573 OFFCURVE",
"378 623 OFFCURVE",
"323 623 QCURVE",
"268 623 OFFCURVE",
"191 573 OFFCURVE",
"143 493 OFFCURVE",
"121 392 OFFCURVE",
"121 341 QCURVE"
);
},
{
closed = 1;
nodes = (
"187 817 OFFCURVE",
"220 850 OFFCURVE",
"244 850 QCURVE {name = mh02;}",
"267 850 OFFCURVE",
"302 817 OFFCURVE",
"302 793 QCURVE",
"302 769 OFFCURVE",
"267 735 OFFCURVE",
"244 735 QCURVE",
"220 735 OFFCURVE",
"187 769 OFFCURVE",
"187 793 QCURVE"
);
},
{
closed = 1;
nodes = (
"363 817 OFFCURVE",
"398 850 OFFCURVE",
"423 850 QCURVE {name = mh03;}",
"446 850 OFFCURVE",
"478 817 OFFCURVE",
"478 793 QCURVE",
"478 769 OFFCURVE",
"446 735 OFFCURVE",
"423 735 QCURVE",
"398 735 OFFCURVE",
"363 769 OFFCURVE",
"363 793 QCURVE"
);
}
);
width = 645;
},
{
layerId = "3C57ECF2-80FF-487A-B259-F9D598FB850F";
paths = (
{
closed = 1;
nodes = (
"257 -4 OFFCURVE",
"148 48 OFFCURVE",
"74 140 OFFCURVE",
"36 268 OFFCURVE",
"36 345 QCURVE {name = mh01;}",
"36 422 OFFCURVE",
"74 550 OFFCURVE",
"148 642 OFFCURVE",
"257 693 OFFCURVE",
"328 693 QCURVE {name = mv01;}",
"399 693 OFFCURVE",
"508 642 OFFCURVE",
"581 550 OFFCURVE",
"619 422 OFFCURVE",
"619 345 QCURVE {name = mh02;}",
"619 268 OFFCURVE",
"581 140 OFFCURVE",
"508 48 OFFCURVE",
"399 -4 OFFCURVE",
"328 -4 QCURVE {name = hr00;}"
);
},
{
closed = 1;
nodes = (
"173 292 OFFCURVE",
"195 204 OFFCURVE",
"235 138 OFFCURVE",
"292 101 OFFCURVE",
"328 101 QCURVE",
"363 101 OFFCURVE",
"420 138 OFFCURVE",
"460 204 OFFCURVE",
"482 292 OFFCURVE",
"482 343 QCURVE",
"482 394 OFFCURVE",
"460 484 OFFCURVE",
"420 550 OFFCURVE",
"363 588 OFFCURVE",
"328 588 QCURVE",
"292 588 OFFCURVE",
"235 550 OFFCURVE",
"195 484 OFFCURVE",
"173 394 OFFCURVE",
"173 343 QCURVE"
);
},
{
closed = 1;
nodes = (
"174 833 OFFCURVE",
"214 873 OFFCURVE",
"242 873 QCURVE",
"271 873 OFFCURVE",
"311 833 OFFCURVE",
"311 804 QCURVE",
"311 775 OFFCURVE",
"271 736 OFFCURVE",
"242 736 QCURVE",
"214 736 OFFCURVE",
"174 775 OFFCURVE",
"174 804 QCURVE"
);
},
{
closed = 1;
nodes = (
"352 833 OFFCURVE",
"391 873 OFFCURVE",
"420 873 QCURVE",
"449 873 OFFCURVE",
"487 833 OFFCURVE",
"487 804 QCURVE {name = mh03;}",
"487 775 OFFCURVE",
"449 736 OFFCURVE",
"420 736 QCURVE {name = mv02;}",
"391 736 OFFCURVE",
"352 775 OFFCURVE",
"352 804 QCURVE {name = hr01;}"
);
}
);
width = 655;
}
);
leftKerningGroup = O;
rightKerningGroup = O;
unicode = 00D6;
userData = {
com.typemytype.robofont.mark = (
0.713,
0.6,
1,
1
);
};
},
{
glyphname = Ograve;
lastChange = "2018-07-23 17:46:20 +0000";
layers = (
{
layerId = "7A2A571C-0203-4ADD-BC50-2735B3AB72B4";
paths = (
{
closed = 1;
nodes = (
"212 818 LINE",
"248 890 LINE",
"279 897 LINE {name = ah03;}",
"447 764 LINE",
"415 717 LINE {name = hr00;}"
);
},
{
closed = 1;
nodes = (
"252 -4 OFFCURVE",
"149 57 OFFCURVE",
"82 156 OFFCURVE",
"50 280 OFFCURVE",
"50 343 QCURVE",
"50 406 OFFCURVE",
"82 530 OFFCURVE",
"149 629 OFFCURVE",
"252 691 OFFCURVE",
"323 691 QCURVE {name = ah01;}",
"394 691 OFFCURVE",
"497 629 OFFCURVE",
"563 530 OFFCURVE",
"595 406 OFFCURVE",
"595 343 QCURVE",
"595 280 OFFCURVE",
"563 156 OFFCURVE",
"497 57 OFFCURVE",
"394 -4 OFFCURVE",
"323 -4 QCURVE"
);
},
{
closed = 1;
nodes = (
"121 290 OFFCURVE",
"143 191 OFFCURVE",
"191 112 OFFCURVE",
"268 64 OFFCURVE",
"323 64 QCURVE",
"378 64 OFFCURVE",
"454 112 OFFCURVE",
"502 191 OFFCURVE",
"524 290 OFFCURVE",
"524 341 QCURVE",
"524 392 OFFCURVE",
"502 493 OFFCURVE",
"454 573 OFFCURVE",
"378 623 OFFCURVE",
"323 623 QCURVE {name = ah02;}",
"268 623 OFFCURVE",
"191 573 OFFCURVE",
"143 493 OFFCURVE",
"121 392 OFFCURVE",
"121 341 QCURVE"
);
}
);
width = 645;
},
{
layerId = "3C57ECF2-80FF-487A-B259-F9D598FB850F";
paths = (
{
closed = 1;
nodes = (
"257 -4 OFFCURVE",
"148 48 OFFCURVE",
"74 140 OFFCURVE",
"36 268 OFFCURVE",
"36 345 QCURVE",
"36 422 OFFCURVE",
"74 550 OFFCURVE",
"148 642 OFFCURVE",
"257 693 OFFCURVE",
"328 693 QCURVE {name = mh01;}",
"399 693 OFFCURVE",
"508 642 OFFCURVE",
"581 550 OFFCURVE",
"619 422 OFFCURVE",
"619 345 QCURVE",
"619 268 OFFCURVE",
"581 140 OFFCURVE",
"508 48 OFFCURVE",
"399 -4 OFFCURVE",
"328 -4 QCURVE {name = hr00;}"
);
},
{
closed = 1;
nodes = (
"173 292 OFFCURVE",
"195 204 OFFCURVE",
"235 138 OFFCURVE",
"292 101 OFFCURVE",
"328 101 QCURVE",
"363 101 OFFCURVE",
"420 138 OFFCURVE",
"460 204 OFFCURVE",
"482 292 OFFCURVE",
"482 343 QCURVE",
"482 394 OFFCURVE",
"460 484 OFFCURVE",
"420 550 OFFCURVE",
"363 588 OFFCURVE",
"328 588 QCURVE",
"292 588 OFFCURVE",
"235 550 OFFCURVE",
"195 484 OFFCURVE",
"173 394 OFFCURVE",
"173 343 QCURVE"
);
},
{
closed = 1;
nodes = (
"205 868 LINE",
"282 959 LINE",
"317 942 LINE",
"429 765 LINE",
"388 724 LINE"
);
}
);
width = 655;
}
);
leftKerningGroup = O;
rightKerningGroup = O;
unicode = 00D2;
userData = {
com.typemytype.robofont.mark = (
0.713,
0.6,
1,
1
);
};
},
{
glyphname = Oslash;
lastChange = "2018-07-23 17:46:20 +0000";
layers = (
{
layerId = "7A2A571C-0203-4ADD-BC50-2735B3AB72B4";
paths = (
{
closed = 1;
nodes = (
"249 -4 OFFCURVE",
"193 30 QCURVE",
"158 -42 LINE",
"94 -42 LINE",
"91 -29 LINE",
"141 73 LINE",
"94 124 OFFCURVE",
"50 269 OFFCURVE",
"50 343 QCURVE",
"50 406 OFFCURVE",
"82 530 OFFCURVE",
"149 629 OFFCURVE",
"252 691 OFFCURVE",
"323 691 QCURVE {name = mh01;}",
"355 691 OFFCURVE",
"409 678 OFFCURVE",
"433 666 QCURVE",
"472 745 LINE",
"539 745 LINE",
"538 731 LINE",
"488 629 LINE",
"543 578 OFFCURVE",
"595 424 OFFCURVE",
"595 343 QCURVE",
"595 280 OFFCURVE",
"563 156 OFFCURVE",
"497 57 OFFCURVE",
"394 -4 OFFCURVE",
"323 -4 QCURVE {name = hr00;}"
);
},
{
closed = 1;
nodes = (
"378 64 OFFCURVE",
"454 112 OFFCURVE",
"502 191 OFFCURVE",
"524 290 OFFCURVE",
"524 341 QCURVE",
"524 403 OFFCURVE",
"492 522 OFFCURVE",
"456 564 QCURVE {name = mh02;}",
"224 92 LINE",
"244 78 OFFCURVE",
"293 64 OFFCURVE",
"323 64 QCURVE"
);
},
{
closed = 1;
nodes = (
"121 286 OFFCURVE",
"146 181 OFFCURVE",
"174 140 QCURVE",
"403 605 LINE",
"386 613 OFFCURVE",
"346 623 OFFCURVE",
"323 623 QCURVE {name = mh03;}",
"268 623 OFFCURVE",
"191 573 OFFCURVE",
"143 493 OFFCURVE",
"121 392 OFFCURVE",
"121 341 QCURVE"
);
}
);
width = 645;
},
{
layerId = "3C57ECF2-80FF-487A-B259-F9D598FB850F";
paths = (
{
closed = 1;
nodes = (
"278 -4 OFFCURVE",
"234 10 QCURVE",
"201 -63 LINE",
"76 -63 LINE",
"72 -40 LINE",
"125 77 LINE",
"80 124 OFFCURVE",
"36 260 OFFCURVE",
"36 345 QCURVE {name = mh01;}",
"36 422 OFFCURVE",
"74 550 OFFCURVE",
"148 642 OFFCURVE",
"257 693 OFFCURVE",
"328 693 QCURVE {name = ah01;}",
"368 693 OFFCURVE",
"403 684 QCURVE",
"436 757 LINE",
"563 757 LINE",
"563 733 LINE",
"515 627 LINE",
"566 581 OFFCURVE",
"619 436 OFFCURVE",
"619 345 QCURVE",
"619 268 OFFCURVE",
"581 140 OFFCURVE",
"508 48 OFFCURVE",
"399 -4 OFFCURVE",
"328 -4 QCURVE {name = hr00;}"
);
},
{
closed = 1;
nodes = (
"482 429 OFFCURVE",
"453 492 QCURVE {name = mh03;}",
"280 111 LINE",
"301 101 OFFCURVE",
"328 101 QCURVE",
"363 101 OFFCURVE",
"420 138 OFFCURVE",
"460 204 OFFCURVE {name = mh04;}",
"482 292 OFFCURVE",
"482 343 QCURVE {name = mh02;}"
);
},
{
closed = 1;
nodes = (
"173 275 OFFCURVE",
"191 221 QCURVE",
"357 584 LINE",
"344 588 OFFCURVE",
"328 588 QCURVE {name = ah02;}",
"292 588 OFFCURVE",
"235 550 OFFCURVE",
"195 484 OFFCURVE",
"173 394 OFFCURVE",
"173 343 QCURVE {name = ah03;}"
);
}
);
width = 655;
}
);
leftKerningGroup = O;
rightKerningGroup = O;
unicode = 00D8;
userData = {
com.typemytype.robofont.mark = (
0.713,
0.6,
1,
1
);
};
},
{
glyphname = Otilde;
lastChange = "2018-07-23 17:46:20 +0000";
layers = (
{
layerId = "7A2A571C-0203-4ADD-BC50-2735B3AB72B4";
paths = (
{
closed = 1;
nodes = (
"499 770 LINE",
"491 763 OFFCURVE",
"471 748 OFFCURVE",
"448 735 OFFCURVE",
"425 727 OFFCURVE",
"415 727 QCURVE {name = mh01;}",
"392 727 OFFCURVE",
"360 743 OFFCURVE",
"330 762 OFFCURVE",
"298 778 OFFCURVE",
"276 778 QCURVE {name = mh02;}",
"244 778 OFFCURVE",
"212 747 OFFCURVE",
"201 729 QCURVE",
"164 760 LINE",
"164 776 LINE",
"167 782 OFFCURVE",
"182 804 OFFCURVE",
"209 826 OFFCURVE",
"249 842 OFFCURVE",
"278 842 QCURVE {name = mh03;}",
"315 842 OFFCURVE",
"368 808 OFFCURVE",
"400 786 QCURVE {name = mh04;}",
"462 836 LINE {name = hr00;}"
);
},
{
closed = 1;
nodes = (
"252 -4 OFFCURVE",
"149 57 OFFCURVE",
"82 156 OFFCURVE",
"50 280 OFFCURVE",
"50 343 QCURVE",
"50 406 OFFCURVE",
"82 530 OFFCURVE",
"149 629 OFFCURVE",
"252 691 OFFCURVE",
"323 691 QCURVE {name = mh05;}",
"394 691 OFFCURVE",
"497 629 OFFCURVE",
"563 530 OFFCURVE",
"595 406 OFFCURVE",
"595 343 QCURVE",
"595 280 OFFCURVE",
"563 156 OFFCURVE",
"497 57 OFFCURVE",
"394 -4 OFFCURVE",
"323 -4 QCURVE"
);
},
{
closed = 1;
nodes = (
"121 290 OFFCURVE",
"143 191 OFFCURVE",
"191 112 OFFCURVE",
"268 64 OFFCURVE",
"323 64 QCURVE",
"378 64 OFFCURVE",
"454 112 OFFCURVE",
"502 191 OFFCURVE",
"524 290 OFFCURVE",
"524 341 QCURVE",
"524 392 OFFCURVE",
"502 493 OFFCURVE",
"454 573 OFFCURVE",
"378 623 OFFCURVE",
"323 623 QCURVE {name = mh06;}",
"268 623 OFFCURVE",
"191 573 OFFCURVE",
"143 493 OFFCURVE",
"121 392 OFFCURVE",
"121 341 QCURVE"
);
}
);
width = 645;
},
{
layerId = "3C57ECF2-80FF-487A-B259-F9D598FB850F";
paths = (
{
closed = 1;
nodes = (
"524 805 LINE",
"503 775 OFFCURVE",
"437 727 OFFCURVE",
"401 727 QCURVE",
"378 727 OFFCURVE",
"345 741 OFFCURVE",
"315 758 OFFCURVE",
"284 772 OFFCURVE",
"263 772 QCURVE",
"234 772 OFFCURVE",
"201 737 OFFCURVE",
"194 718 QCURVE {name = hr01;}",
"121 762 LINE",
"121 781 LINE",
"125 793 OFFCURVE",
"145 825 OFFCURVE",
"177 853 OFFCURVE",
"222 873 OFFCURVE",
"252 873 QCURVE",
"278 873 OFFCURVE",
"323 857 OFFCURVE",
"358 839 OFFCURVE",
"383 823 OFFCURVE",
"390 823 QCURVE",
"443 881 LINE {name = hr02;}"
);
},
{
closed = 1;
nodes = (
"257 -4 OFFCURVE",
"148 48 OFFCURVE",
"74 140 OFFCURVE",
"36 268 OFFCURVE",
"36 345 QCURVE",
"36 422 OFFCURVE",
"74 550 OFFCURVE",
"148 642 OFFCURVE",
"257 693 OFFCURVE",
"328 693 QCURVE {name = ah01;}",
"399 693 OFFCURVE",
"508 642 OFFCURVE",
"581 550 OFFCURVE",
"619 422 OFFCURVE",
"619 345 QCURVE",
"619 268 OFFCURVE",
"581 140 OFFCURVE",
"508 48 OFFCURVE",
"399 -4 OFFCURVE",
"328 -4 QCURVE {name = ab01;}"
);
},
{
closed = 1;
nodes = (
"173 292 OFFCURVE",
"195 204 OFFCURVE",
"235 138 OFFCURVE",
"292 101 OFFCURVE",
"328 101 QCURVE {name = av01;}",
"363 101 OFFCURVE",
"420 138 OFFCURVE",
"460 204 OFFCURVE",
"482 292 OFFCURVE",
"482 343 QCURVE",
"482 394 OFFCURVE",
"460 484 OFFCURVE",
"420 550 OFFCURVE",
"363 588 OFFCURVE",
"328 588 QCURVE {name = ah02;}",
"292 588 OFFCURVE",
"235 550 OFFCURVE",
"195 484 OFFCURVE",
"173 394 OFFCURVE",
"173 343 QCURVE"
);
}
);
width = 655;
}
);
leftKerningGroup = O;
rightKerningGroup = O;
unicode = 00D5;
userData = {
com.typemytype.robofont.mark = (
0.713,
0.6,
1,
1
);
};
},
{
glyphname = OE;
lastChange = "2018-07-23 17:46:20 +0000";
layers = (
{
layerId = "7A2A571C-0203-4ADD-BC50-2735B3AB72B4";
paths = (
{
closed = 1;
nodes = (
"258 -4 OFFCURVE",
"152 57 OFFCURVE",
"82 156 OFFCURVE",
"48 280 OFFCURVE",
"48 343 QCURVE",
"48 404 OFFCURVE",
"83 530 OFFCURVE",
"152 631 OFFCURVE",
"255 695 OFFCURVE",
"323 695 QCURVE",
"335 695 LINE",
"344 695 OFFCURVE",
"367 694 OFFCURVE",
"390 692 OFFCURVE",
"397 691 QCURVE",
"788 691 LINE",
"808 520 LINE",
"760 520 LINE",
"726 623 LINE",
"516 623 LINE",
"516 377 LINE",
"688 377 LINE",
"688 314 LINE",
"516 314 LINE",
"516 68 LINE",
"736 68 LINE",
"771 171 LINE",
"818 171 LINE",
"799 0 LINE",
"387 0 LINE",
"373 -2 OFFCURVE",
"345 -4 OFFCURVE",
"331 -4 QCURVE {name = hr00;}"
);
},
{
closed = 1;
nodes = (
"285 624 OFFCURVE",
"204 574 OFFCURVE",
"149 493 OFFCURVE",
"119 392 OFFCURVE",
"119 341 QCURVE",
"119 290 OFFCURVE",
"144 191 OFFCURVE",
"196 112 OFFCURVE",
"276 64 OFFCURVE",
"331 64 QCURVE",
"365 64 OFFCURVE",
"424 81 OFFCURVE",
"447 102 QCURVE",
"447 591 LINE",
"424 611 OFFCURVE",
"372 624 OFFCURVE",
"336 624 QCURVE"
);
}
);
width = 858;
},
{
layerId = "3C57ECF2-80FF-487A-B259-F9D598FB850F";
paths = (
{
closed = 1;
nodes = (
"840 487 LINE",
"762 487 LINE {name = hr04;}",
"721 586 LINE",
"559 586 LINE",
"559 408 LINE",
"711 408 LINE",
"711 303 LINE",
"559 303 LINE",
"559 105 LINE",
"728 105 LINE {name = hr03;}",
"765 204 LINE",
"844 204 LINE {name = hr02;}",
"823 0 LINE",
"377 0 LINE {name = hr01;}",
"362 0 OFFCURVE",
"336 -1 OFFCURVE",
"328 -1 QCURVE",
"257 -1 OFFCURVE",
"148 50 OFFCURVE",
"74 141 OFFCURVE",
"36 268 OFFCURVE",
"36 345 QCURVE",
"36 422 OFFCURVE",
"79 549 OFFCURVE",
"155 641 OFFCURVE",
"258 691 OFFCURVE",
"318 691 QCURVE {name = mv01;}",
"821 691 LINE {name = hr00;}"
);
},
{
closed = 1;
nodes = (
"367 104 OFFCURVE",
"415 118 OFFCURVE",
"428 129 QCURVE",
"428 562 LINE",
"420 570 OFFCURVE",
"380 586 OFFCURVE",
"348 586 QCURVE",
"305 586 OFFCURVE",
"239 549 OFFCURVE",
"195 483 OFFCURVE",
"173 394 OFFCURVE",
"173 343 QCURVE",
"173 292 OFFCURVE",
"193 205 OFFCURVE",
"235 140 OFFCURVE",
"301 104 OFFCURVE",
"348 104 QCURVE"
);
}
);
width = 879;
}
);
leftKerningGroup = O;
rightKerningGroup = E;
unicode = 0152;
userData = {
com.typemytype.robofont.mark = (
0.713,
0.6,
1,
1
);
};
},
{
glyphname = P;
lastChange = "2018-07-23 17:46:20 +0000";
layers = (
{
layerId = "7A2A571C-0203-4ADD-BC50-2735B3AB72B4";
paths = (
{
closed = 1;
nodes = (
"294 332 OFFCURVE",
"368 357 OFFCURVE",
"409 399 OFFCURVE",
"423 452 OFFCURVE",
"423 480 QCURVE",
"423 517 OFFCURVE",
"396 571 OFFCURVE",
"348 606 OFFCURVE",
"283 623 OFFCURVE",
"245 623 QCURVE",
"181 623 LINE",
"181 332 LINE",
"235 332 LINE {name = hr00;}"
);
},
{
closed = 1;
nodes = (
"112 68 LINE",
"112 627 LINE",
"55 632 LINE",
"55 691 LINE",
"219 691 LINE {name = mh01;}",
"300 691 OFFCURVE",
"407 653 OFFCURVE",
"469 593 OFFCURVE",
"494 518 OFFCURVE",
"494 481 QCURVE",
"494 424 OFFCURVE",
"451 341 OFFCURVE",
"380 289 OFFCURVE",
"287 264 OFFCURVE",
"238 264 QCURVE",
"181 264 LINE",
"181 70 LINE",
"321 51 LINE",
"321 0 LINE",
"62 0 LINE",
"55 55 LINE"
);
}
);
width = 520;
},
{
layerId = "3C57ECF2-80FF-487A-B259-F9D598FB850F";
paths = (
{
closed = 1;
nodes = (
"299 327 OFFCURVE",
"376 346 OFFCURVE {name = mh01;}",
"419 381 OFFCURVE {name = mh02;}",
"434 431 OFFCURVE",
"434 463 QCURVE {name = mh03;}",
"434 519 OFFCURVE",
"366 585 OFFCURVE {name = mh04;}",
"293 585 QCURVE {name = mh05;}",
"238 585 LINE {name = mh06;}",
"238 327 LINE {name = hr00;}"
);
},
{
closed = 1;
nodes = (
"107 100 LINE",
"107 592 LINE {name = mh07;}",
"39 599 LINE {name = mh08;}",
"39 690 LINE {name = mh09;}",
"289 690 LINE {name = mh10;}",
"360 690 OFFCURVE {name = mh11;}",
"466 658 OFFCURVE {name = mh12;}",
"536 598 OFFCURVE",
"571 513 OFFCURVE",
"571 460 QCURVE {name = mh13;}",
"571 407 OFFCURVE {name = mv01;}",
"536 319 OFFCURVE",
"464 256 OFFCURVE {name = mh14;}",
"357 222 OFFCURVE",
"285 222 QCURVE {name = mh15;}",
"238 222 LINE {name = mh16;}",
"238 114 LINE {name = mh17;}",
"238 106 OFFCURVE",
"247 103 OFFCURVE",
"255 102 QCURVE",
"267 100 OFFCURVE",
"304 96 OFFCURVE",
"342 90 OFFCURVE",
"378 85 OFFCURVE",
"390 83 QCURVE",
"384 0 LINE",
"51 0 LINE {name = mh18;}",
"37 86 LINE"
);
}
);
width = 585;
}
);
leftKerningGroup = H;
unicode = 0050;
userData = {
com.typemytype.robofont.mark = (
0.713,
0.6,
1,
1
);
};
},
{
glyphname = Thorn;
lastChange = "2018-07-23 17:46:20 +0000";
layers = (
{
layerId = "7A2A571C-0203-4ADD-BC50-2735B3AB72B4";
paths = (
{
closed = 1;
nodes = (
"112 627 LINE {name = mv01;}",
"55 631 LINE {name = mv02;}",
"55 691 LINE {name = at01;}",
"232 691 LINE {name = mv03;}",
"236 635 LINE",
"181 627 LINE {name = mv04;}",
"181 561 LINE {name = mh01;}",
"224 561 LINE",
"274 561 OFFCURVE",
"365 542 OFFCURVE",
"434 498 OFFCURVE",
"475 425 OFFCURVE",
"475 371 QCURVE {name = av01;}",
"475 317 OFFCURVE",
"433 242 OFFCURVE",
"363 195 OFFCURVE",
"271 175 OFFCURVE",
"221 175 QCURVE",
"181 175 LINE",
"181 64 LINE",
"291 51 LINE",
"291 0 LINE",
"63 0 LINE",
"58 56 LINE",
"112 64 LINE {name = hr00;}"
);
},
{
closed = 1;
nodes = (
"256 244 OFFCURVE",
"323 255 OFFCURVE {name = mh02;}",
"373 284 OFFCURVE",
"402 332 OFFCURVE",
"402 370 QCURVE {name = hr01;}",
"402 407 OFFCURVE",
"374 455 OFFCURVE",
"324 482 OFFCURVE",
"257 492 OFFCURVE",
"218 492 QCURVE",
"181 492 LINE",
"181 244 LINE",
"217 244 LINE"
);
}
);
width = 500;
},
{
layerId = "3C57ECF2-80FF-487A-B259-F9D598FB850F";
paths = (
{
closed = 1;
nodes = (
"108 102 LINE",
"108 593 LINE",
"40 600 LINE",
"40 691 LINE",
"301 691 LINE",
"315 598 LINE",
"240 586 LINE",
"240 558 LINE",
"249 558 OFFCURVE",
"268 559 OFFCURVE",
"276 559 QCURVE",
"343 559 OFFCURVE",
"444 529 OFFCURVE",
"512 474 OFFCURVE",
"545 398 OFFCURVE",
"545 352 QCURVE {name = hr01;}",
"545 306 OFFCURVE",
"512 230 OFFCURVE",
"446 176 OFFCURVE",
"346 146 OFFCURVE",
"279 146 QCURVE",
"260 146 LINE",
"251 146 OFFCURVE",
"240 147 QCURVE",
"240 99 LINE",
"354 87 LINE",
"354 0 LINE",
"40 0 LINE",
"40 89 LINE {name = hr00;}"
);
},
{
closed = 1;
nodes = (
"409 373 OFFCURVE",
"396 409 OFFCURVE",
"358 436 OFFCURVE",
"292 452 OFFCURVE",
"240 453 QCURVE",
"240 251 LINE",
"292 251 OFFCURVE",
"358 267 OFFCURVE",
"396 294 OFFCURVE",
"409 331 OFFCURVE",
"409 352 QCURVE"
);
}
);
width = 556;
}
);
leftKerningGroup = I;
unicode = 00DE;
userData = {
com.typemytype.robofont.mark = (
0.713,
0.6,
1,
1
);
};
},
{
glyphname = Q;
lastChange = "2018-07-23 17:46:20 +0000";
layers = (
{
layerId = "7A2A571C-0203-4ADD-BC50-2735B3AB72B4";
paths = (
{
closed = 1;
nodes = (
"496 -102 LINE",
"501 -130 LINE",
"417 -191 LINE",
"376 -158 OFFCURVE",
"298 -91 OFFCURVE",
"260 -56 QCURVE",
"283 -29 LINE {name = hr00;}"
);
},
{
closed = 1;
nodes = (
"254 -4 OFFCURVE",
"150 57 OFFCURVE",
"82 156 OFFCURVE",
"50 280 OFFCURVE",
"50 343 QCURVE",
"50 406 OFFCURVE",
"82 530 OFFCURVE",
"150 629 OFFCURVE",
"254 691 OFFCURVE",
"325 691 QCURVE {name = mh01;}",
"396 691 OFFCURVE",
"500 629 OFFCURVE",
"567 530 OFFCURVE",
"600 406 OFFCURVE",
"600 343 QCURVE",
"600 280 OFFCURVE",
"567 156 OFFCURVE",
"500 57 OFFCURVE",
"396 -4 OFFCURVE",
"325 -4 QCURVE"
);
},
{
closed = 1;
nodes = (
"123 290 OFFCURVE",
"145 191 OFFCURVE",
"193 112 OFFCURVE",
"270 64 OFFCURVE",
"325 64 QCURVE",
"380 64 OFFCURVE",
"456 112 OFFCURVE",
"504 191 OFFCURVE",
"526 290 OFFCURVE",
"526 341 QCURVE",
"526 392 OFFCURVE",
"504 493 OFFCURVE",
"456 574 OFFCURVE",
"380 624 OFFCURVE",
"325 624 QCURVE",
"270 624 OFFCURVE",
"193 574 OFFCURVE",
"145 493 OFFCURVE",
"123 392 OFFCURVE",
"123 341 QCURVE"
);
}
);
width = 649;
},
{
layerId = "3C57ECF2-80FF-487A-B259-F9D598FB850F";
paths = (
{
closed = 1;
nodes = (
"522 -91 LINE",
"529 -129 LINE",
"435 -227 LINE",
"259 -72 LINE",
"314 -15 LINE {name = hr00;}"
);
},
{
closed = 1;
nodes = (
"257 -4 OFFCURVE",
"148 48 OFFCURVE",
"74 140 OFFCURVE",
"36 268 OFFCURVE",
"36 345 QCURVE",
"36 422 OFFCURVE",
"74 550 OFFCURVE",
"148 642 OFFCURVE",
"257 693 OFFCURVE",
"328 693 QCURVE {name = mh01;}",
"399 693 OFFCURVE",
"508 642 OFFCURVE",
"581 550 OFFCURVE",
"619 422 OFFCURVE",
"619 345 QCURVE",
"619 268 OFFCURVE",
"581 140 OFFCURVE",
"508 48 OFFCURVE",
"399 -4 OFFCURVE",
"328 -4 QCURVE"
);
},
{
closed = 1;
nodes = (
"173 292 OFFCURVE",
"195 204 OFFCURVE",
"235 138 OFFCURVE",
"292 101 OFFCURVE",
"328 101 QCURVE",
"363 101 OFFCURVE",
"420 138 OFFCURVE",
"460 204 OFFCURVE",
"482 292 OFFCURVE",
"482 343 QCURVE",
"482 394 OFFCURVE",
"460 484 OFFCURVE",
"420 550 OFFCURVE",
"363 588 OFFCURVE",
"328 588 QCURVE",
"292 588 OFFCURVE",
"235 550 OFFCURVE",
"195 484 OFFCURVE",
"173 394 OFFCURVE",
"173 343 QCURVE"
);
}
);
width = 655;
}
);
leftKerningGroup = O;
rightKerningGroup = O;
unicode = 0051;
userData = {
com.typemytype.robofont.mark = (
0.713,
0.6,
1,
1
);
};
},
{
glyphname = R;
lastChange = "2018-07-23 17:46:20 +0000";
layers = (
{
layerId = "7A2A571C-0203-4ADD-BC50-2735B3AB72B4";
paths = (
{
closed = 1;
nodes = (
"112 68 LINE",
"112 627 LINE",
"55 632 LINE",
"55 691 LINE",
"229 691 LINE {name = mh01;}",
"287 691 OFFCURVE",
"384 666 OFFCURVE",
"454 615 OFFCURVE",
"494 536 OFFCURVE",
"494 481 QCURVE {name = mh02;}",
"494 440 OFFCURVE",
"471 376 OFFCURVE",
"430 327 OFFCURVE",
"375 292 OFFCURVE",
"343 282 QCURVE",
"445 65 LINE",
"510 51 LINE",
"510 0 LINE",
"392 0 LINE",
"272 266 LINE",
"261 265 OFFCURVE",
"239 264 OFFCURVE",
"228 264 QCURVE",
"181 264 LINE",
"181 70 LINE",
"259 51 LINE",
"259 0 LINE",
"62 0 LINE",
"55 55 LINE {name = hr00;}"
);
},
{
closed = 1;
nodes = (
"272 332 OFFCURVE",
"340 345 OFFCURVE",
"392 379 OFFCURVE",
"423 436 OFFCURVE",
"423 480 QCURVE {name = mh04;}",
"423 518 OFFCURVE",
"397 572 OFFCURVE",
"352 607 OFFCURVE",
"291 623 OFFCURVE",
"255 623 QCURVE",
"181 623 LINE",
"181 332 LINE",
"235 332 LINE {name = mh03;}"
);
}
);
width = 544;
},
{
layerId = "3C57ECF2-80FF-487A-B259-F9D598FB850F";
paths = (
{
closed = 1;
nodes = (
"107 99 LINE",
"107 592 LINE",
"39 599 LINE",
"39 690 LINE",
"284 690 LINE",
"357 690 OFFCURVE",
"466 657 OFFCURVE",
"537 597 OFFCURVE",
"572 514 OFFCURVE",
"572 465 QCURVE",
"572 391 OFFCURVE",
"499 291 OFFCURVE",
"433 264 QCURVE",
"521 97 LINE",
"584 87 LINE",
"584 0 LINE",
"415 0 LINE",
"311 234 LINE",
"276 231 OFFCURVE",
"238 231 QCURVE",
"238 95 LINE",
"290 87 LINE",
"290 0 LINE",
"47 0 LINE",
"38 85 LINE {name = hr00;}"
);
},
{
closed = 1;
nodes = (
"244 336 OFFCURVE",
"253 336 QCURVE",
"271 336 LINE",
"315 336 OFFCURVE",
"378 356 OFFCURVE",
"418 390 OFFCURVE",
"437 436 OFFCURVE",
"437 462 QCURVE",
"437 491 OFFCURVE",
"419 537 OFFCURVE",
"373 568 OFFCURVE",
"296 584 OFFCURVE",
"238 584 QCURVE",
"238 337 LINE"
);
}
);
width = 612;
}
);
leftKerningGroup = H;
unicode = 0052;
userData = {
com.typemytype.robofont.mark = (
0.713,
0.6,
1,
1
);
};
},
{
glyphname = S;
lastChange = "2018-07-23 17:46:20 +0000";
layers = (
{
layerId = "7A2A571C-0203-4ADD-BC50-2735B3AB72B4";
paths = (
{
closed = 1;
nodes = (
"139 84 LINE",
"158 75 OFFCURVE",
"211 64 OFFCURVE",
"233 64 QCURVE",
"259 64 OFFCURVE",
"310 78 OFFCURVE",
"350 107 OFFCURVE",
"375 151 OFFCURVE",
"375 181 QCURVE",
"375 219 OFFCURVE",
"340 278 OFFCURVE",
"289 304 QCURVE {name = mh01;}",
"249 323 OFFCURVE",
"166 359 OFFCURVE",
"98 405 OFFCURVE",
"54 470 OFFCURVE",
"54 520 QCURVE {name = mh02;}",
"54 560 OFFCURVE",
"87 623 OFFCURVE",
"143 667 OFFCURVE",
"216 691 OFFCURVE",
"257 691 QCURVE {name = mh03;}",
"299 691 OFFCURVE",
"374 673 OFFCURVE",
"411 659 QCURVE",
"424 505 LINE",
"369 505 LINE",
"327 611 LINE",
"308 619 OFFCURVE",
"270 624 OFFCURVE",
"249 624 QCURVE",
"226 624 OFFCURVE",
"182 612 OFFCURVE",
"147 588 OFFCURVE",
"125 552 OFFCURVE",
"125 528 QCURVE",
"125 495 OFFCURVE",
"157 450 OFFCURVE",
"206 418 OFFCURVE",
"267 393 OFFCURVE",
"296 380 QCURVE",
"341 359 OFFCURVE",
"400 313 OFFCURVE",
"433 265 OFFCURVE",
"446 215 OFFCURVE",
"446 189 QCURVE {name = mh04;}",
"446 143 OFFCURVE",
"411 71 OFFCURVE",
"353 22 OFFCURVE",
"275 -4 OFFCURVE",
"233 -4 QCURVE",
"190 -4 OFFCURVE",
"103 11 OFFCURVE",
"65 29 QCURVE",
"54 183 LINE",
"112 183 LINE {name = hr00;}"
);
}
);
width = 491;
},
{
layerId = "3C57ECF2-80FF-487A-B259-F9D598FB850F";
paths = (
{
closed = 1;
nodes = (
"352 203 OFFCURVE",
"337 232 OFFCURVE {name = mh01;}",
"305 257 OFFCURVE",
"258 280 OFFCURVE",
"226 295 QCURVE",
"187 313 OFFCURVE",
"121 349 OFFCURVE",
"72 396 OFFCURVE {name = mh02;}",
"44 459 OFFCURVE",
"44 504 QCURVE {name = mh03;}",
"44 547 OFFCURVE",
"81 617 OFFCURVE {name = mh04;}",
"144 666 OFFCURVE {name = mh05;}",
"230 692 OFFCURVE",
"278 692 QCURVE {name = mh06;}",
"330 692 OFFCURVE",
"429 676 OFFCURVE",
"468 665 QCURVE",
"483 475 LINE",
"399 475 LINE {name = mh07;}",
"350 581 LINE",
"337 583 OFFCURVE",
"299 587 OFFCURVE",
"282 587 QCURVE",
"229 587 OFFCURVE",
"180 543 OFFCURVE",
"180 511 QCURVE {name = mh08;}",
"180 491 OFFCURVE",
"206 460 OFFCURVE",
"246 435 OFFCURVE",
"293 413 OFFCURVE",
"315 403 QCURVE",
"359 382 OFFCURVE",
"425 341 OFFCURVE {name = mh09;}",
"468 293 OFFCURVE",
"489 237 OFFCURVE {name = mh10;}",
"489 201 QCURVE",
"489 145 OFFCURVE {name = mh11;}",
"445 67 OFFCURVE",
"375 18 OFFCURVE",
"285 -4 OFFCURVE",
"240 -4 QCURVE",
"181 -4 OFFCURVE",
"76 25 OFFCURVE",
"36 41 QCURVE {name = mh12;}",
"56 234 LINE",
"140 227 LINE",
"148 116 LINE",
"161 113 OFFCURVE",
"206 101 OFFCURVE",
"234 101 QCURVE",
"258 101 OFFCURVE",
"300 110 OFFCURVE",
"333 130 OFFCURVE",
"352 161 OFFCURVE",
"352 183 QCURVE {name = hr00;}"
);
}
);
width = 528;
}
);
unicode = 0053;
userData = {
com.typemytype.robofont.mark = (
0.713,
0.6,
1,
1
);
};
},
{
glyphname = T;
lastChange = "2018-07-23 17:46:20 +0000";
layers = (
{
layerId = "7A2A571C-0203-4ADD-BC50-2735B3AB72B4";
paths = (
{
closed = 1;
nodes = (
"127 52 LINE",
"240 70 LINE",
"240 623 LINE",
"103 623 LINE",
"64 526 LINE {name = hr01;}",
"18 526 LINE",
"41 691 LINE {name = mh01;}",
"506 691 LINE",
"529 526 LINE",
"483 526 LINE",
"444 623 LINE {name = hr02;}",
"308 623 LINE",
"308 70 LINE",
"423 52 LINE",
"423 0 LINE",
"127 0 LINE {name = hr00;}"
);
}
);
width = 547;
},
{
layerId = "3C57ECF2-80FF-487A-B259-F9D598FB850F";
paths = (
{
closed = 1;
nodes = (
"243 102 LINE",
"243 585 LINE {name = mh01;}",
"130 585 LINE {name = hr02;}",
"87 485 LINE",
"10 485 LINE {name = hr01;}",
"29 690 LINE {name = mv01;}",
"584 690 LINE",
"606 486 LINE",
"530 486 LINE",
"486 585 LINE",
"372 585 LINE {name = mh02;}",
"372 102 LINE",
"488 80 LINE",
"478 0 LINE",
"138 0 LINE",
"128 80 LINE {name = hr00;}"
);
}
);
width = 615;
}
);
unicode = 0054;
userData = {
com.typemytype.robofont.mark = (
0.713,
0.6,
1,
1
);
};
},
{
glyphname = U;
lastChange = "2018-07-23 17:46:20 +0000";
layers = (
{
layerId = "7A2A571C-0203-4ADD-BC50-2735B3AB72B4";
paths = (
{
closed = 1;
nodes = (
"417 691 LINE",
"587 691 LINE",
"591 635 LINE",
"536 627 LINE",
"536 202 LINE",
"536 153 OFFCURVE",
"501 76 OFFCURVE",
"441 24 OFFCURVE",
"359 -4 OFFCURVE",
"313 -4 QCURVE",
"266 -4 OFFCURVE",
"186 25 OFFCURVE",
"128 79 OFFCURVE",
"96 155 OFFCURVE",
"96 202 QCURVE",
"96 627 LINE",
"38 631 LINE",
"38 691 LINE {name = mh01;}",
"215 691 LINE",
"219 635 LINE",
"164 627 LINE",
"164 213 LINE",
"164 141 OFFCURVE",
"246 63 OFFCURVE",
"319 63 QCURVE",
"350 63 OFFCURVE",
"406 79 OFFCURVE",
"449 115 OFFCURVE",
"474 172 OFFCURVE",
"474 213 QCURVE",
"474 627 LINE",
"417 631 LINE {name = hr00;}"
);
}
);
width = 628;
},
{
layerId = "3C57ECF2-80FF-487A-B259-F9D598FB850F";
paths = (
{
closed = 1;
nodes = (
"219 175 OFFCURVE",
"278 101 OFFCURVE",
"353 101 QCURVE",
"413 101 OFFCURVE",
"479 172 OFFCURVE",
"479 251 QCURVE",
"479 593 LINE {name = mh01;}",
"415 602 LINE",
"415 690 LINE {name = mv01;}",
"643 690 LINE {name = mh02;}",
"643 599 LINE {name = hr02;}",
"584 586 LINE {name = mh03;}",
"584 248 LINE",
"584 131 OFFCURVE {name = mh04;}",
"466 -4 OFFCURVE",
"353 -4 QCURVE",
"278 -4 OFFCURVE",
"176 30 OFFCURVE",
"115 95 OFFCURVE",
"88 189 OFFCURVE",
"88 248 QCURVE {name = hr01;}",
"88 592 LINE {name = mh05;}",
"21 601 LINE",
"21 690 LINE {name = mh06;}",
"290 690 LINE",
"290 602 LINE",
"219 591 LINE {name = mh07;}",
"219 250 LINE {name = hr00;}"
);
}
);
width = 670;
}
);
leftKerningGroup = U;
rightKerningGroup = U;
unicode = 0055;
userData = {
com.typemytype.robofont.mark = (
0.713,
0.6,
1,
1
);
};
},
{
glyphname = Uacute;
lastChange = "2018-07-23 17:46:20 +0000";
layers = (
{
layerId = "7A2A571C-0203-4ADD-BC50-2735B3AB72B4";
paths = (
{
closed = 1;
nodes = (
"377 897 LINE {name = ah02;}",
"407 890 LINE",
"444 818 LINE",
"251 717 LINE",
"219 764 LINE {name = hr00;}"
);
},
{
closed = 1;
nodes = (
"417 691 LINE",
"587 691 LINE",
"591 635 LINE",
"536 627 LINE",
"536 202 LINE",
"536 153 OFFCURVE",
"501 76 OFFCURVE",
"441 24 OFFCURVE",
"359 -4 OFFCURVE",
"313 -4 QCURVE",
"266 -4 OFFCURVE",
"186 25 OFFCURVE",
"128 79 OFFCURVE",
"96 155 OFFCURVE",
"96 202 QCURVE",
"96 627 LINE",
"38 631 LINE",
"38 691 LINE {name = ah01;}",
"215 691 LINE",
"219 635 LINE",
"164 627 LINE",
"164 213 LINE",
"164 141 OFFCURVE",
"246 63 OFFCURVE",
"319 63 QCURVE",
"350 63 OFFCURVE",
"406 79 OFFCURVE",
"449 115 OFFCURVE",
"474 172 OFFCURVE",
"474 213 QCURVE",
"474 627 LINE",
"417 631 LINE"
);
}
);
width = 628;
},
{
layerId = "3C57ECF2-80FF-487A-B259-F9D598FB850F";
paths = (
{
closed = 1;
nodes = (
"219 175 OFFCURVE",
"278 101 OFFCURVE",
"353 101 QCURVE",
"413 101 OFFCURVE",
"479 172 OFFCURVE",
"479 251 QCURVE",
"479 594 LINE",
"415 603 LINE",
"415 691 LINE",
"643 691 LINE",
"643 600 LINE {name = hr02;}",
"584 587 LINE",
"584 248 LINE",
"584 131 OFFCURVE",
"466 -4 OFFCURVE",
"353 -4 QCURVE",
"278 -4 OFFCURVE",
"176 30 OFFCURVE",
"115 95 OFFCURVE",
"88 189 OFFCURVE",
"88 248 QCURVE {name = hr01;}",
"88 593 LINE",
"21 602 LINE",
"21 691 LINE {name = mh01;}",
"290 691 LINE",
"290 603 LINE",
"219 592 LINE",
"219 250 LINE {name = hr00;}"
);
},
{
closed = 1;
nodes = (
"376 959 LINE",
"413 974 LINE",
"491 865 LINE",
"294 741 LINE",
"247 795 LINE"
);
}
);
width = 670;
}
);
leftKerningGroup = U;
rightKerningGroup = U;
unicode = 00DA;
userData = {
com.typemytype.robofont.mark = (
0.713,
0.6,
1,
1
);
};
},
{
glyphname = Ucircumflex;
lastChange = "2018-07-23 17:46:20 +0000";
layers = (
{
layerId = "7A2A571C-0203-4ADD-BC50-2735B3AB72B4";
paths = (
{
closed = 1;
nodes = (
"319 884 LINE",
"460 727 LINE",
"386 727 LINE",
"310 790 LINE",
"235 727 LINE",
"161 727 LINE",
"303 884 LINE {name = hr00;}"
);
},
{
closed = 1;
nodes = (
"417 691 LINE",
"587 691 LINE",
"591 635 LINE",
"536 627 LINE",
"536 202 LINE",
"536 153 OFFCURVE",
"501 76 OFFCURVE",
"441 24 OFFCURVE",
"359 -4 OFFCURVE",
"313 -4 QCURVE",
"266 -4 OFFCURVE",
"186 25 OFFCURVE",
"128 79 OFFCURVE",
"96 155 OFFCURVE",
"96 202 QCURVE",
"96 627 LINE",
"38 631 LINE",
"38 691 LINE {name = ah01;}",
"215 691 LINE {name = ah02;}",
"219 635 LINE",
"164 627 LINE",
"164 213 LINE",
"164 141 OFFCURVE",
"246 63 OFFCURVE",
"319 63 QCURVE",
"350 63 OFFCURVE",
"406 79 OFFCURVE",
"449 115 OFFCURVE",
"474 172 OFFCURVE",
"474 213 QCURVE",
"474 627 LINE",
"417 631 LINE"
);
}
);
width = 628;
},
{
layerId = "3C57ECF2-80FF-487A-B259-F9D598FB850F";
paths = (
{
closed = 1;
nodes = (
"322 903 LINE {name = av01;}",
"359 903 LINE",
"531 736 LINE",
"524 724 LINE",
"438 724 LINE",
"340 782 LINE",
"242 724 LINE",
"157 724 LINE",
"151 737 LINE {name = hr00;}"
);
},
{
closed = 1;
nodes = (
"219 175 OFFCURVE",
"278 101 OFFCURVE",
"353 101 QCURVE",
"413 101 OFFCURVE",
"479 172 OFFCURVE",
"479 251 QCURVE",
"479 594 LINE",
"415 603 LINE",
"415 691 LINE",
"643 691 LINE",
"643 600 LINE {name = hr02;}",
"584 587 LINE",
"584 248 LINE",
"584 131 OFFCURVE",
"466 -4 OFFCURVE",
"353 -4 QCURVE",
"278 -4 OFFCURVE",
"176 30 OFFCURVE",
"115 95 OFFCURVE",
"88 189 OFFCURVE",
"88 248 QCURVE {name = hr01;}",
"88 593 LINE",
"21 602 LINE",
"21 691 LINE",
"290 691 LINE",
"290 603 LINE",
"219 592 LINE",
"219 250 LINE"
);
}
);
width = 670;
}
);
leftKerningGroup = U;
rightKerningGroup = U;
unicode = 00DB;
userData = {
com.typemytype.robofont.mark = (
0.713,
0.6,
1,
1
);
};
},
{
glyphname = Udieresis;
lastChange = "2018-07-23 17:46:20 +0000";
layers = (
{
layerId = "7A2A571C-0203-4ADD-BC50-2735B3AB72B4";
paths = (
{
closed = 1;
nodes = (
"417 691 LINE {name = mh01;}",
"587 691 LINE",
"591 635 LINE",
"536 627 LINE",
"536 202 LINE",
"536 153 OFFCURVE",
"501 76 OFFCURVE",
"441 24 OFFCURVE",
"359 -4 OFFCURVE",
"313 -4 QCURVE",
"266 -4 OFFCURVE",
"186 25 OFFCURVE",
"128 79 OFFCURVE",
"96 155 OFFCURVE",
"96 202 QCURVE",
"96 627 LINE",
"38 631 LINE",
"38 691 LINE",
"215 691 LINE {name = mh02;}",
"219 635 LINE",
"164 627 LINE",
"164 213 LINE",
"164 141 OFFCURVE",
"246 63 OFFCURVE",
"319 63 QCURVE",
"350 63 OFFCURVE",
"406 79 OFFCURVE",
"449 115 OFFCURVE",
"474 172 OFFCURVE",
"474 213 QCURVE",
"474 627 LINE",
"417 631 LINE {name = hr00;}"
);
},
{
closed = 1;
nodes = (
"164 817 OFFCURVE",
"197 850 OFFCURVE",
"221 850 QCURVE {name = mh03;}",
"244 850 OFFCURVE",
"279 817 OFFCURVE",
"279 793 QCURVE",
"279 769 OFFCURVE",
"244 735 OFFCURVE",
"221 735 QCURVE",
"197 735 OFFCURVE",
"164 769 OFFCURVE",
"164 793 QCURVE"
);
},
{
closed = 1;
nodes = (
"340 817 OFFCURVE",
"375 850 OFFCURVE",
"400 850 QCURVE {name = mh04;}",
"423 850 OFFCURVE",
"455 817 OFFCURVE",
"455 793 QCURVE",
"455 769 OFFCURVE",
"423 735 OFFCURVE",
"400 735 QCURVE",
"375 735 OFFCURVE",
"340 769 OFFCURVE",
"340 793 QCURVE"
);
}
);
width = 628;
},
{
layerId = "3C57ECF2-80FF-487A-B259-F9D598FB850F";
paths = (
{
closed = 1;
nodes = (
"219 175 OFFCURVE",
"278 101 OFFCURVE",
"353 101 QCURVE",
"413 101 OFFCURVE",
"479 172 OFFCURVE",
"479 251 QCURVE",
"479 593 LINE {name = mh01;}",
"415 602 LINE",
"415 690 LINE",
"643 690 LINE",
"643 599 LINE",
"584 586 LINE",
"584 248 LINE",
"584 131 OFFCURVE",
"466 -4 OFFCURVE",
"353 -4 QCURVE {name = hr01;}",
"278 -4 OFFCURVE",
"176 30 OFFCURVE",
"115 95 OFFCURVE",
"88 189 OFFCURVE",
"88 248 QCURVE",
"88 592 LINE {name = mh02;}",
"21 601 LINE",
"21 690 LINE {name = mh03;}",
"290 690 LINE",
"290 602 LINE",
"219 591 LINE",
"219 250 LINE {name = hr00;}"
);
},
{
closed = 1;
nodes = (
"193 833 OFFCURVE",
"233 873 OFFCURVE",
"261 873 QCURVE",
"290 873 OFFCURVE",
"330 833 OFFCURVE",
"330 804 QCURVE {name = hr02;}",
"330 775 OFFCURVE",
"290 736 OFFCURVE",
"261 736 QCURVE {name = mv01;}",
"233 736 OFFCURVE",
"193 775 OFFCURVE",
"193 804 QCURVE {name = mh04;}"
);
},
{
closed = 1;
nodes = (
"371 833 OFFCURVE",
"410 873 OFFCURVE",
"439 873 QCURVE",
"468 873 OFFCURVE",
"506 833 OFFCURVE",
"506 804 QCURVE {name = hr03;}",
"506 775 OFFCURVE",
"468 736 OFFCURVE",
"439 736 QCURVE {name = mv02;}",
"410 736 OFFCURVE",
"371 775 OFFCURVE",
"371 804 QCURVE {name = mh05;}"
);
}
);
width = 670;
}
);
leftKerningGroup = U;
rightKerningGroup = U;
unicode = 00DC;
userData = {
com.typemytype.robofont.mark = (
0.713,
0.6,
1,
1
);
};
},
{
glyphname = Ugrave;
lastChange = "2018-07-23 17:46:20 +0000";
layers = (
{
layerId = "7A2A571C-0203-4ADD-BC50-2735B3AB72B4";
paths = (
{
closed = 1;
nodes = (
"189 818 LINE",
"225 890 LINE",
"256 897 LINE",
"424 764 LINE",
"392 717 LINE {name = hr00;}"
);
},
{
closed = 1;
nodes = (
"417 691 LINE",
"587 691 LINE",
"591 635 LINE",
"536 627 LINE",
"536 202 LINE",
"536 153 OFFCURVE",
"501 76 OFFCURVE",
"441 24 OFFCURVE",
"359 -4 OFFCURVE",
"313 -4 QCURVE",
"266 -4 OFFCURVE",
"186 25 OFFCURVE",
"128 79 OFFCURVE",
"96 155 OFFCURVE",
"96 202 QCURVE",
"96 627 LINE",
"38 631 LINE",
"38 691 LINE {name = ah01;}",
"215 691 LINE",
"219 635 LINE",
"164 627 LINE",
"164 213 LINE",
"164 141 OFFCURVE",
"246 63 OFFCURVE",
"319 63 QCURVE",
"350 63 OFFCURVE",
"406 79 OFFCURVE",
"449 115 OFFCURVE",
"474 172 OFFCURVE",
"474 213 QCURVE",
"474 627 LINE",
"417 631 LINE"
);
}
);
width = 628;
},
{
layerId = "3C57ECF2-80FF-487A-B259-F9D598FB850F";
paths = (
{
closed = 1;
nodes = (
"219 175 OFFCURVE",
"278 101 OFFCURVE",
"353 101 QCURVE",
"413 101 OFFCURVE",
"479 172 OFFCURVE",
"479 251 QCURVE",
"479 594 LINE",
"415 603 LINE",
"415 691 LINE",
"643 691 LINE",
"643 600 LINE {name = hr02;}",
"584 587 LINE {name = mh01;}",
"584 248 LINE",
"584 131 OFFCURVE",
"466 -4 OFFCURVE",
"353 -4 QCURVE",
"278 -4 OFFCURVE",
"176 30 OFFCURVE",
"115 95 OFFCURVE",
"88 189 OFFCURVE",
"88 248 QCURVE {name = hr01;}",
"88 593 LINE",
"21 602 LINE",
"21 691 LINE {name = ah01;}",
"290 691 LINE",
"290 603 LINE",
"219 592 LINE {name = mh02;}",
"219 250 LINE {name = hr00;}"
);
},
{
closed = 1;
nodes = (
"212 868 LINE",
"289 959 LINE",
"324 942 LINE",
"436 765 LINE",
"395 724 LINE"
);
}
);
width = 670;
}
);
leftKerningGroup = U;
rightKerningGroup = U;
unicode = 00D9;
userData = {
com.typemytype.robofont.mark = (
0.713,
0.6,
1,
1
);
};
},
{
glyphname = V;
lastChange = "2018-07-23 17:46:20 +0000";
layers = (
{
layerId = "7A2A571C-0203-4ADD-BC50-2735B3AB72B4";
paths = (
{
closed = 1;
nodes = (
"205 647 LINE",
"117 626 LINE {name = mh01;}",
"284 111 LINE {name = mh02;}",
"455 629 LINE {name = mh03;}",
"364 646 LINE",
"364 691 LINE",
"560 691 LINE",
"560 644 LINE",
"520 626 LINE",
"312 0 LINE",
"247 0 LINE",
"44 626 LINE",
"8 644 LINE",
"8 691 LINE {name = mh04;}",
"205 691 LINE {name = hr00;}"
);
}
);
width = 562;
},
{
layerId = "3C57ECF2-80FF-487A-B259-F9D598FB850F";
paths = (
{
closed = 1;
nodes = (
"258 611 LINE",
"181 594 LINE",
"338 130 LINE",
"341 141 OFFCURVE",
"363 204 OFFCURVE",
"392 290 OFFCURVE",
"408 339 QCURVE",
"441 437 LINE",
"457 485 OFFCURVE",
"485 568 OFFCURVE",
"493 594 QCURVE",
"402 612 LINE",
"402 690 LINE",
"635 690 LINE",
"635 601 LINE",
"598 594 LINE",
"391 0 LINE",
"250 0 LINE",
"40 594 LINE",
"4 601 LINE",
"4 690 LINE",
"244 690 LINE {name = hr00;}"
);
}
);
width = 639;
}
);
unicode = 0056;
userData = {
com.typemytype.robofont.mark = (
0.713,
0.6,
1,
1
);
};
},
{
glyphname = W;
lastChange = "2018-07-23 17:46:20 +0000";
layers = (
{
layerId = "7A2A571C-0203-4ADD-BC50-2735B3AB72B4";
paths = (
{
closed = 1;
nodes = (
"201 647 LINE",
"123 626 LINE",
"236 88 LINE",
"391 668 LINE {name = mh01;}",
"476 668 LINE",
"628 82 LINE",
"742 629 LINE",
"664 646 LINE",
"664 691 LINE {name = mh02;}",
"846 691 LINE",
"846 644 LINE",
"806 626 LINE",
"673 0 LINE",
"582 0 LINE",
"431 576 LINE",
"281 0 LINE",
"181 0 LINE",
"52 626 LINE",
"13 644 LINE",
"13 691 LINE {name = mh03;}",
"201 691 LINE {name = hr00;}"
);
}
);
width = 856;
},
{
layerId = "3C57ECF2-80FF-487A-B259-F9D598FB850F";
paths = (
{
closed = 1;
nodes = (
"988 602 LINE",
"910 582 LINE",
"800 0 LINE {name = mh01;}",
"632 0 LINE {name = mh02;}",
"491 506 LINE",
"355 0 LINE {name = mh03;}",
"181 0 LINE {name = mh04;}",
"71 587 LINE {name = mh05;}",
"16 600 LINE",
"16 690 LINE {name = mh06;}",
"260 690 LINE {name = hr02;}",
"277 611 LINE",
"207 601 LINE {name = mh07;}",
"289 143 LINE {name = mh08;}",
"443 677 LINE {name = mh09;}",
"585 677 LINE {name = hr01;}",
"734 129 LINE",
"812 601 LINE",
"728 614 LINE",
"739 690 LINE",
"988 690 LINE {name = hr00;}"
);
}
);
width = 985;
}
);
unicode = 0057;
userData = {
com.typemytype.robofont.mark = (
0.713,
0.6,
1,
1
);
};
},
{
glyphname = X;
lastChange = "2018-07-23 17:46:20 +0000";
layers = (
{
layerId = "7A2A571C-0203-4ADD-BC50-2735B3AB72B4";
paths = (
{
closed = 1;
nodes = (
"20 54 LINE",
"65 61 LINE",
"240 347 LINE",
"69 627 LINE",
"22 638 LINE",
"22 691 LINE {name = mh01;}",
"217 691 LINE",
"217 648 LINE",
"146 633 LINE",
"288 401 LINE",
"417 633 LINE",
"358 643 LINE",
"358 691 LINE",
"537 691 LINE",
"537 637 LINE",
"492 630 LINE",
"325 341 LINE",
"490 75 LINE",
"554 52 LINE",
"554 0 LINE",
"356 0 LINE",
"356 52 LINE",
"418 58 LINE",
"276 289 LINE",
"139 58 LINE",
"197 48 LINE",
"197 0 LINE",
"20 0 LINE {name = hr00;}"
);
}
);
width = 566;
},
{
layerId = "3C57ECF2-80FF-487A-B259-F9D598FB850F";
paths = (
{
closed = 1;
nodes = (
"577 600 LINE",
"536 592 LINE {name = mh01;}",
"370 334 LINE {name = mh02;}",
"410 265 OFFCURVE",
"487 136 OFFCURVE",
"513 93 QCURVE",
"577 71 LINE",
"577 0 LINE",
"306 0 LINE",
"306 71 LINE",
"363 77 LINE",
"273 232 LINE",
"183 76 LINE",
"238 70 LINE",
"238 0 LINE",
"13 0 LINE",
"13 71 LINE",
"59 79 LINE",
"216 331 LINE",
"66 591 LINE {name = mh03;}",
"24 603 LINE",
"24 690 LINE {name = mh04;}",
"277 690 LINE",
"291 612 LINE {name = mh05;}",
"221 597 LINE {name = mh06;}",
"235 572 OFFCURVE",
"283 488 OFFCURVE",
"312 436 QCURVE {name = mv01;}",
"412 595 LINE {name = mh07;}",
"354 613 LINE",
"354 690 LINE",
"577 690 LINE {name = hr00;}"
);
}
);
width = 594;
}
);
unicode = 0058;
userData = {
com.typemytype.robofont.mark = (
0.713,
0.6,
1,
1
);
};
},
{
glyphname = Y;
lastChange = "2018-07-23 17:46:20 +0000";
layers = (
{
layerId = "7A2A571C-0203-4ADD-BC50-2735B3AB72B4";
paths = (
{
closed = 1;
nodes = (
"189 638 LINE",
"126 628 LINE",
"278 330 LINE",
"418 629 LINE",
"357 637 LINE",
"357 691 LINE",
"529 691 LINE",
"529 631 LINE",
"486 621 LINE",
"305 243 LINE",
"305 70 LINE",
"420 52 LINE",
"411 0 LINE",
"131 0 LINE",
"121 52 LINE",
"237 70 LINE",
"237 257 LINE",
"50 622 LINE",
"7 631 LINE",
"7 691 LINE {name = mh01;}",
"189 691 LINE {name = hr00;}"
);
}
);
width = 539;
},
{
layerId = "3C57ECF2-80FF-487A-B259-F9D598FB850F";
paths = (
{
closed = 1;
nodes = (
"257 611 LINE",
"186 597 LINE",
"310 381 LINE",
"422 600 LINE",
"361 611 LINE",
"361 690 LINE",
"582 690 LINE",
"582 602 LINE",
"538 591 LINE",
"360 251 LINE",
"360 96 LINE",
"475 73 LINE",
"466 0 LINE",
"125 0 LINE",
"115 73 LINE",
"229 96 LINE",
"229 252 LINE",
"38 591 LINE",
"-2 601 LINE",
"-2 690 LINE {name = mh01;}",
"242 690 LINE {name = hr00;}"
);
}
);
width = 583;
}
);
leftKerningGroup = Y;
rightKerningGroup = Y;
unicode = 0059;
userData = {
com.typemytype.robofont.mark = (
0.713,
0.6,
1,
1
);
};
},
{
glyphname = Yacute;
lastChange = "2018-07-23 17:46:20 +0000";
layers = (
{
layerId = "7A2A571C-0203-4ADD-BC50-2735B3AB72B4";
paths = (
{
closed = 1;
nodes = (
"326 897 LINE",
"356 890 LINE",
"393 818 LINE",
"200 717 LINE",
"168 764 LINE {name = hr00;}"
);
},
{
closed = 1;
nodes = (
"189 638 LINE",
"126 628 LINE",
"278 330 LINE",
"418 629 LINE",
"357 637 LINE",
"357 691 LINE",
"529 691 LINE",
"529 631 LINE",
"486 621 LINE",
"305 243 LINE",
"305 70 LINE",
"420 52 LINE",
"411 0 LINE",
"131 0 LINE",
"121 52 LINE",
"237 70 LINE",
"237 257 LINE",
"50 622 LINE",
"7 631 LINE",
"7 691 LINE {name = at01;}",
"189 691 LINE"
);
}
);
width = 539;
},
{
layerId = "3C57ECF2-80FF-487A-B259-F9D598FB850F";
paths = (
{
closed = 1;
nodes = (
"257 612 LINE",
"186 598 LINE {name = mh01;}",
"310 382 LINE {name = mv01;}",
"422 601 LINE",
"361 612 LINE",
"361 691 LINE",
"582 691 LINE",
"582 603 LINE",
"538 592 LINE",
"360 251 LINE",
"360 96 LINE",
"475 73 LINE",
"466 0 LINE",
"125 0 LINE",
"115 73 LINE",
"229 96 LINE",
"229 252 LINE",
"38 592 LINE {name = mh02;}",
"-2 602 LINE",
"-2 691 LINE {name = mh03;}",
"242 691 LINE {name = hr00;}"
);
},
{
closed = 1;
nodes = (
"361 959 LINE",
"398 974 LINE",
"476 865 LINE",
"279 741 LINE",
"232 795 LINE"
);
}
);
width = 583;
}
);
leftKerningGroup = Y;
rightKerningGroup = Y;
unicode = 00DD;
userData = {
com.typemytype.robofont.mark = (
0.713,
0.6,
1,
1
);
};
},
{
glyphname = Z;
lastChange = "2018-07-23 17:46:20 +0000";
layers = (
{
layerId = "7A2A571C-0203-4ADD-BC50-2735B3AB72B4";
paths = (
{
closed = 1;
nodes = (
"127 68 LINE",
"426 68 LINE",
"446 170 LINE",
"493 170 LINE",
"493 0 LINE",
"56 0 LINE",
"47 75 LINE",
"415 623 LINE",
"119 623 LINE",
"99 521 LINE",
"52 521 LINE",
"52 691 LINE {name = mh01;}",
"477 691 LINE",
"487 604 LINE {name = hr00;}"
);
}
);
width = 542;
},
{
layerId = "3C57ECF2-80FF-487A-B259-F9D598FB850F";
paths = (
{
closed = 1;
nodes = (
"365 585 LINE",
"144 585 LINE {name = hr01;}",
"125 475 LINE",
"47 475 LINE",
"47 690 LINE {name = mh01;}",
"507 690 LINE",
"527 597 LINE",
"514 575 OFFCURVE",
"469 505 OFFCURVE",
"414 420 OFFCURVE",
"352 326 OFFCURVE",
"289 232 OFFCURVE",
"230 142 OFFCURVE",
"205 105 QCURVE",
"420 105 LINE",
"438 215 LINE",
"518 215 LINE",
"518 0 LINE",
"47 0 LINE",
"28 79 LINE {name = hr00;}"
);
}
);
width = 562;
}
);
unicode = 005A;
userData = {
com.typemytype.robofont.mark = (
0.713,
0.6,
1,
1
);
};
},
{
glyphname = a;
lastChange = "2018-07-23 17:46:20 +0000";
layers = (
{
layerId = "7A2A571C-0203-4ADD-BC50-2735B3AB72B4";
paths = (
{
closed = 1;
nodes = (
"366 68 OFFCURVE",
"375 50 OFFCURVE",
"389 50 QCURVE",
"394 50 OFFCURVE",
"405 53 OFFCURVE",
"410 55 QCURVE",
"421 17 LINE",
"410 6 OFFCURVE",
"381 -4 OFFCURVE",
"366 -4 QCURVE",
"339 -4 OFFCURVE",
"313 21 OFFCURVE",
"308 40 QCURVE",
"285 19 OFFCURVE",
"226 -4 OFFCURVE",
"190 -4 QCURVE",
"160 -4 OFFCURVE",
"106 14 OFFCURVE",
"65 48 OFFCURVE",
"41 97 OFFCURVE",
"41 128 QCURVE",
"41 179 OFFCURVE",
"96 241 OFFCURVE",
"176 275 OFFCURVE",
"267 287 OFFCURVE",
"303 288 QCURVE {name = mh01;}",
"303 352 LINE",
"303 384 OFFCURVE",
"255 422 OFFCURVE",
"215 422 QCURVE",
"200 422 OFFCURVE",
"159 417 OFFCURVE",
"146 409 QCURVE",
"130 356 LINE",
"48 371 LINE",
"57 399 OFFCURVE",
"90 439 OFFCURVE",
"133 466 OFFCURVE",
"183 479 OFFCURVE",
"209 479 QCURVE {name = mh02;}",
"292 479 OFFCURVE",
"366 402 OFFCURVE",
"366 337 QCURVE",
"366 79 LINE {name = hr00;}"
);
},
{
closed = 1;
nodes = (
"107 96 OFFCURVE",
"155 53 OFFCURVE",
"197 53 QCURVE {name = mh03;}",
"228 53 OFFCURVE",
"286 82 OFFCURVE",
"303 108 QCURVE",
"303 232 LINE {name = mh04;}",
"277 232 OFFCURVE",
"210 225 OFFCURVE",
"149 204 OFFCURVE",
"107 164 OFFCURVE",
"107 131 QCURVE"
);
}
);
width = 448;
},
{
layerId = "3C57ECF2-80FF-487A-B259-F9D598FB850F";
paths = (
{
closed = 1;
nodes = (
"395 91 OFFCURVE",
"406 83 OFFCURVE",
"413 83 QCURVE",
"418 83 OFFCURVE",
"426 85 OFFCURVE",
"428 85 QCURVE",
"446 29 LINE",
"439 23 OFFCURVE",
"397 -4 OFFCURVE",
"366 -4 QCURVE",
"336 -4 OFFCURVE",
"297 22 OFFCURVE",
"286 44 QCURVE",
"266 24 OFFCURVE {name = mv01;}",
"209 -4 OFFCURVE",
"174 -4 QCURVE",
"139 -4 OFFCURVE",
"85 16 OFFCURVE",
"48 52 OFFCURVE",
"29 101 OFFCURVE",
"29 129 QCURVE",
"29 173 OFFCURVE",
"75 233 OFFCURVE",
"146 270 OFFCURVE",
"233 287 OFFCURVE",
"274 288 QCURVE",
"274 367 LINE",
"274 378 OFFCURVE",
"243 397 OFFCURVE",
"209 397 QCURVE",
"201 397 OFFCURVE",
"185 396 OFFCURVE {name = mh01;}",
"180 394 QCURVE",
"154 320 LINE {name = mh02;}",
"30 374 LINE",
"40 398 OFFCURVE",
"77 440 OFFCURVE {name = mh03;}",
"127 472 OFFCURVE {name = mh04;}",
"188 491 OFFCURVE",
"223 491 QCURVE {name = mh05;}",
"255 491 OFFCURVE",
"317 475 OFFCURVE",
"365 437 OFFCURVE",
"395 376 OFFCURVE",
"395 330 QCURVE {name = mh06;}",
"395 105 LINE {name = hr00;}"
);
},
{
closed = 1;
nodes = (
"226 92 OFFCURVE",
"266 122 OFFCURVE",
"274 139 QCURVE {name = mh07;}",
"274 204 LINE",
"255 203 OFFCURVE",
"213 197 OFFCURVE {name = mv02;}",
"177 182 OFFCURVE",
"153 157 OFFCURVE",
"153 138 QCURVE {name = mh08;}",
"153 121 OFFCURVE",
"175 92 OFFCURVE",
"198 92 QCURVE"
);
}
);
width = 463;
}
);
leftKerningGroup = a;
rightKerningGroup = a;
unicode = 0061;
userData = {
com.typemytype.robofont.mark = (
0.713,
0.6,
1,
1
);
};
},
{
glyphname = aacute;
lastChange = "2018-07-23 17:46:20 +0000";
layers = (
{
layerId = "7A2A571C-0203-4ADD-BC50-2735B3AB72B4";
paths = (
{
closed = 1;
nodes = (
"366 68 OFFCURVE",
"375 50 OFFCURVE",
"389 50 QCURVE",
"394 50 OFFCURVE",
"405 53 OFFCURVE",
"410 55 QCURVE",
"421 17 LINE",
"410 6 OFFCURVE",
"381 -4 OFFCURVE",
"366 -4 QCURVE",
"339 -4 OFFCURVE",
"313 21 OFFCURVE",
"308 40 QCURVE",
"285 19 OFFCURVE",
"226 -4 OFFCURVE",
"190 -4 QCURVE",
"160 -4 OFFCURVE",
"106 14 OFFCURVE",
"65 48 OFFCURVE",
"41 97 OFFCURVE",
"41 128 QCURVE",
"41 179 OFFCURVE",
"96 241 OFFCURVE",
"176 275 OFFCURVE",
"267 287 OFFCURVE",
"303 288 QCURVE",
"303 352 LINE",
"303 384 OFFCURVE",
"255 422 OFFCURVE",
"215 422 QCURVE",
"200 422 OFFCURVE",
"159 417 OFFCURVE",
"146 409 QCURVE",
"130 356 LINE",
"48 371 LINE",
"57 399 OFFCURVE",
"90 439 OFFCURVE",
"133 466 OFFCURVE",
"183 479 OFFCURVE",
"209 479 QCURVE {name = mh01;}",
"292 479 OFFCURVE",
"366 402 OFFCURVE",
"366 337 QCURVE",
"366 79 LINE {name = hr00;}"
);
},
{
closed = 1;
nodes = (
"107 96 OFFCURVE",
"155 53 OFFCURVE",
"197 53 QCURVE",
"228 53 OFFCURVE",
"286 82 OFFCURVE",
"303 108 QCURVE",
"303 232 LINE",
"277 232 OFFCURVE",
"210 225 OFFCURVE",
"149 204 OFFCURVE",
"107 164 OFFCURVE",
"107 131 QCURVE"
);
},
{
closed = 1;
nodes = (
"253 725 LINE {name = mh02;}",
"280 725 LINE",
"324 673 LINE",
"184 553 LINE",
"149 586 LINE"
);
}
);
width = 448;
},
{
layerId = "3C57ECF2-80FF-487A-B259-F9D598FB850F";
paths = (
{
closed = 1;
nodes = (
"395 91 OFFCURVE",
"406 83 OFFCURVE",
"413 83 QCURVE",
"418 83 OFFCURVE",
"426 85 OFFCURVE",
"428 85 QCURVE",
"446 29 LINE",
"439 23 OFFCURVE",
"397 -4 OFFCURVE",
"366 -4 QCURVE",
"336 -4 OFFCURVE",
"297 22 OFFCURVE",
"286 44 QCURVE",
"266 24 OFFCURVE",
"209 -4 OFFCURVE",
"174 -4 QCURVE",
"139 -4 OFFCURVE",
"85 16 OFFCURVE",
"48 52 OFFCURVE",
"29 101 OFFCURVE",
"29 129 QCURVE",
"29 173 OFFCURVE",
"75 233 OFFCURVE",
"146 270 OFFCURVE",
"233 287 OFFCURVE",
"274 288 QCURVE",
"274 367 LINE",
"274 378 OFFCURVE",
"243 397 OFFCURVE",
"209 397 QCURVE",
"201 397 OFFCURVE",
"185 396 OFFCURVE",
"180 394 QCURVE",
"154 320 LINE {name = mh01;}",
"30 374 LINE",
"40 398 OFFCURVE",
"77 440 OFFCURVE",
"127 472 OFFCURVE",
"188 491 OFFCURVE",
"223 491 QCURVE",
"255 491 OFFCURVE",
"317 475 OFFCURVE",
"365 437 OFFCURVE",
"395 376 OFFCURVE",
"395 330 QCURVE",
"395 105 LINE {name = hr00;}"
);
},
{
closed = 1;
nodes = (
"226 92 OFFCURVE",
"266 122 OFFCURVE",
"274 139 QCURVE",
"274 204 LINE",
"255 203 OFFCURVE",
"213 197 OFFCURVE",
"177 182 OFFCURVE",
"153 157 OFFCURVE",
"153 138 QCURVE",
"153 121 OFFCURVE",
"175 92 OFFCURVE",
"198 92 QCURVE"
);
},
{
closed = 1;
nodes = (
"238 722 LINE",
"274 736 LINE",
"351 630 LINE",
"158 509 LINE {name = mh02;}",
"112 561 LINE"
);
}
);
width = 463;
}
);
leftKerningGroup = a;
rightKerningGroup = a;
unicode = 00E1;
userData = {
com.typemytype.robofont.mark = (
0.713,
0.6,
1,
1
);
};
},
{
glyphname = acircumflex;
lastChange = "2018-07-23 17:46:20 +0000";
layers = (
{
layerId = "7A2A571C-0203-4ADD-BC50-2735B3AB72B4";
paths = (
{
closed = 1;
nodes = (
"203 691 LINE {name = mh02;}",
"219 691 LINE",
"335 550 LINE",
"332 544 LINE",
"277 544 LINE",
"211 602 LINE {name = mh03;}",
"145 544 LINE",
"91 544 LINE",
"87 548 LINE {name = mh01;}"
);
},
{
closed = 1;
nodes = (
"366 68 OFFCURVE",
"375 50 OFFCURVE",
"389 50 QCURVE",
"394 50 OFFCURVE",
"405 53 OFFCURVE",
"410 55 QCURVE",
"421 17 LINE",
"410 6 OFFCURVE",
"381 -4 OFFCURVE",
"366 -4 QCURVE",
"339 -4 OFFCURVE",
"313 21 OFFCURVE",
"308 40 QCURVE",
"285 19 OFFCURVE",
"226 -4 OFFCURVE",
"190 -4 QCURVE",
"160 -4 OFFCURVE",
"106 14 OFFCURVE",
"65 48 OFFCURVE",
"41 97 OFFCURVE",
"41 128 QCURVE {name = hr01;}",
"41 179 OFFCURVE",
"96 241 OFFCURVE",
"176 275 OFFCURVE",
"267 287 OFFCURVE",
"303 288 QCURVE",
"303 352 LINE",
"303 384 OFFCURVE",
"255 422 OFFCURVE",
"215 422 QCURVE",
"200 422 OFFCURVE",
"159 417 OFFCURVE",
"146 409 QCURVE",
"130 356 LINE",
"48 371 LINE",
"57 399 OFFCURVE",
"90 439 OFFCURVE",
"133 466 OFFCURVE",
"183 479 OFFCURVE",
"209 479 QCURVE {name = mh04;}",
"292 479 OFFCURVE",
"366 402 OFFCURVE",
"366 337 QCURVE",
"366 79 LINE"
);
},
{
closed = 1;
nodes = (
"107 96 OFFCURVE",
"155 53 OFFCURVE",
"197 53 QCURVE",
"228 53 OFFCURVE",
"286 82 OFFCURVE",
"303 108 QCURVE",
"303 232 LINE",
"277 232 OFFCURVE",
"210 225 OFFCURVE",
"149 204 OFFCURVE",
"107 164 OFFCURVE",
"107 131 QCURVE"
);
}
);
width = 448;
},
{
layerId = "3C57ECF2-80FF-487A-B259-F9D598FB850F";
paths = (
{
closed = 1;
nodes = (
"213 700 LINE {name = mh02;}",
"245 700 LINE {name = mv01;}",
"379 540 LINE {name = mh03;}",
"373 529 LINE",
"295 529 LINE {name = mv02;}",
"228 581 LINE",
"161 529 LINE",
"84 529 LINE",
"79 541 LINE {name = mh01;}"
);
},
{
closed = 1;
nodes = (
"395 91 OFFCURVE",
"406 83 OFFCURVE",
"413 83 QCURVE",
"418 83 OFFCURVE",
"426 85 OFFCURVE",
"428 85 QCURVE",
"446 29 LINE {name = hr01;}",
"439 23 OFFCURVE",
"397 -4 OFFCURVE",
"366 -4 QCURVE",
"336 -4 OFFCURVE",
"297 22 OFFCURVE",
"286 44 QCURVE",
"266 24 OFFCURVE",
"209 -4 OFFCURVE",
"174 -4 QCURVE",
"139 -4 OFFCURVE",
"85 16 OFFCURVE",
"48 52 OFFCURVE",
"29 101 OFFCURVE",
"29 129 QCURVE",
"29 173 OFFCURVE",
"75 233 OFFCURVE",
"146 270 OFFCURVE",
"233 287 OFFCURVE",
"274 288 QCURVE",
"274 367 LINE",
"274 378 OFFCURVE",
"243 397 OFFCURVE",
"209 397 QCURVE",
"201 397 OFFCURVE",
"185 396 OFFCURVE",
"180 394 QCURVE",
"154 320 LINE",
"30 374 LINE",
"40 398 OFFCURVE",
"77 440 OFFCURVE",
"127 472 OFFCURVE",
"188 491 OFFCURVE",
"223 491 QCURVE {name = mv03;}",
"255 491 OFFCURVE",
"317 475 OFFCURVE",
"365 437 OFFCURVE",
"395 376 OFFCURVE",
"395 330 QCURVE",
"395 105 LINE"
);
},
{
closed = 1;
nodes = (
"226 92 OFFCURVE",
"266 122 OFFCURVE",
"274 139 QCURVE",
"274 204 LINE",
"255 203 OFFCURVE",
"213 197 OFFCURVE",
"177 182 OFFCURVE",
"153 157 OFFCURVE",
"153 138 QCURVE",
"153 121 OFFCURVE",
"175 92 OFFCURVE",
"198 92 QCURVE"
);
}
);
width = 463;
}
);
leftKerningGroup = a;
rightKerningGroup = a;
unicode = 00E2;
userData = {
com.typemytype.robofont.mark = (
0.713,
0.6,
1,
1
);
};
},
{
glyphname = adieresis;
lastChange = "2018-07-23 17:46:20 +0000";
layers = (
{
layerId = "7A2A571C-0203-4ADD-BC50-2735B3AB72B4";
paths = (
{
closed = 1;
nodes = (
"89 639 OFFCURVE",
"117 668 OFFCURVE",
"138 668 QCURVE",
"157 668 OFFCURVE",
"186 639 OFFCURVE",
"186 619 QCURVE",
"186 600 OFFCURVE",
"157 570 OFFCURVE",
"138 570 QCURVE",
"117 570 OFFCURVE",
"89 600 OFFCURVE",
"89 619 QCURVE {name = mh01;}"
);
},
{
closed = 1;
nodes = (
"229 639 OFFCURVE",
"256 668 OFFCURVE",
"277 668 QCURVE",
"296 668 OFFCURVE",
"324 639 OFFCURVE",
"324 619 QCURVE {name = mh02;}",
"324 600 OFFCURVE",
"296 570 OFFCURVE",
"277 570 QCURVE",
"256 570 OFFCURVE",
"229 600 OFFCURVE",
"229 619 QCURVE"
);
},
{
closed = 1;
nodes = (
"366 68 OFFCURVE",
"375 50 OFFCURVE",
"389 50 QCURVE",
"394 50 OFFCURVE",
"405 53 OFFCURVE",
"410 55 QCURVE",
"421 17 LINE",
"410 6 OFFCURVE",
"381 -4 OFFCURVE",
"366 -4 QCURVE",
"339 -4 OFFCURVE",
"313 21 OFFCURVE",
"308 40 QCURVE",
"285 19 OFFCURVE",
"226 -4 OFFCURVE",
"190 -4 QCURVE",
"160 -4 OFFCURVE",
"106 14 OFFCURVE",
"65 48 OFFCURVE {name = mh03;}",
"41 97 OFFCURVE",
"41 128 QCURVE {name = mh04;}",
"41 179 OFFCURVE",
"96 241 OFFCURVE",
"176 275 OFFCURVE",
"267 287 OFFCURVE",
"303 288 QCURVE",
"303 352 LINE",
"303 384 OFFCURVE",
"255 422 OFFCURVE",
"215 422 QCURVE",
"200 422 OFFCURVE",
"159 417 OFFCURVE",
"146 409 QCURVE",
"130 356 LINE {name = mh05;}",
"48 371 LINE",
"57 399 OFFCURVE",
"90 439 OFFCURVE",
"133 466 OFFCURVE",
"183 479 OFFCURVE",
"209 479 QCURVE {name = mh06;}",
"292 479 OFFCURVE",
"366 402 OFFCURVE",
"366 337 QCURVE {name = mh07;}",
"366 79 LINE"
);
},
{
closed = 1;
nodes = (
"107 96 OFFCURVE",
"155 53 OFFCURVE",
"197 53 QCURVE",
"228 53 OFFCURVE",
"286 82 OFFCURVE",
"303 108 QCURVE",
"303 232 LINE",
"277 232 OFFCURVE",
"210 225 OFFCURVE",
"149 204 OFFCURVE",
"107 164 OFFCURVE",
"107 131 QCURVE"
);
}
);
width = 448;
},
{
layerId = "3C57ECF2-80FF-487A-B259-F9D598FB850F";
paths = (
{
closed = 1;
nodes = (
"70 660 OFFCURVE",
"106 696 OFFCURVE",
"132 696 QCURVE {name = fv01;}",
"158 696 OFFCURVE",
"194 660 OFFCURVE",
"194 634 QCURVE {name = mh02;}",
"194 608 OFFCURVE",
"158 572 OFFCURVE",
"132 572 QCURVE {name = mv01;}",
"106 572 OFFCURVE",
"70 608 OFFCURVE",
"70 634 QCURVE {name = mh01;}"
);
},
{
closed = 1;
nodes = (
"231 660 OFFCURVE",
"267 696 OFFCURVE",
"293 696 QCURVE",
"319 696 OFFCURVE",
"355 660 OFFCURVE",
"355 634 QCURVE",
"355 608 OFFCURVE",
"319 572 OFFCURVE",
"293 572 QCURVE {name = mv02;}",
"267 572 OFFCURVE",
"231 608 OFFCURVE",
"231 634 QCURVE {name = mh03;}"
);
},
{
closed = 1;
nodes = (
"395 91 OFFCURVE",
"406 83 OFFCURVE",
"413 83 QCURVE",
"418 83 OFFCURVE",
"426 85 OFFCURVE",
"428 85 QCURVE",
"446 29 LINE",
"439 23 OFFCURVE",
"397 -4 OFFCURVE",
"366 -4 QCURVE",
"336 -4 OFFCURVE",
"297 22 OFFCURVE",
"286 44 QCURVE",
"266 24 OFFCURVE",
"209 -4 OFFCURVE",
"174 -4 QCURVE",
"139 -4 OFFCURVE",
"85 16 OFFCURVE",
"48 52 OFFCURVE",
"29 101 OFFCURVE",
"29 129 QCURVE {name = mh05;}",
"29 173 OFFCURVE",
"75 233 OFFCURVE",
"146 270 OFFCURVE",
"233 287 OFFCURVE",
"274 288 QCURVE",
"274 367 LINE",
"274 378 OFFCURVE",
"243 397 OFFCURVE",
"209 397 QCURVE",
"201 397 OFFCURVE",
"185 396 OFFCURVE",
"180 394 QCURVE",
"154 320 LINE",
"30 374 LINE {name = hr01;}",
"40 398 OFFCURVE",
"77 440 OFFCURVE",
"127 472 OFFCURVE",
"188 491 OFFCURVE",
"223 491 QCURVE {name = mv03;}",
"255 491 OFFCURVE",
"317 475 OFFCURVE",
"365 437 OFFCURVE",
"395 376 OFFCURVE",
"395 330 QCURVE {name = mh06;}",
"395 105 LINE {name = mh04;}"
);
},
{
closed = 1;
nodes = (
"226 92 OFFCURVE",
"266 122 OFFCURVE",
"274 139 QCURVE",
"274 204 LINE",
"255 203 OFFCURVE",
"213 197 OFFCURVE {name = mv04;}",
"177 182 OFFCURVE",
"153 157 OFFCURVE",
"153 138 QCURVE",
"153 121 OFFCURVE",
"175 92 OFFCURVE",
"198 92 QCURVE"
);
}
);
width = 463;
}
);
leftKerningGroup = a;
rightKerningGroup = a;
unicode = 00E4;
userData = {
com.typemytype.robofont.mark = (
0.713,
0.6,
1,
1
);
};
},
{
glyphname = agrave;
lastChange = "2018-07-23 17:46:20 +0000";
layers = (
{
layerId = "7A2A571C-0203-4ADD-BC50-2735B3AB72B4";
paths = (
{
closed = 1;
nodes = (
"366 68 OFFCURVE",
"375 50 OFFCURVE",
"389 50 QCURVE",
"394 50 OFFCURVE",
"405 53 OFFCURVE",
"410 55 QCURVE",
"421 17 LINE",
"410 6 OFFCURVE",
"381 -4 OFFCURVE",
"366 -4 QCURVE",
"339 -4 OFFCURVE",
"313 21 OFFCURVE",
"308 40 QCURVE",
"285 19 OFFCURVE",
"226 -4 OFFCURVE",
"190 -4 QCURVE",
"160 -4 OFFCURVE",
"106 14 OFFCURVE",
"65 48 OFFCURVE",
"41 97 OFFCURVE",
"41 128 QCURVE",
"41 179 OFFCURVE",
"96 241 OFFCURVE",
"176 275 OFFCURVE",
"267 287 OFFCURVE",
"303 288 QCURVE",
"303 352 LINE",
"303 384 OFFCURVE",
"255 422 OFFCURVE",
"215 422 QCURVE",
"200 422 OFFCURVE",
"159 417 OFFCURVE",
"146 409 QCURVE",
"130 356 LINE",
"48 371 LINE",
"57 399 OFFCURVE",
"90 439 OFFCURVE",
"133 466 OFFCURVE",
"183 479 OFFCURVE",
"209 479 QCURVE {name = mh01;}",
"292 479 OFFCURVE",
"366 402 OFFCURVE",
"366 337 QCURVE",
"366 79 LINE {name = hr00;}"
);
},
{
closed = 1;
nodes = (
"107 96 OFFCURVE",
"155 53 OFFCURVE",
"197 53 QCURVE",
"228 53 OFFCURVE",
"286 82 OFFCURVE",
"303 108 QCURVE",
"303 232 LINE",
"277 232 OFFCURVE",
"210 225 OFFCURVE",
"149 204 OFFCURVE",
"107 164 OFFCURVE",
"107 131 QCURVE"
);
},
{
closed = 1;
nodes = (
"130 674 LINE",
"174 727 LINE {name = mh02;}",
"200 727 LINE",
"304 587 LINE {name = mh03;}",
"270 554 LINE"
);
}
);
width = 448;
},
{
layerId = "3C57ECF2-80FF-487A-B259-F9D598FB850F";
paths = (
{
closed = 1;
nodes = (
"395 376 OFFCURVE",
"365 437 OFFCURVE",
"317 475 OFFCURVE",
"255 491 OFFCURVE",
"223 491 QCURVE {name = av01;}",
"188 491 OFFCURVE",
"127 472 OFFCURVE",
"77 440 OFFCURVE",
"40 398 OFFCURVE",
"30 374 QCURVE",
"154 320 LINE",
"180 394 LINE",
"185 396 OFFCURVE",
"201 397 OFFCURVE",
"209 397 QCURVE",
"243 397 OFFCURVE",
"274 378 OFFCURVE",
"274 367 QCURVE",
"274 288 LINE",
"233 287 OFFCURVE",
"146 270 OFFCURVE",
"75 233 OFFCURVE",
"29 173 OFFCURVE",
"29 129 QCURVE",
"29 101 OFFCURVE",
"48 52 OFFCURVE",
"85 16 OFFCURVE",
"139 -4 OFFCURVE",
"174 -4 QCURVE",
"209 -4 OFFCURVE",
"266 24 OFFCURVE",
"286 44 QCURVE",
"297 22 OFFCURVE",
"336 -4 OFFCURVE",
"366 -4 QCURVE",
"397 -4 OFFCURVE",
"439 23 OFFCURVE",
"446 29 QCURVE",
"428 85 LINE",
"426 85 OFFCURVE",
"418 83 OFFCURVE",
"413 83 QCURVE",
"406 83 OFFCURVE",
"395 91 OFFCURVE",
"395 105 QCURVE",
"395 330 LINE {name = hr00;}"
);
},
{
closed = 1;
nodes = (
"175 92 OFFCURVE",
"153 121 OFFCURVE",
"153 138 QCURVE",
"153 157 OFFCURVE",
"177 182 OFFCURVE",
"213 197 OFFCURVE",
"255 203 OFFCURVE",
"274 204 QCURVE",
"274 139 LINE",
"266 122 OFFCURVE",
"226 92 OFFCURVE",
"198 92 QCURVE"
);
},
{
closed = 1;
nodes = (
"89 630 LINE",
"166 736 LINE",
"202 722 LINE",
"328 561 LINE",
"282 509 LINE {name = mh01;}"
);
}
);
width = 463;
}
);
leftKerningGroup = a;
rightKerningGroup = a;
unicode = 00E0;
userData = {
com.typemytype.robofont.mark = (
0.713,
0.6,
1,
1
);
};
},
{
glyphname = aring;
lastChange = "2018-07-23 17:46:20 +0000";
layers = (
{
layerId = "7A2A571C-0203-4ADD-BC50-2735B3AB72B4";
paths = (
{
closed = 1;
nodes = (
"124 639 OFFCURVE",
"176 691 OFFCURVE",
"214 691 QCURVE {name = mh02;}",
"252 691 OFFCURVE",
"304 639 OFFCURVE",
"304 601 QCURVE",
"304 562 OFFCURVE",
"252 510 OFFCURVE",
"214 510 QCURVE",
"176 510 OFFCURVE",
"124 562 OFFCURVE",
"124 601 QCURVE {name = mh01;}"
);
},
{
closed = 1;
nodes = (
"176 583 OFFCURVE",
"197 563 OFFCURVE",
"214 563 QCURVE",
"231 563 OFFCURVE",
"252 583 OFFCURVE",
"252 601 QCURVE",
"252 618 OFFCURVE",
"231 638 OFFCURVE",
"214 638 QCURVE",
"197 638 OFFCURVE",
"176 618 OFFCURVE",
"176 601 QCURVE"
);
},
{
closed = 1;
nodes = (
"366 68 OFFCURVE",
"375 50 OFFCURVE",
"389 50 QCURVE",
"394 50 OFFCURVE",
"405 53 OFFCURVE",
"410 55 QCURVE",
"421 17 LINE",
"410 6 OFFCURVE",
"381 -4 OFFCURVE",
"366 -4 QCURVE",
"339 -4 OFFCURVE",
"313 21 OFFCURVE",
"308 40 QCURVE",
"285 19 OFFCURVE",
"226 -4 OFFCURVE",
"190 -4 QCURVE",
"160 -4 OFFCURVE",
"106 14 OFFCURVE",
"65 48 OFFCURVE",
"41 97 OFFCURVE",
"41 128 QCURVE",
"41 179 OFFCURVE",
"96 241 OFFCURVE",
"176 275 OFFCURVE",
"267 287 OFFCURVE",
"303 288 QCURVE",
"303 352 LINE",
"303 384 OFFCURVE",
"255 422 OFFCURVE",
"215 422 QCURVE",
"200 422 OFFCURVE",
"159 417 OFFCURVE",
"146 409 QCURVE",
"130 356 LINE",
"48 371 LINE",
"57 399 OFFCURVE",
"90 439 OFFCURVE",
"133 466 OFFCURVE",
"183 479 OFFCURVE",
"209 479 QCURVE {name = mh03;}",
"292 479 OFFCURVE",
"366 402 OFFCURVE",
"366 337 QCURVE",
"366 79 LINE"
);
},
{
closed = 1;
nodes = (
"107 96 OFFCURVE",
"155 53 OFFCURVE",
"197 53 QCURVE",
"228 53 OFFCURVE",
"286 82 OFFCURVE",
"303 108 QCURVE",
"303 232 LINE",
"277 232 OFFCURVE",
"210 225 OFFCURVE",
"149 204 OFFCURVE",
"107 164 OFFCURVE",
"107 131 QCURVE"
);
}
);
width = 448;
},
{
layerId = "3C57ECF2-80FF-487A-B259-F9D598FB850F";
paths = (
{
closed = 1;
nodes = (
"118 653 OFFCURVE",
"134 692 OFFCURVE",
"163 721 OFFCURVE {name = av02;}",
"201 737 OFFCURVE",
"224 737 QCURVE {name = mv01;}",
"246 737 OFFCURVE",
"285 721 OFFCURVE",
"314 692 OFFCURVE",
"330 653 OFFCURVE",
"330 631 QCURVE",
"330 608 OFFCURVE",
"314 570 OFFCURVE",
"285 541 OFFCURVE",
"246 525 OFFCURVE",
"224 525 QCURVE",
"201 525 OFFCURVE",
"163 541 OFFCURVE",
"134 570 OFFCURVE",
"118 608 OFFCURVE",
"118 631 QCURVE {name = hr00;}"
);
},
{
closed = 1;
nodes = (
"181 611 OFFCURVE",
"204 588 OFFCURVE",
"224 588 QCURVE {name = hr01;}",
"244 588 OFFCURVE",
"267 611 OFFCURVE",
"267 631 QCURVE",
"267 651 OFFCURVE",
"244 674 OFFCURVE",
"224 674 QCURVE",
"204 674 OFFCURVE",
"181 651 OFFCURVE",
"181 631 QCURVE"
);
},
{
closed = 1;
nodes = (
"395 91 OFFCURVE",
"406 83 OFFCURVE",
"413 83 QCURVE",
"418 83 OFFCURVE",
"426 85 OFFCURVE",
"428 85 QCURVE",
"446 29 LINE",
"439 23 OFFCURVE",
"397 -4 OFFCURVE",
"366 -4 QCURVE",
"336 -4 OFFCURVE",
"297 22 OFFCURVE",
"286 44 QCURVE",
"266 24 OFFCURVE",
"209 -4 OFFCURVE",
"174 -4 QCURVE",
"139 -4 OFFCURVE",
"85 16 OFFCURVE",
"48 52 OFFCURVE",
"29 101 OFFCURVE",
"29 129 QCURVE",
"29 173 OFFCURVE",
"75 233 OFFCURVE",
"146 270 OFFCURVE",
"233 287 OFFCURVE",
"274 288 QCURVE",
"274 367 LINE",
"274 378 OFFCURVE",
"243 397 OFFCURVE",
"209 397 QCURVE",
"201 397 OFFCURVE",
"185 396 OFFCURVE",
"180 394 QCURVE",
"154 320 LINE",
"30 374 LINE {name = hr02;}",
"40 398 OFFCURVE",
"77 440 OFFCURVE",
"127 472 OFFCURVE",
"188 491 OFFCURVE",
"223 491 QCURVE {name = mv02;}",
"255 491 OFFCURVE",
"317 475 OFFCURVE {name = av01;}",
"365 437 OFFCURVE",
"395 376 OFFCURVE",
"395 330 QCURVE",
"395 105 LINE"
);
},
{
closed = 1;
nodes = (
"226 92 OFFCURVE",
"266 122 OFFCURVE",
"274 139 QCURVE",
"274 204 LINE",
"255 203 OFFCURVE",
"213 197 OFFCURVE",
"177 182 OFFCURVE",
"153 157 OFFCURVE",
"153 138 QCURVE",
"153 121 OFFCURVE",
"175 92 OFFCURVE",
"198 92 QCURVE"
);
}
);
width = 463;
}
);
leftKerningGroup = a;
rightKerningGroup = a;
unicode = 00E5;
userData = {
com.typemytype.robofont.mark = (
0.713,
0.6,
1,
1
);
};
},
{
glyphname = atilde;
lastChange = "2018-07-23 17:46:20 +0000";
layers = (
{
layerId = "7A2A571C-0203-4ADD-BC50-2735B3AB72B4";
paths = (
{
closed = 1;
nodes = (
"365 601 LINE",
"345 584 OFFCURVE",
"309 563 OFFCURVE",
"282 563 QCURVE",
"264 563 OFFCURVE",
"236 575 OFFCURVE",
"211 588 OFFCURVE",
"187 600 OFFCURVE",
"173 600 QCURVE",
"150 598 OFFCURVE",
"123 574 OFFCURVE",
"115 554 QCURVE",
"72 580 LINE",
"73 597 LINE",
"87 621 OFFCURVE",
"130 663 OFFCURVE",
"166 663 QCURVE {name = mh01;}",
"181 663 OFFCURVE",
"209 653 OFFCURVE",
"236 640 OFFCURVE",
"263 626 OFFCURVE",
"275 622 QCURVE",
"328 663 LINE {name = hr00;}"
);
},
{
closed = 1;
nodes = (
"366 68 OFFCURVE",
"375 50 OFFCURVE",
"389 50 QCURVE",
"394 50 OFFCURVE",
"405 53 OFFCURVE",
"410 55 QCURVE",
"421 17 LINE",
"410 6 OFFCURVE",
"381 -4 OFFCURVE",
"366 -4 QCURVE",
"339 -4 OFFCURVE",
"313 21 OFFCURVE",
"308 40 QCURVE",
"285 19 OFFCURVE",
"226 -4 OFFCURVE",
"190 -4 QCURVE",
"160 -4 OFFCURVE",
"106 14 OFFCURVE",
"65 48 OFFCURVE",
"41 97 OFFCURVE",
"41 128 QCURVE {name = mh02;}",
"41 179 OFFCURVE",
"96 241 OFFCURVE",
"176 275 OFFCURVE",
"267 287 OFFCURVE",
"303 288 QCURVE",
"303 352 LINE",
"303 384 OFFCURVE",
"255 422 OFFCURVE",
"215 422 QCURVE",
"200 422 OFFCURVE",
"159 417 OFFCURVE",
"146 409 QCURVE",
"130 356 LINE",
"48 371 LINE",
"57 399 OFFCURVE",
"90 439 OFFCURVE",
"133 466 OFFCURVE",
"183 479 OFFCURVE",
"209 479 QCURVE {name = mh03;}",
"292 479 OFFCURVE",
"366 402 OFFCURVE",
"366 337 QCURVE",
"366 79 LINE"
);
},
{
closed = 1;
nodes = (
"107 96 OFFCURVE",
"155 53 OFFCURVE",
"197 53 QCURVE",
"228 53 OFFCURVE",
"286 82 OFFCURVE",
"303 108 QCURVE",
"303 232 LINE",
"277 232 OFFCURVE",
"210 225 OFFCURVE",
"149 204 OFFCURVE",
"107 164 OFFCURVE",
"107 131 QCURVE"
);
}
);
width = 448;
},
{
layerId = "3C57ECF2-80FF-487A-B259-F9D598FB850F";
paths = (
{
closed = 1;
nodes = (
"388 627 LINE",
"379 614 OFFCURVE",
"356 588 OFFCURVE",
"331 567 OFFCURVE",
"302 554 OFFCURVE",
"287 554 QCURVE {name = mh01;}",
"269 554 OFFCURVE",
"239 567 OFFCURVE",
"212 582 OFFCURVE",
"185 595 OFFCURVE",
"169 595 QCURVE {name = mh02;}",
"143 595 OFFCURVE",
"114 564 OFFCURVE",
"109 547 QCURVE",
"45 589 LINE {name = mv01;}",
"46 608 LINE",
"50 618 OFFCURVE",
"68 647 OFFCURVE",
"97 672 OFFCURVE",
"137 690 OFFCURVE",
"164 690 QCURVE {name = mv02;}",
"184 690 OFFCURVE",
"220 677 OFFCURVE {name = mv03;}",
"250 662 OFFCURVE",
"272 647 OFFCURVE {name = mv04;}",
"278 646 QCURVE {name = mh03;}",
"314 697 LINE {name = hr00;}"
);
},
{
closed = 1;
nodes = (
"395 91 OFFCURVE",
"406 83 OFFCURVE",
"413 83 QCURVE",
"418 83 OFFCURVE",
"426 85 OFFCURVE",
"428 85 QCURVE",
"446 29 LINE",
"439 23 OFFCURVE",
"397 -4 OFFCURVE",
"366 -4 QCURVE",
"336 -4 OFFCURVE",
"297 22 OFFCURVE",
"286 44 QCURVE {name = mh04;}",
"266 24 OFFCURVE",
"209 -4 OFFCURVE",
"174 -4 QCURVE",
"139 -4 OFFCURVE",
"85 16 OFFCURVE {name = mh05;}",
"48 52 OFFCURVE",
"29 101 OFFCURVE",
"29 129 QCURVE {name = mh06;}",
"29 173 OFFCURVE",
"75 233 OFFCURVE",
"146 270 OFFCURVE {name = mv05;}",
"233 287 OFFCURVE",
"274 288 QCURVE",
"274 367 LINE",
"274 378 OFFCURVE",
"243 397 OFFCURVE",
"209 397 QCURVE",
"201 397 OFFCURVE",
"185 396 OFFCURVE",
"180 394 QCURVE",
"154 320 LINE",
"30 374 LINE",
"40 398 OFFCURVE",
"77 440 OFFCURVE",
"127 472 OFFCURVE {name = mh07;}",
"188 491 OFFCURVE",
"223 491 QCURVE {name = mv06;}",
"255 491 OFFCURVE",
"317 475 OFFCURVE {name = mv07;}",
"365 437 OFFCURVE",
"395 376 OFFCURVE",
"395 330 QCURVE {name = mh08;}",
"395 105 LINE"
);
},
{
closed = 1;
nodes = (
"226 92 OFFCURVE",
"266 122 OFFCURVE",
"274 139 QCURVE",
"274 204 LINE {name = hr01;}",
"255 203 OFFCURVE",
"213 197 OFFCURVE",
"177 182 OFFCURVE",
"153 157 OFFCURVE",
"153 138 QCURVE",
"153 121 OFFCURVE",
"175 92 OFFCURVE",
"198 92 QCURVE"
);
}
);
width = 463;
}
);
leftKerningGroup = a;
rightKerningGroup = a;
unicode = 00E3;
userData = {
com.typemytype.robofont.mark = (
0.713,
0.6,
1,
1
);
};
},
{
glyphname = ae;
lastChange = "2018-07-23 17:46:20 +0000";
layers = (
{
layerId = "7A2A571C-0203-4ADD-BC50-2735B3AB72B4";
paths = (
{
closed = 1;
nodes = (
"303 360 OFFCURVE",
"292 384 OFFCURVE",
"269 406 OFFCURVE",
"232 422 OFFCURVE",
"206 422 QCURVE {name = mh01;}",
"189 422 OFFCURVE",
"154 416 OFFCURVE",
"146 409 QCURVE",
"130 356 LINE",
"48 371 LINE",
"52 398 OFFCURVE",
"84 438 OFFCURVE",
"129 465 OFFCURVE",
"182 479 OFFCURVE",
"207 479 QCURVE {name = mh02;}",
"251 479 OFFCURVE",
"333 445 OFFCURVE",
"353 399 QCURVE",
"382 438 OFFCURVE",
"465 481 OFFCURVE",
"511 481 QCURVE {name = mh03;}",
"580 481 OFFCURVE",
"664 415 OFFCURVE",
"664 352 QCURVE",
"664 302 OFFCURVE",
"615 244 OFFCURVE",
"539 216 OFFCURVE",
"448 209 OFFCURVE",
"406 209 QCURVE",
"369 209 LINE",
"372 163 OFFCURVE",
"404 104 OFFCURVE",
"448 69 OFFCURVE",
"498 56 OFFCURVE",
"520 56 QCURVE",
"552 56 OFFCURVE",
"602 77 OFFCURVE",
"617 91 QCURVE",
"635 36 LINE",
"612 18 OFFCURVE",
"554 -2 OFFCURVE",
"504 -2 QCURVE",
"460 -2 OFFCURVE",
"375 37 OFFCURVE",
"346 79 QCURVE",
"344 74 OFFCURVE",
"338 67 OFFCURVE",
"336 63 QCURVE",
"328 54 OFFCURVE",
"305 31 OFFCURVE",
"271 10 OFFCURVE",
"225 -4 OFFCURVE",
"196 -4 QCURVE",
"158 -4 OFFCURVE",
"100 18 OFFCURVE",
"61 54 OFFCURVE",
"41 99 OFFCURVE",
"41 123 QCURVE",
"41 171 OFFCURVE",
"83 228 OFFCURVE",
"151 258 OFFCURVE",
"236 267 OFFCURVE",
"279 267 QCURVE",
"303 267 LINE",
"303 352 LINE {name = hr00;}"
);
},
{
closed = 1;
nodes = (
"455 266 OFFCURVE",
"515 272 OFFCURVE",
"565 289 OFFCURVE",
"598 320 OFFCURVE",
"598 346 QCURVE",
"598 384 OFFCURVE",
"543 423 OFFCURVE",
"508 423 QCURVE {name = mh04;}",
"484 423 OFFCURVE",
"439 404 OFFCURVE",
"401 366 OFFCURVE",
"375 307 OFFCURVE",
"371 267 QCURVE",
"382 267 OFFCURVE",
"410 266 OFFCURVE",
"427 266 QCURVE"
);
},
{
closed = 1;
nodes = (
"107 97 OFFCURVE",
"159 54 OFFCURVE",
"196 54 QCURVE",
"237 54 OFFCURVE",
"292 89 OFFCURVE",
"303 107 QCURVE",
"303 211 LINE",
"270 211 LINE",
"241 211 OFFCURVE",
"182 207 OFFCURVE",
"136 191 OFFCURVE",
"107 160 OFFCURVE",
"107 133 QCURVE"
);
}
);
width = 698;
},
{
layerId = "3C57ECF2-80FF-487A-B259-F9D598FB850F";
paths = (
{
closed = 1;
nodes = (
"449 491 OFFCURVE",
"397 476 OFFCURVE",
"356 442 CURVE",
"323 477 OFFCURVE",
"273 491 OFFCURVE",
"223 491 CURVE SMOOTH",
"130 491 OFFCURVE",
"58 437 OFFCURVE",
"30 374 CURVE",
"154 320 LINE",
"180 394 LINE",
"187 397 OFFCURVE",
"198 397 OFFCURVE",
"209 397 CURVE SMOOTH",
"254 397 OFFCURVE",
"274 381 OFFCURVE",
"274 367 CURVE SMOOTH",
"274 288 LINE",
"165 285 OFFCURVE",
"29 246 OFFCURVE",
"29 129 CURVE SMOOTH",
"29 54 OFFCURVE",
"81 -4 OFFCURVE",
"174 -4 CURVE SMOOTH",
"234 -4 OFFCURVE",
"291 31 OFFCURVE",
"325 75 CURVE",
"369 20 OFFCURVE",
"436 -4 OFFCURVE",
"503 -4 CURVE SMOOTH",
"585 -4 OFFCURVE",
"649 35 OFFCURVE",
"666 56 CURVE",
"643 143 LINE",
"619 120 OFFCURVE",
"566 91 OFFCURVE",
"517 91 CURVE SMOOTH",
"445 91 OFFCURVE",
"410 138 OFFCURVE",
"402 198 CURVE",
"416 197 OFFCURVE",
"435 197 OFFCURVE",
"453 197 CURVE SMOOTH",
"567 197 OFFCURVE",
"667 233 OFFCURVE",
"667 354 CURVE SMOOTH",
"667 438 OFFCURVE",
"582 491 OFFCURVE",
"499 491 CURVE SMOOTH {name = hr00;}"
);
},
{
closed = 1;
nodes = (
"408 344 OFFCURVE",
"452 397 OFFCURVE",
"501 397 CURVE SMOOTH",
"528 397 OFFCURVE",
"546 380 OFFCURVE",
"546 350 CURVE SMOOTH",
"546 297 OFFCURVE",
"487 281 OFFCURVE",
"436 281 CURVE SMOOTH",
"426 281 OFFCURVE",
"410 281 OFFCURVE",
"403 282 CURVE"
);
},
{
closed = 1;
nodes = (
"167 92 OFFCURVE",
"153 115 OFFCURVE",
"153 138 CURVE SMOOTH",
"153 190 OFFCURVE",
"224 202 OFFCURVE",
"274 204 CURVE",
"274 140 LINE",
"265 118 OFFCURVE",
"236 92 OFFCURVE",
"198 92 CURVE SMOOTH"
);
}
);
width = 698;
}
);
leftKerningGroup = a;
rightKerningGroup = e;
unicode = 00E6;
userData = {
com.typemytype.robofont.mark = (
0.713,
0.6,
1,
1
);
};
},
{
glyphname = b;
lastChange = "2018-07-23 17:46:20 +0000";
layers = (
{
layerId = "7A2A571C-0203-4ADD-BC50-2735B3AB72B4";
paths = (
{
closed = 1;
nodes = (
"138 442 LINE",
"160 460 OFFCURVE",
"217 479 OFFCURVE",
"247 479 QCURVE",
"297 479 OFFCURVE",
"370 440 OFFCURVE",
"418 375 OFFCURVE",
"442 289 OFFCURVE",
"442 242 QCURVE",
"442 195 OFFCURVE",
"417 106 OFFCURVE",
"366 37 OFFCURVE",
"288 -4 OFFCURVE",
"235 -4 QCURVE",
"206 -4 OFFCURVE",
"151 8 OFFCURVE",
"127 22 QCURVE",
"117 15 OFFCURVE",
"96 0 OFFCURVE",
"91 0 QCURVE",
"75 0 LINE",
"75 661 LINE",
"14 657 LINE",
"6 709 LINE",
"111 727 LINE {name = mh01;}",
"138 697 LINE {name = hr00;}"
);
},
{
closed = 1;
nodes = (
"273 53 OFFCURVE",
"328 85 OFFCURVE",
"362 138 OFFCURVE",
"376 204 OFFCURVE",
"376 237 QCURVE",
"376 269 OFFCURVE",
"362 335 OFFCURVE",
"331 388 OFFCURVE",
"279 422 OFFCURVE",
"241 422 QCURVE",
"213 422 OFFCURVE",
"152 394 OFFCURVE",
"138 371 QCURVE",
"138 85 LINE",
"158 69 OFFCURVE",
"207 53 OFFCURVE",
"233 53 QCURVE"
);
}
);
width = 484;
},
{
layerId = "3C57ECF2-80FF-487A-B259-F9D598FB850F";
paths = (
{
closed = 1;
nodes = (
"1 716 LINE",
"150 736 LINE",
"184 701 LINE",
"184 472 LINE",
"200 480 OFFCURVE",
"242 491 OFFCURVE",
"271 491 QCURVE {name = mh01;}",
"316 491 OFFCURVE",
"388 458 OFFCURVE",
"440 396 OFFCURVE",
"468 307 OFFCURVE",
"468 251 QCURVE",
"468 177 OFFCURVE",
"429 79 OFFCURVE {name = mh02;}",
"366 21 OFFCURVE",
"286 -4 OFFCURVE",
"245 -4 QCURVE",
"188 -4 OFFCURVE",
"149 17 QCURVE",
"96 -4 LINE",
"64 23 LINE",
"64 651 LINE",
"12 648 LINE {name = hr00;}"
);
},
{
closed = 1;
nodes = (
"228 397 OFFCURVE",
"195 387 OFFCURVE",
"184 379 QCURVE",
"184 103 LINE",
"193 97 OFFCURVE",
"228 90 OFFCURVE",
"245 90 QCURVE",
"286 90 OFFCURVE",
"344 165 OFFCURVE {name = mv01;}",
"344 246 QCURVE {name = mh03;}",
"344 324 OFFCURVE {name = mv02;}",
"289 397 OFFCURVE",
"247 397 QCURVE"
);
}
);
width = 499;
}
);
rightKerningGroup = b;
unicode = 0062;
userData = {
com.typemytype.robofont.mark = (
0.713,
0.6,
1,
1
);
};
},
{
glyphname = c;
lastChange = "2018-07-23 17:46:20 +0000";
layers = (
{
layerId = "7A2A571C-0203-4ADD-BC50-2735B3AB72B4";
paths = (
{
closed = 1;
nodes = (
"280 420 LINE",
"272 422 OFFCURVE",
"261 422 QCURVE",
"244 422 LINE",
"203 422 OFFCURVE",
"151 388 OFFCURVE",
"121 334 OFFCURVE",
"109 266 OFFCURVE",
"109 232 QCURVE",
"109 199 OFFCURVE",
"123 134 OFFCURVE",
"157 84 OFFCURVE",
"214 53 OFFCURVE",
"258 53 QCURVE",
"287 53 OFFCURVE",
"336 66 OFFCURVE",
"360 80 QCURVE",
"377 31 LINE",
"351 11 OFFCURVE",
"283 -4 OFFCURVE",
"248 -4 QCURVE",
"194 -4 OFFCURVE",
"117 35 OFFCURVE",
"67 101 OFFCURVE",
"43 187 OFFCURVE",
"43 233 QCURVE",
"43 281 OFFCURVE",
"66 370 OFFCURVE",
"116 438 OFFCURVE",
"194 479 OFFCURVE",
"249 479 QCURVE",
"294 479 OFFCURVE",
"364 456 OFFCURVE",
"383 442 QCURVE",
"339 373 LINE {name = hr00;}"
);
}
);
width = 405;
},
{
layerId = "3C57ECF2-80FF-487A-B259-F9D598FB850F";
paths = (
{
closed = 1;
nodes = (
"404 68 OFFCURVE",
"388 121 OFFCURVE",
"382 139 CURVE",
"366 125 OFFCURVE",
"327 91 OFFCURVE",
"270 91 CURVE SMOOTH",
"188 91 OFFCURVE",
"154 160 OFFCURVE",
"154 238 CURVE SMOOTH",
"154 335 OFFCURVE",
"190 397 OFFCURVE",
"251 397 CURVE",
"294 337 LINE",
"415 402 LINE",
"408 416 OFFCURVE",
"365 491 OFFCURVE",
"248 491 CURVE SMOOTH",
"149 491 OFFCURVE",
"30 433 OFFCURVE",
"30 233 CURVE SMOOTH",
"30 66 OFFCURVE",
"147 -4 OFFCURVE",
"249 -4 CURVE SMOOTH",
"313 -4 OFFCURVE",
"372 15 OFFCURVE",
"408 52 CURVE {name = hr00;}"
);
}
);
width = 431;
}
);
leftKerningGroup = o;
rightKerningGroup = c;
unicode = 0063;
userData = {
com.typemytype.robofont.mark = (
0.713,
0.6,
1,
1
);
};
},
{
glyphname = ccedilla;
lastChange = "2018-07-23 17:46:20 +0000";
layers = (
{
layerId = "7A2A571C-0203-4ADD-BC50-2735B3AB72B4";
paths = (
{
closed = 1;
nodes = (
"205 -60 LINE",
"225 -3 LINE",
"177 1 OFFCURVE",
"109 43 OFFCURVE",
"64 107 OFFCURVE",
"43 189 OFFCURVE",
"43 233 QCURVE",
"43 281 OFFCURVE",
"66 370 OFFCURVE",
"116 438 OFFCURVE",
"194 479 OFFCURVE",
"249 479 QCURVE",
"294 479 OFFCURVE",
"364 456 OFFCURVE",
"383 442 QCURVE",
"339 373 LINE",
"280 420 LINE",
"272 422 OFFCURVE",
"261 422 QCURVE",
"244 422 LINE",
"203 422 OFFCURVE",
"151 388 OFFCURVE",
"121 334 OFFCURVE",
"109 266 OFFCURVE",
"109 232 QCURVE",
"109 199 OFFCURVE",
"123 134 OFFCURVE",
"157 84 OFFCURVE",
"214 53 OFFCURVE",
"258 53 QCURVE",
"287 53 OFFCURVE",
"336 66 OFFCURVE",
"360 80 QCURVE",
"377 31 LINE",
"356 15 OFFCURVE",
"304 -1 OFFCURVE",
"276 -3 QCURVE",
"266 -32 LINE",
"280 -33 OFFCURVE",
"307 -44 OFFCURVE",
"329 -63 OFFCURVE",
"343 -93 OFFCURVE",
"343 -112 QCURVE",
"343 -148 OFFCURVE",
"292 -196 OFFCURVE",
"241 -196 QCURVE",
"214 -196 OFFCURVE",
"175 -183 OFFCURVE",
"157 -176 QCURVE",
"188 -116 LINE",
"243 -150 LINE",
"263 -150 OFFCURVE",
"289 -130 OFFCURVE",
"289 -113 QCURVE",
"289 -99 OFFCURVE",
"260 -73 OFFCURVE",
"224 -73 QCURVE",
"218 -73 LINE {name = hr00;}"
);
}
);
width = 406;
},
{
layerId = "3C57ECF2-80FF-487A-B259-F9D598FB850F";
paths = (
{
closed = 1;
nodes = (
"386 29 OFFCURVE",
"319 1 OFFCURVE",
"279 -3 QCURVE",
"267 -38 LINE",
"302 -46 OFFCURVE",
"343 -88 OFFCURVE",
"343 -125 QCURVE",
"343 -166 OFFCURVE",
"277 -221 OFFCURVE",
"216 -221 QCURVE",
"194 -221 OFFCURVE",
"144 -211 OFFCURVE",
"125 -203 QCURVE",
"159 -129 LINE",
"214 -169 LINE",
"216 -169 OFFCURVE",
"233 -167 OFFCURVE",
"251 -158 OFFCURVE",
"266 -142 OFFCURVE",
"266 -127 QCURVE",
"266 -78 OFFCURVE",
"196 -78 QCURVE",
"184 -62 LINE",
"205 0 LINE",
"172 7 OFFCURVE",
"109 41 OFFCURVE",
"60 98 OFFCURVE {name = mh01;}",
"31 179 OFFCURVE",
"31 233 QCURVE",
"31 308 OFFCURVE",
"71 407 OFFCURVE",
"134 467 OFFCURVE",
"212 491 OFFCURVE",
"249 491 QCURVE {name = mv01;}",
"293 491 OFFCURVE",
"354 467 OFFCURVE",
"393 436 OFFCURVE",
"413 407 OFFCURVE",
"416 402 QCURVE",
"295 337 LINE",
"252 397 LINE",
"206 397 OFFCURVE",
"155 311 OFFCURVE",
"155 238 QCURVE",
"155 209 OFFCURVE",
"168 155 OFFCURVE",
"196 115 OFFCURVE",
"240 91 OFFCURVE",
"271 91 QCURVE",
"292 91 OFFCURVE",
"328 102 OFFCURVE",
"357 117 OFFCURVE",
"377 134 OFFCURVE",
"383 139 QCURVE",
"385 132 OFFCURVE",
"393 108 OFFCURVE",
"401 82 OFFCURVE",
"407 58 OFFCURVE",
"409 52 QCURVE {name = hr00;}"
);
}
);
width = 431;
}
);
leftKerningGroup = o;
rightKerningGroup = c;
unicode = 00E7;
userData = {
com.typemytype.robofont.mark = (
0.713,
0.6,
1,
1
);
};
},
{
glyphname = d;
lastChange = "2018-07-23 17:46:20 +0000";
layers = (
{
layerId = "7A2A571C-0203-4ADD-BC50-2735B3AB72B4";
paths = (
{
closed = 1;
nodes = (
"277 709 LINE",
"382 727 LINE {name = mh01;}",
"409 697 LINE",
"409 79 LINE",
"409 68 OFFCURVE",
"418 50 OFFCURVE",
"432 50 QCURVE",
"437 50 OFFCURVE",
"448 53 OFFCURVE",
"453 55 QCURVE",
"464 15 LINE",
"453 4 OFFCURVE",
"417 -4 OFFCURVE",
"408 -4 QCURVE",
"382 -4 OFFCURVE",
"357 21 OFFCURVE",
"352 37 QCURVE",
"329 16 OFFCURVE",
"272 -4 OFFCURVE",
"240 -4 QCURVE",
"189 -4 OFFCURVE",
"115 38 OFFCURVE",
"66 105 OFFCURVE",
"42 191 OFFCURVE",
"42 235 QCURVE",
"42 285 OFFCURVE",
"68 374 OFFCURVE",
"119 440 OFFCURVE",
"197 479 OFFCURVE",
"250 479 QCURVE {name = mh02;}",
"281 479 OFFCURVE",
"328 467 OFFCURVE",
"346 459 QCURVE",
"346 661 LINE",
"285 657 LINE {name = hr00;}"
);
},
{
closed = 1;
nodes = (
"213 422 OFFCURVE",
"158 390 OFFCURVE",
"123 338 OFFCURVE",
"108 273 OFFCURVE",
"108 239 QCURVE",
"108 207 OFFCURVE",
"122 141 OFFCURVE",
"155 87 OFFCURVE",
"208 53 OFFCURVE",
"246 53 QCURVE",
"275 53 OFFCURVE",
"330 79 OFFCURVE",
"346 104 QCURVE",
"346 387 LINE",
"329 406 OFFCURVE",
"280 422 OFFCURVE",
"254 422 QCURVE {name = mh03;}"
);
}
);
width = 495;
},
{
layerId = "3C57ECF2-80FF-487A-B259-F9D598FB850F";
paths = (
{
closed = 1;
nodes = (
"314 478 LINE",
"294 486 OFFCURVE",
"271 491 OFFCURVE",
"243 491 CURVE SMOOTH",
"157 491 OFFCURVE",
"31 437 OFFCURVE",
"31 234 CURVE SMOOTH",
"31 85 OFFCURVE",
"111 -4 OFFCURVE",
"221 -4 CURVE SMOOTH",
"266 -4 OFFCURVE",
"303 10 OFFCURVE",
"327 38 CURVE",
"341 12 OFFCURVE",
"366 -4 OFFCURVE",
"406 -4 CURVE SMOOTH",
"455 -4 OFFCURVE",
"486 27 OFFCURVE",
"495 37 CURVE",
"476 89 LINE",
"474 88 OFFCURVE",
"464 83 OFFCURVE",
"454 83 CURVE SMOOTH",
"444 83 OFFCURVE",
"435 88 OFFCURVE",
"435 105 CURVE SMOOTH",
"435 700 LINE",
"400 737 LINE",
"252 716 LINE",
"263 648 LINE",
"314 648 LINE {name = hr00;}"
);
},
{
closed = 1;
nodes = (
"188 91 OFFCURVE",
"155 139 OFFCURVE",
"155 233 CURVE SMOOTH",
"155 366 OFFCURVE",
"207 398 OFFCURVE",
"255 398 CURVE SMOOTH",
"279 398 OFFCURVE",
"302 388 OFFCURVE",
"314 378 CURVE",
"314 140 LINE",
"307 112 OFFCURVE",
"272 91 OFFCURVE",
"244 91 CURVE SMOOTH"
);
}
);
width = 514;
}
);
leftKerningGroup = d;
unicode = 0064;
userData = {
com.typemytype.robofont.mark = (
0.713,
0.6,
1,
1
);
};
},
{
glyphname = eth;
lastChange = "2018-07-23 17:46:20 +0000";
layers = (
{
layerId = "7A2A571C-0203-4ADD-BC50-2735B3AB72B4";
paths = (
{
closed = 1;
nodes = (
"275 589 LINE",
"248 616 OFFCURVE",
"188 659 OFFCURVE",
"159 675 QCURVE",
"188 728 LINE {name = av01;}",
"223 711 OFFCURVE",
"297 658 OFFCURVE",
"331 622 QCURVE",
"450 692 LINE",
"483 633 LINE",
"370 574 LINE",
"409 520 OFFCURVE",
"459 383 OFFCURVE",
"459 298 QCURVE {name = av02;}",
"459 250 OFFCURVE",
"442 144 OFFCURVE",
"397 54 OFFCURVE",
"317 -4 OFFCURVE",
"253 -4 QCURVE",
"200 -4 OFFCURVE",
"122 33 OFFCURVE",
"69 97 OFFCURVE",
"43 182 OFFCURVE",
"43 231 QCURVE",
"43 280 OFFCURVE",
"71 363 OFFCURVE",
"122 424 OFFCURVE",
"193 458 OFFCURVE",
"237 458 QCURVE",
"287 458 OFFCURVE",
"355 431 OFFCURVE",
"378 411 QCURVE",
"368 449 OFFCURVE",
"336 515 OFFCURVE",
"314 544 QCURVE",
"197 482 LINE",
"169 528 LINE {name = hr00;}"
);
},
{
closed = 1;
nodes = (
"209 401 OFFCURVE",
"161 375 OFFCURVE",
"128 329 OFFCURVE",
"111 266 OFFCURVE",
"111 230 QCURVE",
"111 180 OFFCURVE",
"136 113 OFFCURVE",
"175 71 OFFCURVE",
"225 53 OFFCURVE",
"249 53 QCURVE",
"293 53 OFFCURVE",
"347 95 OFFCURVE",
"377 160 OFFCURVE",
"389 238 OFFCURVE",
"390 275 QCURVE",
"387 307 OFFCURVE",
"358 354 OFFCURVE",
"316 386 OFFCURVE",
"265 401 OFFCURVE",
"241 401 QCURVE"
);
}
);
width = 511;
},
{
layerId = "3C57ECF2-80FF-487A-B259-F9D598FB850F";
paths = (
{
closed = 1;
nodes = (
"214 725 OFFCURVE",
"281 692 OFFCURVE",
"313 669 QCURVE",
"396 735 LINE {name = mh01;}",
"462 633 LINE {name = mh02;}",
"399 595 LINE",
"447 543 OFFCURVE",
"510 409 OFFCURVE",
"510 326 QCURVE",
"510 296 OFFCURVE",
"502 224 OFFCURVE",
"481 151 OFFCURVE",
"445 82 OFFCURVE",
"388 28 OFFCURVE",
"308 -4 OFFCURVE",
"254 -4 QCURVE",
"203 -4 OFFCURVE",
"119 32 OFFCURVE",
"61 93 OFFCURVE",
"29 173 OFFCURVE",
"29 218 QCURVE {name = mh03;}",
"29 270 OFFCURVE",
"59 357 OFFCURVE",
"113 420 OFFCURVE",
"189 455 OFFCURVE",
"236 455 QCURVE",
"284 455 OFFCURVE",
"349 427 OFFCURVE",
"369 408 QCURVE",
"356 444 OFFCURVE",
"311 503 OFFCURVE",
"283 526 QCURVE {name = mv01;}",
"170 459 LINE",
"133 526 LINE {name = mh04;}",
"203 582 LINE",
"183 593 OFFCURVE",
"147 609 OFFCURVE",
"133 615 QCURVE",
"185 736 LINE {name = hr00;}"
);
},
{
closed = 1;
nodes = (
"317 101 OFFCURVE",
"374 179 OFFCURVE",
"381 254 QCURVE",
"377 282 OFFCURVE",
"353 321 OFFCURVE",
"321 345 OFFCURVE",
"284 356 OFFCURVE",
"267 356 QCURVE",
"235 356 OFFCURVE",
"192 333 OFFCURVE",
"166 296 OFFCURVE",
"155 249 OFFCURVE",
"155 225 QCURVE",
"155 202 OFFCURVE",
"170 158 OFFCURVE",
"199 123 OFFCURVE",
"239 101 OFFCURVE",
"263 101 QCURVE"
);
}
);
width = 545;
}
);
unicode = 00F0;
userData = {
com.typemytype.robofont.mark = (
0.713,
0.6,
1,
1
);
};
},
{
glyphname = e;
lastChange = "2018-07-23 17:46:20 +0000";
layers = (
{
layerId = "7A2A571C-0203-4ADD-BC50-2735B3AB72B4";
paths = (
{
closed = 1;
nodes = (
"296 52 OFFCURVE",
"358 71 OFFCURVE",
"381 88 QCURVE",
"398 34 LINE",
"369 13 OFFCURVE",
"296 -4 OFFCURVE",
"259 -4 QCURVE",
"204 -4 OFFCURVE",
"123 33 OFFCURVE",
"69 97 OFFCURVE",
"42 183 OFFCURVE",
"42 232 QCURVE",
"42 283 OFFCURVE",
"70 373 OFFCURVE",
"124 440 OFFCURVE",
"202 479 OFFCURVE",
"252 479 QCURVE {name = mh01;}",
"282 479 OFFCURVE",
"337 461 OFFCURVE",
"377 428 OFFCURVE",
"401 379 OFFCURVE",
"401 348 QCURVE",
"401 294 OFFCURVE",
"346 230 OFFCURVE",
"260 196 OFFCURVE",
"158 185 OFFCURVE",
"111 185 QCURVE",
"121 127 OFFCURVE",
"194 52 OFFCURVE",
"264 52 QCURVE {name = hr00;}"
);
},
{
closed = 1;
nodes = (
"153 244 OFFCURVE",
"226 248 OFFCURVE",
"290 269 OFFCURVE",
"335 310 OFFCURVE",
"335 348 QCURVE",
"335 368 OFFCURVE",
"320 396 OFFCURVE",
"296 414 OFFCURVE",
"266 422 OFFCURVE",
"251 422 QCURVE {name = mh02;}",
"216 422 OFFCURVE",
"164 393 OFFCURVE",
"129 344 OFFCURVE",
"109 280 OFFCURVE",
"108 244 QCURVE",
"125 244 LINE"
);
}
);
width = 443;
},
{
layerId = "3C57ECF2-80FF-487A-B259-F9D598FB850F";
paths = (
{
closed = 1;
nodes = (
"284 491 OFFCURVE",
"345 475 OFFCURVE",
"394 441 OFFCURVE",
"424 389 OFFCURVE",
"424 354 QCURVE",
"424 312 OFFCURVE",
"389 253 OFFCURVE",
"329 215 OFFCURVE",
"250 197 OFFCURVE",
"207 197 QCURVE",
"180 197 LINE",
"167 197 OFFCURVE",
"156 198 QCURVE",
"159 175 OFFCURVE",
"175 136 OFFCURVE",
"203 108 OFFCURVE",
"247 91 OFFCURVE",
"277 91 QCURVE",
"323 91 OFFCURVE",
"379 126 OFFCURVE",
"397 143 QCURVE",
"420 56 LINE",
"413 47 OFFCURVE",
"384 26 OFFCURVE",
"341 8 OFFCURVE",
"288 -4 OFFCURVE",
"257 -4 QCURVE",
"214 -4 OFFCURVE",
"133 26 OFFCURVE",
"69 86 OFFCURVE",
"30 177 OFFCURVE",
"30 239 QCURVE",
"30 305 OFFCURVE",
"70 400 OFFCURVE",
"133 462 OFFCURVE",
"213 491 OFFCURVE",
"253 491 QCURVE {name = hr00;}"
);
},
{
closed = 1;
nodes = (
"162 281 OFFCURVE",
"172 281 QCURVE",
"190 281 LINE",
"209 281 OFFCURVE",
"249 288 OFFCURVE",
"281 304 OFFCURVE",
"301 330 OFFCURVE",
"301 350 QCURVE",
"301 373 OFFCURVE",
"275 396 OFFCURVE",
"255 396 QCURVE",
"237 396 OFFCURVE",
"203 378 OFFCURVE",
"176 347 OFFCURVE",
"159 305 OFFCURVE",
"157 282 QCURVE"
);
}
);
width = 454;
}
);
leftKerningGroup = o;
rightKerningGroup = e;
unicode = 0065;
userData = {
com.typemytype.robofont.mark = (
0.713,
0.6,
1,
1
);
};
},
{
glyphname = eacute;
lastChange = "2018-07-23 17:46:20 +0000";
layers = (
{
layerId = "7A2A571C-0203-4ADD-BC50-2735B3AB72B4";
paths = (
{
closed = 1;
nodes = (
"296 52 OFFCURVE",
"358 71 OFFCURVE",
"381 88 QCURVE",
"398 34 LINE",
"369 13 OFFCURVE",
"296 -4 OFFCURVE",
"259 -4 QCURVE",
"204 -4 OFFCURVE",
"123 33 OFFCURVE",
"69 97 OFFCURVE",
"42 183 OFFCURVE",
"42 232 QCURVE",
"42 283 OFFCURVE",
"70 373 OFFCURVE",
"124 440 OFFCURVE",
"202 479 OFFCURVE",
"252 479 QCURVE {name = mh01;}",
"282 479 OFFCURVE",
"337 461 OFFCURVE",
"377 428 OFFCURVE",
"401 379 OFFCURVE",
"401 348 QCURVE",
"401 294 OFFCURVE",
"346 230 OFFCURVE",
"260 196 OFFCURVE",
"158 185 OFFCURVE",
"111 185 QCURVE",
"121 127 OFFCURVE",
"194 52 OFFCURVE",
"264 52 QCURVE {name = hr00;}"
);
},
{
closed = 1;
nodes = (
"153 244 OFFCURVE",
"226 248 OFFCURVE",
"290 269 OFFCURVE",
"335 310 OFFCURVE",
"335 348 QCURVE",
"335 368 OFFCURVE",
"320 396 OFFCURVE",
"296 414 OFFCURVE",
"266 422 OFFCURVE",
"251 422 QCURVE",
"216 422 OFFCURVE",
"164 393 OFFCURVE",
"129 344 OFFCURVE",
"109 280 OFFCURVE",
"108 244 QCURVE",
"125 244 LINE"
);
},
{
closed = 1;
nodes = (
"281 725 LINE {name = mh02;}",
"308 725 LINE",
"352 673 LINE",
"212 553 LINE",
"177 586 LINE"
);
}
);
width = 443;
},
{
layerId = "3C57ECF2-80FF-487A-B259-F9D598FB850F";
paths = (
{
closed = 1;
nodes = (
"284 491 OFFCURVE",
"345 475 OFFCURVE",
"394 441 OFFCURVE",
"424 389 OFFCURVE",
"424 354 QCURVE",
"424 312 OFFCURVE",
"389 253 OFFCURVE",
"329 215 OFFCURVE",
"250 197 OFFCURVE",
"207 197 QCURVE",
"180 197 LINE",
"167 197 OFFCURVE",
"156 198 QCURVE",
"159 175 OFFCURVE",
"175 136 OFFCURVE",
"203 108 OFFCURVE",
"247 91 OFFCURVE",
"277 91 QCURVE",
"323 91 OFFCURVE",
"379 126 OFFCURVE",
"397 143 QCURVE",
"420 56 LINE",
"413 47 OFFCURVE",
"384 26 OFFCURVE",
"341 8 OFFCURVE",
"288 -4 OFFCURVE",
"257 -4 QCURVE",
"214 -4 OFFCURVE",
"133 26 OFFCURVE",
"69 86 OFFCURVE",
"30 177 OFFCURVE",
"30 239 QCURVE",
"30 305 OFFCURVE",
"70 400 OFFCURVE",
"133 462 OFFCURVE",
"213 491 OFFCURVE",
"253 491 QCURVE {name = hr00;}"
);
},
{
closed = 1;
nodes = (
"261 722 LINE",
"297 736 LINE",
"374 630 LINE",
"181 509 LINE",
"135 561 LINE"
);
},
{
closed = 1;
nodes = (
"162 281 OFFCURVE",
"172 281 QCURVE",
"190 281 LINE",
"209 281 OFFCURVE",
"249 288 OFFCURVE",
"281 304 OFFCURVE",
"301 330 OFFCURVE",
"301 350 QCURVE",
"301 373 OFFCURVE",
"275 396 OFFCURVE",
"255 396 QCURVE",
"237 396 OFFCURVE",
"203 378 OFFCURVE",
"176 347 OFFCURVE",
"159 305 OFFCURVE",
"157 282 QCURVE"
);
}
);
width = 454;
}
);
leftKerningGroup = o;
rightKerningGroup = e;
unicode = 00E9;
userData = {
com.typemytype.robofont.mark = (
0.713,
0.6,
1,
1
);
};
},
{
glyphname = ecircumflex;
lastChange = "2018-07-23 17:46:20 +0000";
layers = (
{
layerId = "7A2A571C-0203-4ADD-BC50-2735B3AB72B4";
paths = (
{
closed = 1;
nodes = (
"236 691 LINE {name = mh01;}",
"252 691 LINE",
"368 550 LINE",
"365 544 LINE",
"310 544 LINE",
"244 602 LINE",
"178 544 LINE {name = hr01;}",
"124 544 LINE",
"120 548 LINE {name = hr00;}"
);
},
{
closed = 1;
nodes = (
"296 52 OFFCURVE",
"358 71 OFFCURVE",
"381 88 QCURVE",
"398 34 LINE",
"369 13 OFFCURVE",
"296 -4 OFFCURVE",
"259 -4 QCURVE",
"204 -4 OFFCURVE",
"123 33 OFFCURVE",
"69 97 OFFCURVE",
"42 183 OFFCURVE",
"42 232 QCURVE",
"42 283 OFFCURVE",
"70 373 OFFCURVE",
"124 440 OFFCURVE",
"202 479 OFFCURVE",
"252 479 QCURVE {name = mh02;}",
"282 479 OFFCURVE",
"337 461 OFFCURVE",
"377 428 OFFCURVE",
"401 379 OFFCURVE",
"401 348 QCURVE",
"401 294 OFFCURVE",
"346 230 OFFCURVE",
"260 196 OFFCURVE",
"158 185 OFFCURVE",
"111 185 QCURVE",
"121 127 OFFCURVE",
"194 52 OFFCURVE",
"264 52 QCURVE"
);
},
{
closed = 1;
nodes = (
"153 244 OFFCURVE",
"226 248 OFFCURVE",
"290 269 OFFCURVE",
"335 310 OFFCURVE",
"335 348 QCURVE",
"335 368 OFFCURVE",
"320 396 OFFCURVE",
"296 414 OFFCURVE",
"266 422 OFFCURVE",
"251 422 QCURVE",
"216 422 OFFCURVE",
"164 393 OFFCURVE",
"129 344 OFFCURVE",
"109 280 OFFCURVE",
"108 244 QCURVE",
"125 244 LINE"
);
}
);
width = 443;
},
{
layerId = "3C57ECF2-80FF-487A-B259-F9D598FB850F";
paths = (
{
closed = 1;
nodes = (
"284 491 OFFCURVE",
"345 475 OFFCURVE",
"394 441 OFFCURVE",
"424 389 OFFCURVE",
"424 354 QCURVE",
"424 312 OFFCURVE",
"389 253 OFFCURVE",
"329 215 OFFCURVE",
"250 197 OFFCURVE",
"207 197 QCURVE",
"180 197 LINE",
"167 197 OFFCURVE",
"156 198 QCURVE",
"159 175 OFFCURVE",
"175 136 OFFCURVE",
"203 108 OFFCURVE",
"247 91 OFFCURVE",
"277 91 QCURVE",
"323 91 OFFCURVE",
"379 126 OFFCURVE",
"397 143 QCURVE",
"420 56 LINE",
"413 47 OFFCURVE",
"384 26 OFFCURVE",
"341 8 OFFCURVE",
"288 -4 OFFCURVE",
"257 -4 QCURVE",
"214 -4 OFFCURVE",
"133 26 OFFCURVE",
"69 86 OFFCURVE",
"30 177 OFFCURVE",
"30 239 QCURVE",
"30 305 OFFCURVE",
"70 400 OFFCURVE",
"133 462 OFFCURVE",
"213 491 OFFCURVE",
"253 491 QCURVE {name = hr00;}"
);
},
{
closed = 1;
nodes = (
"236 700 LINE",
"269 700 LINE",
"403 540 LINE",
"397 529 LINE",
"319 529 LINE",
"252 581 LINE",
"185 529 LINE",
"108 529 LINE",
"103 541 LINE"
);
},
{
closed = 1;
nodes = (
"162 281 OFFCURVE",
"172 281 QCURVE",
"190 281 LINE",
"209 281 OFFCURVE",
"249 288 OFFCURVE",
"281 304 OFFCURVE",
"301 330 OFFCURVE",
"301 350 QCURVE",
"301 373 OFFCURVE",
"275 396 OFFCURVE",
"255 396 QCURVE",
"237 396 OFFCURVE",
"203 378 OFFCURVE",
"176 347 OFFCURVE",
"159 305 OFFCURVE",
"157 282 QCURVE"
);
}
);
width = 454;
}
);
leftKerningGroup = o;
rightKerningGroup = e;
unicode = 00EA;
userData = {
com.typemytype.robofont.mark = (
0.713,
0.6,
1,
1
);
};
},
{
glyphname = edieresis;
lastChange = "2018-07-23 17:46:20 +0000";
layers = (
{
layerId = "7A2A571C-0203-4ADD-BC50-2735B3AB72B4";
paths = (
{
closed = 1;
nodes = (
"122 639 OFFCURVE",
"150 668 OFFCURVE",
"171 668 QCURVE {name = mh01;}",
"190 668 OFFCURVE",
"219 639 OFFCURVE",
"219 619 QCURVE",
"219 600 OFFCURVE",
"190 570 OFFCURVE",
"171 570 QCURVE",
"150 570 OFFCURVE",
"122 600 OFFCURVE",
"122 619 QCURVE {name = hr00;}"
);
},
{
closed = 1;
nodes = (
"262 639 OFFCURVE",
"289 668 OFFCURVE",
"310 668 QCURVE {name = mh02;}",
"329 668 OFFCURVE",
"357 639 OFFCURVE",
"357 619 QCURVE",
"357 600 OFFCURVE",
"329 570 OFFCURVE",
"310 570 QCURVE",
"289 570 OFFCURVE",
"262 600 OFFCURVE",
"262 619 QCURVE"
);
},
{
closed = 1;
nodes = (
"296 52 OFFCURVE",
"358 71 OFFCURVE",
"381 88 QCURVE",
"398 34 LINE",
"369 13 OFFCURVE",
"296 -4 OFFCURVE",
"259 -4 QCURVE",
"204 -4 OFFCURVE",
"123 33 OFFCURVE",
"69 97 OFFCURVE",
"42 183 OFFCURVE",
"42 232 QCURVE {name = mh03;}",
"42 283 OFFCURVE",
"70 373 OFFCURVE",
"124 440 OFFCURVE",
"202 479 OFFCURVE",
"252 479 QCURVE {name = mh04;}",
"282 479 OFFCURVE",
"337 461 OFFCURVE",
"377 428 OFFCURVE",
"401 379 OFFCURVE",
"401 348 QCURVE {name = mh05;}",
"401 294 OFFCURVE",
"346 230 OFFCURVE",
"260 196 OFFCURVE",
"158 185 OFFCURVE",
"111 185 QCURVE",
"121 127 OFFCURVE",
"194 52 OFFCURVE",
"264 52 QCURVE"
);
},
{
closed = 1;
nodes = (
"153 244 OFFCURVE",
"226 248 OFFCURVE",
"290 269 OFFCURVE",
"335 310 OFFCURVE",
"335 348 QCURVE",
"335 368 OFFCURVE",
"320 396 OFFCURVE",
"296 414 OFFCURVE",
"266 422 OFFCURVE",
"251 422 QCURVE",
"216 422 OFFCURVE",
"164 393 OFFCURVE",
"129 344 OFFCURVE",
"109 280 OFFCURVE",
"108 244 QCURVE",
"125 244 LINE"
);
}
);
width = 443;
},
{
layerId = "3C57ECF2-80FF-487A-B259-F9D598FB850F";
paths = (
{
closed = 1;
nodes = (
"284 491 OFFCURVE",
"345 475 OFFCURVE",
"394 441 OFFCURVE",
"424 389 OFFCURVE",
"424 354 QCURVE",
"424 312 OFFCURVE",
"389 253 OFFCURVE",
"329 215 OFFCURVE",
"250 197 OFFCURVE",
"207 197 QCURVE",
"180 197 LINE",
"167 197 OFFCURVE",
"156 198 QCURVE",
"159 175 OFFCURVE",
"175 136 OFFCURVE",
"203 108 OFFCURVE",
"247 91 OFFCURVE",
"277 91 QCURVE",
"323 91 OFFCURVE",
"379 126 OFFCURVE",
"397 143 QCURVE",
"420 56 LINE",
"413 47 OFFCURVE",
"384 26 OFFCURVE",
"341 8 OFFCURVE",
"288 -4 OFFCURVE",
"257 -4 QCURVE",
"214 -4 OFFCURVE",
"133 26 OFFCURVE",
"69 86 OFFCURVE",
"30 177 OFFCURVE",
"30 239 QCURVE",
"30 305 OFFCURVE",
"70 400 OFFCURVE",
"133 462 OFFCURVE",
"213 491 OFFCURVE",
"253 491 QCURVE {name = hr00;}"
);
},
{
closed = 1;
nodes = (
"263 660 OFFCURVE",
"299 696 OFFCURVE",
"325 696 QCURVE",
"351 696 OFFCURVE",
"387 660 OFFCURVE",
"387 634 QCURVE",
"387 608 OFFCURVE",
"351 572 OFFCURVE",
"325 572 QCURVE",
"299 572 OFFCURVE",
"263 608 OFFCURVE",
"263 634 QCURVE"
);
},
{
closed = 1;
nodes = (
"102 660 OFFCURVE",
"138 696 OFFCURVE",
"164 696 QCURVE",
"190 696 OFFCURVE",
"226 660 OFFCURVE",
"226 634 QCURVE",
"226 608 OFFCURVE",
"190 572 OFFCURVE",
"164 572 QCURVE",
"138 572 OFFCURVE",
"102 608 OFFCURVE",
"102 634 QCURVE"
);
},
{
closed = 1;
nodes = (
"162 281 OFFCURVE",
"172 281 QCURVE",
"190 281 LINE",
"209 281 OFFCURVE",
"249 288 OFFCURVE",
"281 304 OFFCURVE",
"301 330 OFFCURVE",
"301 350 QCURVE",
"301 373 OFFCURVE",
"275 396 OFFCURVE",
"255 396 QCURVE",
"237 396 OFFCURVE",
"203 378 OFFCURVE",
"176 347 OFFCURVE",
"159 305 OFFCURVE",
"157 282 QCURVE"
);
}
);
width = 454;
}
);
leftKerningGroup = o;
rightKerningGroup = e;
unicode = 00EB;
userData = {
com.typemytype.robofont.mark = (
0.713,
0.6,
1,
1
);
};
},
{
glyphname = egrave;
lastChange = "2018-07-23 17:46:20 +0000";
layers = (
{
layerId = "7A2A571C-0203-4ADD-BC50-2735B3AB72B4";
paths = (
{
closed = 1;
nodes = (
"296 52 OFFCURVE",
"358 71 OFFCURVE",
"381 88 QCURVE",
"398 34 LINE",
"369 13 OFFCURVE",
"296 -4 OFFCURVE",
"259 -4 QCURVE",
"204 -4 OFFCURVE",
"123 33 OFFCURVE",
"69 97 OFFCURVE",
"42 183 OFFCURVE",
"42 232 QCURVE",
"42 283 OFFCURVE",
"70 373 OFFCURVE",
"124 440 OFFCURVE",
"202 479 OFFCURVE",
"252 479 QCURVE {name = mh01;}",
"282 479 OFFCURVE",
"337 461 OFFCURVE",
"377 428 OFFCURVE",
"401 379 OFFCURVE",
"401 348 QCURVE",
"401 294 OFFCURVE",
"346 230 OFFCURVE",
"260 196 OFFCURVE",
"158 185 OFFCURVE",
"111 185 QCURVE",
"121 127 OFFCURVE",
"194 52 OFFCURVE",
"264 52 QCURVE {name = hr00;}"
);
},
{
closed = 1;
nodes = (
"153 244 OFFCURVE",
"226 248 OFFCURVE",
"290 269 OFFCURVE",
"335 310 OFFCURVE",
"335 348 QCURVE",
"335 368 OFFCURVE",
"320 396 OFFCURVE",
"296 414 OFFCURVE",
"266 422 OFFCURVE",
"251 422 QCURVE",
"216 422 OFFCURVE",
"164 393 OFFCURVE",
"129 344 OFFCURVE",
"109 280 OFFCURVE",
"108 244 QCURVE",
"125 244 LINE"
);
},
{
closed = 1;
nodes = (
"129 673 LINE",
"173 726 LINE {name = mh02;}",
"199 726 LINE",
"303 586 LINE",
"269 553 LINE"
);
}
);
width = 443;
},
{
layerId = "3C57ECF2-80FF-487A-B259-F9D598FB850F";
paths = (
{
closed = 1;
nodes = (
"213 491 OFFCURVE",
"133 462 OFFCURVE",
"70 400 OFFCURVE",
"30 305 OFFCURVE",
"30 239 QCURVE",
"30 177 OFFCURVE",
"69 86 OFFCURVE",
"133 26 OFFCURVE",
"214 -4 OFFCURVE",
"257 -4 QCURVE",
"288 -4 OFFCURVE",
"341 8 OFFCURVE",
"384 26 OFFCURVE",
"413 47 OFFCURVE",
"420 56 QCURVE",
"397 143 LINE",
"379 126 OFFCURVE",
"323 91 OFFCURVE",
"277 91 QCURVE",
"247 91 OFFCURVE",
"203 108 OFFCURVE",
"175 136 OFFCURVE",
"159 175 OFFCURVE",
"156 198 QCURVE",
"167 197 OFFCURVE",
"180 197 QCURVE",
"207 197 LINE",
"250 197 OFFCURVE",
"329 215 OFFCURVE",
"389 253 OFFCURVE",
"424 312 OFFCURVE",
"424 354 QCURVE",
"424 389 OFFCURVE",
"394 441 OFFCURVE",
"345 475 OFFCURVE",
"284 491 OFFCURVE",
"253 491 QCURVE {name = hr00;}"
);
},
{
closed = 1;
nodes = (
"102 630 LINE",
"179 736 LINE",
"215 722 LINE",
"341 561 LINE",
"295 509 LINE"
);
},
{
closed = 1;
nodes = (
"159 305 OFFCURVE",
"176 347 OFFCURVE",
"203 378 OFFCURVE",
"237 396 OFFCURVE",
"255 396 QCURVE",
"275 396 OFFCURVE",
"301 373 OFFCURVE",
"301 350 QCURVE",
"301 330 OFFCURVE",
"281 304 OFFCURVE",
"249 288 OFFCURVE",
"209 281 OFFCURVE",
"190 281 QCURVE",
"172 281 LINE",
"162 281 OFFCURVE",
"157 282 QCURVE"
);
}
);
width = 454;
}
);
leftKerningGroup = o;
rightKerningGroup = e;
unicode = 00E8;
userData = {
com.typemytype.robofont.mark = (
0.713,
0.6,
1,
1
);
};
},
{
glyphname = f;
lastChange = "2018-07-23 17:46:20 +0000";
layers = (
{
layerId = "7A2A571C-0203-4ADD-BC50-2735B3AB72B4";
paths = (
{
closed = 1;
nodes = (
"24 468 LINE",
"31 479 LINE",
"101 479 LINE",
"101 596 LINE",
"101 654 OFFCURVE",
"158 727 OFFCURVE",
"223 727 QCURVE {name = mh01;}",
"253 727 OFFCURVE",
"310 705 OFFCURVE",
"335 690 QCURVE",
"286 622 LINE",
"230 670 LINE",
"225 670 OFFCURVE",
"217 671 OFFCURVE",
"212 671 QCURVE {name = mh02;}",
"196 671 OFFCURVE",
"177 660 OFFCURVE",
"167 642 OFFCURVE",
"164 620 OFFCURVE",
"164 608 QCURVE",
"164 479 LINE",
"274 479 LINE",
"279 479 OFFCURVE",
"279 473 QCURVE",
"279 422 LINE",
"164 422 LINE",
"164 61 LINE",
"274 45 LINE",
"274 0 LINE",
"50 0 LINE",
"42 44 LINE",
"101 58 LINE",
"101 422 LINE",
"38 422 LINE {name = hr00;}"
);
}
);
width = 311;
},
{
layerId = "3C57ECF2-80FF-487A-B259-F9D598FB850F";
paths = (
{
closed = 1;
nodes = (
"220 74 LINE",
"316 63 LINE",
"316 44 OFFCURVE",
"315 6 OFFCURVE",
"315 0 QCURVE",
"59 0 LINE",
"45 63 LINE {name = mh01;}",
"99 76 LINE",
"99 400 LINE",
"27 400 LINE",
"12 481 LINE",
"19 491 LINE",
"100 491 LINE",
"100 541 LINE",
"100 594 OFFCURVE",
"127 668 OFFCURVE",
"172 714 OFFCURVE",
"230 734 OFFCURVE",
"261 734 QCURVE {name = mh02;}",
"276 734 OFFCURVE",
"314 727 OFFCURVE",
"355 709 OFFCURVE",
"396 678 OFFCURVE",
"414 653 QCURVE",
"300 584 LINE",
"260 639 LINE {name = mh03;}",
"237 639 OFFCURVE {name = mh04;}",
"220 614 OFFCURVE",
"220 592 QCURVE",
"220 491 LINE",
"334 491 LINE",
"339 491 OFFCURVE",
"339 485 QCURVE",
"339 400 LINE",
"220 400 LINE {name = hr00;}"
);
}
);
width = 359;
}
);
unicode = 0066;
userData = {
com.typemytype.robofont.mark = (
0.713,
0.6,
1,
1
);
};
},
{
glyphname = g;
lastChange = "2018-07-23 17:46:20 +0000";
layers = (
{
layerId = "7A2A571C-0203-4ADD-BC50-2735B3AB72B4";
paths = (
{
closed = 1;
nodes = (
"262 479 OFFCURVE",
"323 458 OFFCURVE",
"346 438 QCURVE",
"437 483 LINE",
"456 480 LINE",
"466 412 LINE",
"379 401 LINE",
"392 381 OFFCURVE",
"406 332 OFFCURVE",
"406 304 QCURVE",
"406 265 OFFCURVE",
"379 200 OFFCURVE",
"331 154 OFFCURVE",
"265 128 OFFCURVE",
"226 128 QCURVE",
"198 128 OFFCURVE",
"174 134 QCURVE",
"153 103 LINE",
"156 82 LINE",
"177 76 OFFCURVE",
"196 71 QCURVE",
"213 66 OFFCURVE",
"231 61 QCURVE",
"261 54 LINE",
"292 46 OFFCURVE",
"350 25 OFFCURVE",
"395 -8 OFFCURVE",
"421 -58 OFFCURVE",
"421 -94 QCURVE",
"421 -137 OFFCURVE",
"386 -201 OFFCURVE",
"329 -244 OFFCURVE",
"255 -265 OFFCURVE",
"217 -265 QCURVE",
"179 -265 OFFCURVE",
"109 -244 OFFCURVE",
"55 -204 OFFCURVE",
"22 -144 OFFCURVE",
"22 -105 QCURVE",
"22 -79 OFFCURVE",
"38 -36 OFFCURVE",
"65 -2 OFFCURVE",
"97 23 OFFCURVE",
"114 31 QCURVE",
"99 41 OFFCURVE",
"81 67 OFFCURVE",
"81 87 QCURVE",
"81 108 OFFCURVE",
"104 144 OFFCURVE",
"118 159 QCURVE",
"85 182 OFFCURVE",
"47 255 OFFCURVE",
"47 303 QCURVE",
"47 342 OFFCURVE",
"73 407 OFFCURVE",
"121 453 OFFCURVE",
"187 479 OFFCURVE",
"226 479 QCURVE {name = hr00;}"
);
},
{
closed = 1;
nodes = (
"85 -129 OFFCURVE",
"112 -166 OFFCURVE",
"152 -190 OFFCURVE",
"199 -202 OFFCURVE",
"220 -202 QCURVE",
"247 -202 OFFCURVE",
"298 -188 OFFCURVE",
"339 -163 OFFCURVE",
"364 -126 OFFCURVE",
"364 -102 QCURVE",
"364 -73 OFFCURVE",
"329 -38 OFFCURVE",
"275 -16 OFFCURVE",
"209 -2 OFFCURVE",
"178 6 QCURVE",
"141 -7 OFFCURVE",
"85 -62 OFFCURVE",
"85 -103 QCURVE"
);
},
{
closed = 1;
nodes = (
"172 422 OFFCURVE",
"113 355 OFFCURVE",
"113 304 QCURVE",
"113 253 OFFCURVE",
"172 185 OFFCURVE",
"226 185 QCURVE",
"280 185 OFFCURVE",
"340 253 OFFCURVE",
"340 304 QCURVE",
"340 355 OFFCURVE",
"280 422 OFFCURVE",
"226 422 QCURVE"
);
}
);
width = 476;
},
{
layerId = "3C57ECF2-80FF-487A-B259-F9D598FB850F";
paths = (
{
closed = 1;
nodes = (
"267 491 OFFCURVE",
"334 469 OFFCURVE",
"361 448 QCURVE",
"470 503 LINE",
"493 500 LINE",
"504 401 LINE {name = hr01;}",
"411 390 LINE",
"421 371 OFFCURVE",
"432 327 OFFCURVE",
"432 302 QCURVE",
"432 257 OFFCURVE",
"397 189 OFFCURVE",
"341 144 OFFCURVE",
"269 122 OFFCURVE",
"232 122 QCURVE",
"218 122 LINE",
"212 122 OFFCURVE",
"206 123 QCURVE",
"188 96 LINE",
"190 82 LINE",
"292 61 LINE",
"449 28 OFFCURVE",
"449 -81 QCURVE",
"449 -126 OFFCURVE",
"412 -197 OFFCURVE",
"349 -246 OFFCURVE",
"264 -272 OFFCURVE",
"215 -272 QCURVE",
"170 -272 OFFCURVE",
"99 -249 OFFCURVE",
"49 -209 OFFCURVE",
"22 -155 OFFCURVE",
"22 -123 QCURVE",
"22 -75 OFFCURVE",
"67 -13 OFFCURVE",
"99 6 QCURVE",
"75 32 OFFCURVE",
"75 73 QCURVE",
"75 99 OFFCURVE",
"96 140 OFFCURVE",
"112 155 QCURVE",
"77 177 OFFCURVE",
"33 250 OFFCURVE",
"33 302 QCURVE",
"33 347 OFFCURVE",
"68 418 OFFCURVE",
"124 466 OFFCURVE",
"195 491 OFFCURVE",
"232 491 QCURVE {name = hr00;}"
);
},
{
closed = 1;
nodes = (
"212 397 OFFCURVE",
"184 382 OFFCURVE",
"166 357 OFFCURVE",
"157 325 OFFCURVE",
"157 307 QCURVE",
"157 271 OFFCURVE",
"193 216 OFFCURVE",
"232 216 QCURVE {name = hr02;}",
"272 216 OFFCURVE",
"308 271 OFFCURVE",
"308 307 QCURVE",
"308 325 OFFCURVE",
"299 357 OFFCURVE",
"281 382 OFFCURVE",
"252 397 OFFCURVE",
"232 397 QCURVE"
);
},
{
closed = 1;
nodes = (
"353 -83 OFFCURVE",
"318 -67 OFFCURVE",
"265 -55 OFFCURVE",
"200 -44 OFFCURVE",
"170 -34 QCURVE",
"148 -48 OFFCURVE",
"131 -78 OFFCURVE",
"131 -93 QCURVE",
"131 -103 OFFCURVE",
"141 -124 OFFCURVE",
"167 -141 OFFCURVE",
"210 -152 OFFCURVE",
"242 -152 QCURVE",
"263 -152 OFFCURVE",
"302 -144 OFFCURVE",
"334 -130 OFFCURVE",
"353 -110 OFFCURVE",
"353 -98 QCURVE"
);
}
);
width = 503;
}
);
unicode = 0067;
userData = {
com.typemytype.robofont.mark = (
0.713,
0.6,
1,
1
);
};
},
{
glyphname = h;
lastChange = "2018-07-23 18:37:51 +0000";
layers = (
{
layerId = "7A2A571C-0203-4ADD-BC50-2735B3AB72B4";
paths = (
{
closed = 1;
nodes = (
"151 441 LINE",
"177 459 OFFCURVE",
"239 479 OFFCURVE",
"271 479 QCURVE",
"340 479 OFFCURVE",
"414 406 OFFCURVE",
"414 334 QCURVE",
"414 58 LINE",
"475 44 LINE",
"475 0 LINE",
"295 0 LINE",
"291 44 LINE",
"351 58 LINE",
"351 327 LINE",
"351 422 OFFCURVE",
"266 422 QCURVE",
"235 422 OFFCURVE",
"174 399 OFFCURVE",
"151 379 QCURVE",
"151 58 LINE",
"207 45 LINE",
"207 0 LINE",
"35 0 LINE",
"30 44 LINE",
"88 58 LINE",
"88 661 LINE",
"33 661 LINE",
"24 710 LINE",
"122 727 LINE {name = mh01;}",
"151 697 LINE {name = hr00;}"
);
}
);
width = 498;
},
{
layerId = "3C57ECF2-80FF-487A-B259-F9D598FB850F";
paths = (
{
closed = 1;
nodes = (
"350 363 OFFCURVE {name = mv01;}",
"317 393 OFFCURVE",
"288 393 QCURVE {name = mv02;}",
"273 393 OFFCURVE",
"245 385 OFFCURVE",
"221 373 OFFCURVE",
"204 360 OFFCURVE",
"201 356 QCURVE {name = mh01;}",
"201 75 LINE",
"258 64 LINE",
"258 45 OFFCURVE",
"257 7 OFFCURVE",
"257 0 QCURVE",
"35 0 LINE",
"23 64 LINE {name = mh02;}",
"80 77 LINE",
"80 648 LINE {name = mh03;}",
"28 648 LINE",
"18 716 LINE {name = mh04;}",
"166 737 LINE",
"201 700 LINE {name = mh05;}",
"201 455 LINE",
"220 469 OFFCURVE",
"284 491 OFFCURVE",
"317 491 QCURVE {name = mh06;}",
"348 491 OFFCURVE",
"404 475 OFFCURVE",
"446 443 OFFCURVE",
"471 393 OFFCURVE",
"471 359 QCURVE {name = mh07;}",
"471 76 LINE",
"526 64 LINE {name = mh08;}",
"526 45 OFFCURVE",
"525 7 OFFCURVE",
"525 0 QCURVE",
"300 0 LINE",
"300 64 LINE",
"350 75 LINE {name = mv03;}",
"350 331 LINE {name = hr00;}"
);
}
);
width = 547;
}
);
leftKerningGroup = h;
rightKerningGroup = n;
unicode = 0068;
userData = {
com.typemytype.robofont.mark = (
0.713,
0.6,
1,
1
);
};
},
{
glyphname = i;
lastChange = "2018-07-23 18:35:54 +0000";
layers = (
{
layerId = "7A2A571C-0203-4ADD-BC50-2735B3AB72B4";
paths = (
{
closed = 1;
nodes = (
"160 59 LINE",
"221 44 LINE",
"221 0 LINE",
"46 0 LINE",
"37 43 LINE",
"97 58 LINE",
"97 416 LINE",
"43 412 LINE",
"34 463 LINE",
"133 481 LINE {name = mh01;}",
"160 451 LINE {name = hr00;}"
);
},
{
closed = 1;
nodes = (
"59 693 OFFCURVE",
"89 724 OFFCURVE",
"111 724 QCURVE {name = mh02;}",
"133 724 OFFCURVE",
"164 693 OFFCURVE",
"164 671 QCURVE",
"164 649 OFFCURVE",
"133 619 OFFCURVE",
"111 619 QCURVE",
"89 619 OFFCURVE",
"59 649 OFFCURVE",
"59 671 QCURVE"
);
}
);
width = 249;
},
{
layerId = "3C57ECF2-80FF-487A-B259-F9D598FB850F";
paths = (
{
closed = 1;
nodes = (
"68 623 OFFCURVE",
"101 590 OFFCURVE",
"141 590 CURVE SMOOTH",
"181 590 OFFCURVE",
"213 623 OFFCURVE",
"213 663 CURVE SMOOTH",
"213 702 OFFCURVE",
"181 735 OFFCURVE",
"141 735 CURVE SMOOTH",
"101 735 OFFCURVE",
"68 702 OFFCURVE",
"68 663 CURVE SMOOTH {name = hr00;}"
);
},
{
closed = 1;
nodes = (
"152 489 OFFCURVE",
"62 471 OFFCURVE",
"26 466 CURVE",
"37 398 LINE",
"88 398 LINE {name = hr01;}",
"88 77 LINE",
"32 64 LINE",
"43 0 LINE",
"264 0 LINE",
"264 64 LINE",
"209 75 LINE",
"209 456 LINE",
"175 492 LINE"
);
}
);
width = 288;
}
);
leftKerningGroup = i;
rightKerningGroup = i;
unicode = 0069;
userData = {
com.typemytype.robofont.mark = (
0.713,
0.6,
1,
1
);
};
},
{
glyphname = iacute;
lastChange = "2018-07-23 17:46:20 +0000";
layers = (
{
layerId = "7A2A571C-0203-4ADD-BC50-2735B3AB72B4";
paths = (
{
closed = 1;
nodes = (
"160 59 LINE",
"221 44 LINE",
"221 0 LINE",
"46 0 LINE",
"37 43 LINE",
"97 58 LINE",
"97 416 LINE",
"43 412 LINE",
"34 463 LINE",
"133 481 LINE {name = mh01;}",
"160 451 LINE {name = hr00;}"
);
},
{
closed = 1;
nodes = (
"143 724 LINE {name = mh02;}",
"170 724 LINE",
"214 672 LINE",
"74 552 LINE",
"39 585 LINE"
);
}
);
width = 249;
},
{
layerId = "3C57ECF2-80FF-487A-B259-F9D598FB850F";
paths = (
{
closed = 1;
nodes = (
"209 75 LINE",
"264 64 LINE",
"264 0 LINE",
"43 0 LINE",
"32 64 LINE",
"88 77 LINE",
"88 398 LINE",
"37 398 LINE",
"26 466 LINE",
"39 468 OFFCURVE",
"83 476 OFFCURVE",
"128 484 OFFCURVE",
"166 491 OFFCURVE",
"175 492 QCURVE",
"209 456 LINE {name = hr00;}"
);
},
{
closed = 1;
nodes = (
"152 722 LINE",
"188 736 LINE",
"265 630 LINE",
"72 509 LINE",
"26 561 LINE"
);
}
);
width = 288;
}
);
leftKerningGroup = i;
rightKerningGroup = i;
unicode = 00ED;
userData = {
com.typemytype.robofont.mark = (
0.713,
0.6,
1,
1
);
};
},
{
glyphname = icircumflex;
lastChange = "2018-07-23 17:46:20 +0000";
layers = (
{
layerId = "7A2A571C-0203-4ADD-BC50-2735B3AB72B4";
paths = (
{
closed = 1;
nodes = (
"105 691 LINE {name = mh01;}",
"121 691 LINE",
"237 550 LINE",
"233 544 LINE",
"179 544 LINE",
"113 602 LINE",
"46 544 LINE",
"-7 544 LINE",
"-11 548 LINE {name = hr00;}"
);
},
{
closed = 1;
nodes = (
"160 59 LINE",
"221 44 LINE",
"221 0 LINE",
"46 0 LINE",
"37 43 LINE",
"97 58 LINE",
"97 416 LINE",
"43 412 LINE",
"34 463 LINE",
"133 481 LINE {name = mh02;}",
"160 451 LINE"
);
}
);
width = 249;
},
{
layerId = "3C57ECF2-80FF-487A-B259-F9D598FB850F";
paths = (
{
closed = 1;
nodes = (
"129 700 LINE {name = mv01;}",
"162 700 LINE",
"296 540 LINE",
"290 529 LINE",
"212 529 LINE",
"145 581 LINE",
"78 529 LINE",
"1 529 LINE",
"-4 541 LINE {name = hr00;}"
);
},
{
closed = 1;
nodes = (
"209 75 LINE",
"264 64 LINE",
"264 0 LINE",
"43 0 LINE",
"32 64 LINE",
"88 77 LINE",
"88 398 LINE",
"37 398 LINE",
"26 466 LINE",
"39 468 OFFCURVE",
"83 476 OFFCURVE",
"128 484 OFFCURVE",
"166 491 OFFCURVE",
"175 492 QCURVE",
"209 456 LINE {name = mh01;}"
);
}
);
width = 288;
}
);
leftKerningGroup = i;
rightKerningGroup = i;
unicode = 00EE;
userData = {
com.typemytype.robofont.mark = (
0.713,
0.6,
1,
1
);
};
},
{
glyphname = idieresis;
lastChange = "2018-07-23 17:46:20 +0000";
layers = (
{
layerId = "7A2A571C-0203-4ADD-BC50-2735B3AB72B4";
paths = (
{
closed = 1;
nodes = (
"3 639 OFFCURVE",
"31 668 OFFCURVE",
"52 668 QCURVE {name = mh01;}",
"71 668 OFFCURVE",
"99 639 OFFCURVE",
"99 619 QCURVE",
"99 600 OFFCURVE",
"71 570 OFFCURVE",
"52 570 QCURVE",
"31 570 OFFCURVE",
"3 600 OFFCURVE",
"3 619 QCURVE {name = hr00;}"
);
},
{
closed = 1;
nodes = (
"132 639 OFFCURVE",
"159 668 OFFCURVE",
"180 668 QCURVE {name = mh02;}",
"199 668 OFFCURVE",
"227 639 OFFCURVE",
"227 619 QCURVE",
"227 600 OFFCURVE",
"199 570 OFFCURVE",
"180 570 QCURVE",
"159 570 OFFCURVE",
"132 600 OFFCURVE",
"132 619 QCURVE"
);
},
{
closed = 1;
nodes = (
"160 59 LINE",
"221 44 LINE",
"221 0 LINE",
"46 0 LINE",
"37 43 LINE",
"97 58 LINE",
"97 416 LINE",
"43 412 LINE",
"34 463 LINE",
"133 481 LINE {name = mh03;}",
"160 451 LINE"
);
}
);
width = 249;
},
{
layerId = "3C57ECF2-80FF-487A-B259-F9D598FB850F";
paths = (
{
closed = 1;
nodes = (
"-4 660 OFFCURVE",
"32 696 OFFCURVE",
"58 696 QCURVE {name = at01;}",
"84 696 OFFCURVE",
"120 660 OFFCURVE",
"120 634 QCURVE {name = mh01;}",
"120 608 OFFCURVE",
"84 572 OFFCURVE",
"58 572 QCURVE {name = mh02;}",
"32 572 OFFCURVE",
"-4 608 OFFCURVE",
"-4 634 QCURVE {name = hr00;}"
);
},
{
closed = 1;
nodes = (
"147 660 OFFCURVE",
"183 696 OFFCURVE",
"209 696 QCURVE {name = at02;}",
"235 696 OFFCURVE",
"271 660 OFFCURVE",
"271 634 QCURVE {name = mh03;}",
"271 608 OFFCURVE",
"235 572 OFFCURVE",
"209 572 QCURVE {name = mv01;}",
"183 572 OFFCURVE",
"147 608 OFFCURVE",
"147 634 QCURVE"
);
},
{
closed = 1;
nodes = (
"209 75 LINE {name = mh05;}",
"264 64 LINE",
"264 0 LINE",
"43 0 LINE {name = hr03;}",
"32 64 LINE",
"88 77 LINE",
"88 398 LINE {name = hr02;}",
"37 398 LINE",
"26 466 LINE",
"39 468 OFFCURVE",
"83 476 OFFCURVE",
"128 484 OFFCURVE",
"166 491 OFFCURVE",
"175 492 QCURVE {name = hr01;}",
"209 456 LINE {name = mh04;}"
);
}
);
width = 288;
}
);
leftKerningGroup = i;
rightKerningGroup = i;
unicode = 00EF;
userData = {
com.typemytype.robofont.mark = (
0.713,
0.6,
1,
1
);
};
},
{
glyphname = igrave;
lastChange = "2018-07-23 17:46:20 +0000";
layers = (
{
layerId = "7A2A571C-0203-4ADD-BC50-2735B3AB72B4";
paths = (
{
closed = 1;
nodes = (
"160 59 LINE",
"221 44 LINE",
"221 0 LINE",
"46 0 LINE",
"37 43 LINE",
"97 58 LINE",
"97 416 LINE",
"43 412 LINE",
"34 463 LINE",
"133 481 LINE {name = mh01;}",
"160 451 LINE {name = hr00;}"
);
},
{
closed = 1;
nodes = (
"34 674 LINE",
"78 727 LINE",
"104 727 LINE {name = mh02;}",
"208 587 LINE",
"174 554 LINE"
);
}
);
width = 249;
},
{
layerId = "3C57ECF2-80FF-487A-B259-F9D598FB850F";
paths = (
{
closed = 1;
nodes = (
"152 489 OFFCURVE",
"62 471 OFFCURVE",
"26 466 CURVE",
"37 398 LINE",
"88 398 LINE",
"88 77 LINE",
"32 64 LINE",
"43 0 LINE",
"264 0 LINE",
"264 64 LINE",
"209 75 LINE",
"209 456 LINE",
"175 492 LINE {name = hr00;}"
);
},
{
closed = 1;
nodes = (
"22 630 LINE",
"99 736 LINE",
"135 722 LINE",
"261 561 LINE",
"215 509 LINE"
);
}
);
width = 288;
}
);
leftKerningGroup = i;
rightKerningGroup = i;
unicode = 00EC;
userData = {
com.typemytype.robofont.mark = (
0.713,
0.6,
1,
1
);
};
},
{
glyphname = j;
lastChange = "2018-07-23 17:46:20 +0000";
layers = (
{
layerId = "7A2A571C-0203-4ADD-BC50-2735B3AB72B4";
paths = (
{
closed = 1;
nodes = (
"53 693 OFFCURVE",
"83 724 OFFCURVE",
"105 724 QCURVE {name = mh01;}",
"127 724 OFFCURVE",
"158 693 OFFCURVE",
"158 671 QCURVE",
"158 649 OFFCURVE",
"127 619 OFFCURVE",
"105 619 QCURVE",
"83 619 OFFCURVE",
"53 649 OFFCURVE",
"53 671 QCURVE {name = hr00;}"
);
},
{
closed = 1;
nodes = (
"15 462 LINE",
"128 481 LINE {name = mh02;}",
"155 451 LINE",
"155 -166 LINE",
"155 -186 OFFCURVE",
"147 -224 OFFCURVE",
"125 -254 OFFCURVE",
"88 -273 OFFCURVE",
"59 -273 QCURVE",
"43 -273 OFFCURVE",
"15 -265 OFFCURVE",
"-6 -254 OFFCURVE",
"-22 -242 OFFCURVE",
"-26 -238 QCURVE",
"7 -190 LINE",
"15 -198 OFFCURVE",
"43 -217 OFFCURVE",
"60 -217 QCURVE",
"82 -217 OFFCURVE",
"92 -181 OFFCURVE",
"92 -156 QCURVE",
"92 416 LINE",
"23 411 LINE"
);
}
);
width = 228;
},
{
layerId = "3C57ECF2-80FF-487A-B259-F9D598FB850F";
paths = (
{
closed = 1;
nodes = (
"165 492 LINE",
"17 466 LINE",
"28 398 LINE",
"79 398 LINE",
"79 -105 LINE SMOOTH",
"79 -137 OFFCURVE",
"78 -161 OFFCURVE",
"55 -161 CURVE SMOOTH",
"44 -161 OFFCURVE",
"34 -154 OFFCURVE",
"27 -148 CURVE",
"-27 -233 LINE",
"1 -257 OFFCURVE",
"34 -268 OFFCURVE",
"67 -268 CURVE SMOOTH",
"107 -268 OFFCURVE",
"200 -258 OFFCURVE",
"200 -103 CURVE SMOOTH",
"200 456 LINE {name = hr00;}"
);
},
{
closed = 1;
nodes = (
"52 623 OFFCURVE",
"85 590 OFFCURVE",
"124 590 CURVE SMOOTH",
"164 590 OFFCURVE",
"197 623 OFFCURVE",
"197 663 CURVE SMOOTH",
"197 702 OFFCURVE",
"164 735 OFFCURVE",
"124 735 CURVE SMOOTH",
"85 735 OFFCURVE",
"52 702 OFFCURVE",
"52 663 CURVE SMOOTH {name = hr01;}"
);
}
);
width = 264;
}
);
unicode = 006A;
userData = {
com.typemytype.robofont.mark = (
0.713,
0.6,
1,
1
);
};
},
{
glyphname = k;
lastChange = "2018-07-23 17:46:20 +0000";
layers = (
{
layerId = "7A2A571C-0203-4ADD-BC50-2735B3AB72B4";
paths = (
{
closed = 1;
nodes = (
"151 271 LINE {name = mh01;}",
"327 434 LINE",
"286 434 LINE",
"278 481 LINE {name = mh02;}",
"416 481 LINE",
"430 454 LINE",
"262 297 LINE",
"385 55 LINE",
"437 44 LINE",
"437 0 LINE",
"338 0 LINE {name = mh03;}",
"210 250 LINE {name = mh04;}",
"151 194 LINE",
"151 58 LINE",
"207 45 LINE",
"207 0 LINE",
"35 0 LINE",
"30 44 LINE",
"88 58 LINE",
"88 661 LINE {name = mh05;}",
"33 661 LINE {name = mh06;}",
"24 710 LINE",
"124 727 LINE {name = mh07;}",
"151 697 LINE {name = hr00;}"
);
}
);
width = 458;
},
{
layerId = "3C57ECF2-80FF-487A-B259-F9D598FB850F";
paths = (
{
closed = 1;
nodes = (
"18 716 LINE",
"28 648 LINE",
"80 648 LINE",
"80 77 LINE",
"23 64 LINE",
"35 0 LINE",
"247 0 LINE",
"247 9 OFFCURVE",
"248 39 OFFCURVE",
"248 64 CURVE",
"201 75 LINE",
"201 149 LINE",
"250 198 LINE",
"343 0 LINE",
"494 0 LINE",
"494 9 OFFCURVE",
"493 37 OFFCURVE",
"493 62 CURVE",
"446 73 LINE",
"339 287 LINE",
"478 426 LINE",
"443 491 LINE",
"266 491 LINE",
"276 413 LINE",
"329 413 LINE",
"201 272 LINE",
"201 700 LINE",
"166 737 LINE {name = hr00;}"
);
}
);
width = 509;
}
);
leftKerningGroup = h;
unicode = 006B;
userData = {
com.typemytype.robofont.mark = (
0.713,
0.6,
1,
1
);
};
},
{
glyphname = l;
lastChange = "2018-07-23 17:46:20 +0000";
layers = (
{
layerId = "7A2A571C-0203-4ADD-BC50-2735B3AB72B4";
paths = (
{
closed = 1;
nodes = (
"152 57 LINE",
"213 44 LINE",
"213 0 LINE",
"30 0 LINE",
"25 44 LINE",
"89 58 LINE",
"89 661 LINE",
"34 661 LINE",
"25 710 LINE",
"123 727 LINE {name = mh01;}",
"152 697 LINE {name = hr00;}"
);
}
);
width = 241;
},
{
layerId = "3C57ECF2-80FF-487A-B259-F9D598FB850F";
paths = (
{
closed = 1;
nodes = (
"16 716 LINE",
"27 648 LINE",
"79 648 LINE",
"79 77 LINE",
"23 63 LINE",
"34 0 LINE",
"265 0 LINE",
"265 63 LINE",
"200 79 LINE",
"200 700 LINE",
"165 737 LINE {name = hr00;}"
);
}
);
width = 284;
}
);
unicode = 006C;
userData = {
com.typemytype.robofont.mark = (
0.713,
0.6,
1,
1
);
};
},
{
glyphname = m;
lastChange = "2018-07-23 17:46:20 +0000";
layers = (
{
layerId = "7A2A571C-0203-4ADD-BC50-2735B3AB72B4";
paths = (
{
closed = 1;
nodes = (
"744 44 LINE",
"744 0 LINE",
"564 0 LINE",
"560 44 LINE",
"620 58 LINE {name = hr01;}",
"620 327 LINE",
"620 422 OFFCURVE",
"535 422 QCURVE {name = mh01;}",
"512 422 OFFCURVE",
"450 406 OFFCURVE",
"418 372 QCURVE",
"421 354 OFFCURVE",
"421 334 QCURVE",
"421 58 LINE",
"482 44 LINE",
"482 0 LINE",
"302 0 LINE",
"298 44 LINE",
"358 58 LINE",
"358 327 LINE",
"358 422 OFFCURVE",
"273 422 QCURVE {name = mh02;}",
"242 422 OFFCURVE",
"181 400 OFFCURVE",
"158 380 QCURVE",
"158 59 LINE",
"219 44 LINE {name = hr02;}",
"219 0 LINE",
"46 0 LINE",
"40 43 LINE",
"95 58 LINE",
"95 420 LINE",
"41 416 LINE {name = mh03;}",
"32 463 LINE",
"133 481 LINE {name = mh04;}",
"155 440 LINE",
"183 459 OFFCURVE",
"251 479 OFFCURVE",
"278 479 QCURVE {name = mh05;}",
"316 479 OFFCURVE",
"376 455 OFFCURVE",
"395 429 QCURVE",
"418 447 OFFCURVE",
"461 468 OFFCURVE",
"498 477 OFFCURVE",
"527 479 OFFCURVE {name = mh06;}",
"535 479 QCURVE",
"607 479 OFFCURVE",
"683 406 OFFCURVE",
"683 334 QCURVE",
"683 58 LINE {name = hr00;}"
);
}
);
width = 767;
},
{
layerId = "3C57ECF2-80FF-487A-B259-F9D598FB850F";
paths = (
{
closed = 1;
nodes = (
"310 64 LINE",
"310 0 LINE",
"530 0 LINE",
"530 9 OFFCURVE",
"531 39 OFFCURVE",
"531 64 CURVE",
"478 74 LINE",
"478 356 LINE",
"487 367 OFFCURVE",
"526 393 OFFCURVE",
"565 393 CURVE SMOOTH",
"604 393 OFFCURVE",
"627 374 OFFCURVE",
"627 331 CURVE SMOOTH",
"627 75 LINE",
"571 63 LINE",
"571 0 LINE",
"798 0 LINE",
"798 9 OFFCURVE",
"799 39 OFFCURVE",
"799 64 CURVE",
"748 76 LINE",
"748 359 LINE SMOOTH",
"748 450 OFFCURVE",
"679 491 OFFCURVE",
"597 491 CURVE SMOOTH",
"545 491 OFFCURVE",
"496 479 OFFCURVE",
"448 444 CURVE",
"420 476 OFFCURVE",
"375 491 OFFCURVE",
"325 491 CURVE SMOOTH",
"281 491 OFFCURVE",
"234 473 OFFCURVE",
"209 455 CURVE",
"174 492 LINE {name = hr01;}",
"152 489 OFFCURVE",
"62 471 OFFCURVE",
"26 466 CURVE",
"37 398 LINE",
"88 398 LINE",
"88 77 LINE",
"30 63 LINE",
"43 0 LINE",
"265 0 LINE",
"265 9 OFFCURVE",
"266 38 OFFCURVE",
"266 63 CURVE",
"209 75 LINE",
"209 356 LINE",
"218 367 OFFCURVE",
"257 393 OFFCURVE",
"296 393 CURVE SMOOTH {name = hr02;}",
"335 393 OFFCURVE",
"358 374 OFFCURVE",
"358 331 CURVE SMOOTH",
"358 75 LINE {name = hr00;}"
);
}
);
width = 821;
}
);
leftKerningGroup = n;
rightKerningGroup = n;
unicode = 006D;
userData = {
com.typemytype.robofont.mark = (
0.713,
0.6,
1,
1
);
};
},
{
glyphname = n;
lastChange = "2018-07-23 17:46:20 +0000";
layers = (
{
layerId = "7A2A571C-0203-4ADD-BC50-2735B3AB72B4";
paths = (
{
closed = 1;
nodes = (
"482 44 LINE",
"482 0 LINE",
"302 0 LINE {name = hr01;}",
"298 44 LINE",
"358 58 LINE",
"358 327 LINE",
"358 422 OFFCURVE",
"273 422 QCURVE",
"242 422 OFFCURVE",
"181 400 OFFCURVE",
"158 380 QCURVE",
"158 59 LINE",
"219 44 LINE",
"219 0 LINE",
"46 0 LINE",
"40 43 LINE",
"95 58 LINE",
"95 420 LINE",
"41 416 LINE {name = mh01;}",
"32 463 LINE {name = hr02;}",
"133 481 LINE {name = mh02;}",
"155 440 LINE",
"211 479 OFFCURVE",
"278 479 QCURVE {name = mh03;}",
"347 479 OFFCURVE",
"421 406 OFFCURVE",
"421 334 QCURVE {name = mh04;}",
"421 58 LINE {name = hr00;}"
);
}
);
width = 505;
},
{
layerId = "3C57ECF2-80FF-487A-B259-F9D598FB850F";
paths = (
{
closed = 1;
nodes = (
"152 489 OFFCURVE",
"62 471 OFFCURVE",
"26 466 CURVE",
"37 398 LINE",
"88 398 LINE",
"88 77 LINE",
"32 64 LINE",
"43 0 LINE",
"265 0 LINE",
"265 9 OFFCURVE",
"266 38 OFFCURVE",
"266 63 CURVE",
"209 75 LINE",
"209 356 LINE",
"218 367 OFFCURVE",
"257 393 OFFCURVE",
"296 393 CURVE SMOOTH {name = hr01;}",
"335 393 OFFCURVE",
"358 374 OFFCURVE",
"358 331 CURVE SMOOTH",
"358 75 LINE",
"308 64 LINE",
"308 0 LINE",
"533 0 LINE",
"533 9 OFFCURVE",
"534 39 OFFCURVE",
"534 64 CURVE",
"479 73 LINE",
"479 359 LINE SMOOTH",
"479 450 OFFCURVE",
"408 491 OFFCURVE",
"325 491 CURVE SMOOTH {name = hr02;}",
"281 491 OFFCURVE",
"234 473 OFFCURVE",
"209 455 CURVE",
"174 492 LINE {name = hr00;}"
);
}
);
width = 555;
}
);
leftKerningGroup = n;
rightKerningGroup = n;
unicode = 006E;
userData = {
com.typemytype.robofont.mark = (
0.713,
0.6,
1,
1
);
};
},
{
glyphname = ntilde;
lastChange = "2018-07-23 17:46:20 +0000";
layers = (
{
layerId = "7A2A571C-0203-4ADD-BC50-2735B3AB72B4";
paths = (
{
closed = 1;
nodes = (
"408 601 LINE",
"388 584 OFFCURVE",
"352 563 OFFCURVE",
"325 563 QCURVE",
"307 563 OFFCURVE",
"279 575 OFFCURVE",
"254 588 OFFCURVE",
"230 600 OFFCURVE",
"216 600 QCURVE",
"193 598 OFFCURVE",
"166 574 OFFCURVE",
"158 554 QCURVE",
"115 580 LINE",
"116 597 LINE",
"130 621 OFFCURVE",
"173 663 OFFCURVE",
"209 663 QCURVE {name = mh01;}",
"224 663 OFFCURVE",
"252 653 OFFCURVE",
"279 640 OFFCURVE",
"306 626 OFFCURVE",
"318 622 QCURVE {name = mh02;}",
"371 663 LINE {name = hr00;}"
);
},
{
closed = 1;
nodes = (
"482 44 LINE",
"482 0 LINE",
"302 0 LINE",
"298 44 LINE",
"358 58 LINE",
"358 327 LINE",
"358 422 OFFCURVE",
"273 422 QCURVE",
"242 422 OFFCURVE",
"181 400 OFFCURVE",
"158 380 QCURVE",
"158 59 LINE",
"219 44 LINE",
"219 0 LINE",
"46 0 LINE",
"40 43 LINE",
"95 58 LINE",
"95 420 LINE",
"41 416 LINE",
"32 463 LINE",
"133 481 LINE",
"155 440 LINE",
"211 479 OFFCURVE",
"278 479 QCURVE {name = mh03;}",
"347 479 OFFCURVE",
"421 406 OFFCURVE",
"421 334 QCURVE",
"421 58 LINE"
);
}
);
width = 505;
},
{
layerId = "3C57ECF2-80FF-487A-B259-F9D598FB850F";
paths = (
{
closed = 1;
nodes = (
"465 628 LINE",
"456 615 OFFCURVE",
"434 589 OFFCURVE",
"409 568 OFFCURVE",
"380 555 OFFCURVE",
"365 555 QCURVE",
"347 555 OFFCURVE",
"317 568 OFFCURVE",
"289 583 OFFCURVE",
"262 596 OFFCURVE",
"247 596 QCURVE",
"220 596 OFFCURVE",
"191 565 OFFCURVE",
"186 548 QCURVE",
"122 590 LINE",
"123 609 LINE {name = hr01;}",
"127 619 OFFCURVE",
"145 648 OFFCURVE",
"174 673 OFFCURVE",
"215 691 OFFCURVE",
"242 691 QCURVE {name = mv01;}",
"261 691 OFFCURVE",
"297 678 OFFCURVE",
"327 663 OFFCURVE",
"349 648 OFFCURVE",
"355 647 QCURVE",
"392 698 LINE {name = hr02;}"
);
},
{
closed = 1;
nodes = (
"228 469 OFFCURVE",
"292 491 OFFCURVE",
"325 491 QCURVE",
"356 491 OFFCURVE",
"412 475 OFFCURVE",
"454 443 OFFCURVE",
"479 393 OFFCURVE",
"479 359 QCURVE",
"479 73 LINE",
"534 64 LINE",
"534 45 OFFCURVE",
"533 7 OFFCURVE",
"533 0 QCURVE",
"308 0 LINE",
"308 64 LINE",
"358 75 LINE",
"358 331 LINE",
"358 363 OFFCURVE",
"325 393 OFFCURVE",
"296 393 QCURVE",
"281 393 OFFCURVE",
"253 385 OFFCURVE",
"229 373 OFFCURVE",
"212 360 OFFCURVE",
"209 356 QCURVE",
"209 75 LINE",
"266 63 LINE",
"266 44 OFFCURVE",
"265 7 OFFCURVE",
"265 0 QCURVE",
"43 0 LINE",
"32 64 LINE",
"88 77 LINE",
"88 398 LINE",
"37 398 LINE",
"26 466 LINE",
"39 468 OFFCURVE",
"83 476 OFFCURVE",
"128 484 OFFCURVE",
"166 491 OFFCURVE",
"174 492 QCURVE",
"209 455 LINE"
);
}
);
width = 555;
}
);
leftKerningGroup = n;
rightKerningGroup = n;
unicode = 00F1;
userData = {
com.typemytype.robofont.mark = (
0.713,
0.6,
1,
1
);
};
},
{
glyphname = o;
lastChange = "2018-07-23 18:38:49 +0000";
layers = (
{
layerId = "7A2A571C-0203-4ADD-BC50-2735B3AB72B4";
paths = (
{
closed = 1;
nodes = (
"42 346 OFFCURVE",
"152 481 OFFCURVE",
"244 481 QCURVE {name = mh01;}",
"297 481 OFFCURVE",
"374 441 OFFCURVE",
"423 373 OFFCURVE",
"447 286 OFFCURVE",
"447 240 QCURVE",
"447 193 OFFCURVE",
"423 106 OFFCURVE",
"374 37 OFFCURVE",
"297 -4 OFFCURVE",
"244 -4 QCURVE",
"192 -4 OFFCURVE",
"116 38 OFFCURVE",
"66 106 OFFCURVE",
"42 194 OFFCURVE",
"42 240 QCURVE {name = hr00;}"
);
},
{
closed = 1;
nodes = (
"108 196 OFFCURVE",
"123 134 OFFCURVE",
"156 85 OFFCURVE",
"208 54 OFFCURVE",
"244 54 QCURVE",
"282 54 OFFCURVE",
"335 86 OFFCURVE",
"367 138 OFFCURVE",
"381 203 OFFCURVE",
"381 235 QCURVE",
"381 266 OFFCURVE",
"367 333 OFFCURVE",
"334 388 OFFCURVE",
"282 423 OFFCURVE",
"244 423 QCURVE {name = mh02;}",
"205 423 OFFCURVE",
"153 383 OFFCURVE",
"122 325 OFFCURVE",
"108 256 OFFCURVE",
"108 228 QCURVE"
);
}
);
width = 489;
},
{
layerId = "3C57ECF2-80FF-487A-B259-F9D598FB850F";
paths = (
{
closed = 1;
nodes = (
"29 83 OFFCURVE",
"139 -4 OFFCURVE",
"249 -4 CURVE SMOOTH",
"359 -4 OFFCURVE",
"470 83 OFFCURVE",
"470 246 CURVE SMOOTH",
"470 408 OFFCURVE",
"359 491 OFFCURVE",
"249 491 CURVE SMOOTH",
"139 491 OFFCURVE",
"29 408 OFFCURVE",
"29 246 CURVE SMOOTH {name = hr00;}"
);
},
{
closed = 1;
nodes = (
"153 353 OFFCURVE",
"197 397 OFFCURVE",
"249 397 CURVE SMOOTH",
"302 397 OFFCURVE",
"346 353 OFFCURVE",
"346 240 CURVE SMOOTH",
"346 128 OFFCURVE",
"302 90 OFFCURVE",
"249 90 CURVE SMOOTH",
"197 90 OFFCURVE",
"153 128 OFFCURVE",
"153 240 CURVE SMOOTH"
);
}
);
width = 499;
},
{
associatedMasterId = "7A2A571C-0203-4ADD-BC50-2735B3AB72B4";
layerId = "058C2E3D-3051-4BEB-BA20-BB587584870A";
name = "Jul 23 18, 14:04";
paths = (
{
closed = 1;
nodes = (
"42 288 OFFCURVE",
"68 376 OFFCURVE",
"119 442 OFFCURVE",
"194 481 OFFCURVE",
"244 481 QCURVE {name = mh01;}",
"297 481 OFFCURVE",
"374 441 OFFCURVE",
"423 373 OFFCURVE",
"447 286 OFFCURVE",
"447 240 QCURVE",
"447 193 OFFCURVE",
"423 106 OFFCURVE",
"374 37 OFFCURVE",
"297 -4 OFFCURVE",
"244 -4 QCURVE",
"192 -4 OFFCURVE",
"116 38 OFFCURVE",
"66 106 OFFCURVE",
"42 194 OFFCURVE",
"42 240 QCURVE {name = hr00;}"
);
},
{
closed = 1;
nodes = (
"108 196 OFFCURVE",
"123 134 OFFCURVE",
"156 85 OFFCURVE",
"208 54 OFFCURVE",
"244 54 QCURVE",
"282 54 OFFCURVE",
"335 86 OFFCURVE",
"367 138 OFFCURVE",
"381 203 OFFCURVE",
"381 235 QCURVE",
"381 266 OFFCURVE",
"367 333 OFFCURVE",
"334 388 OFFCURVE",
"282 423 OFFCURVE",
"244 423 QCURVE {name = mh02;}",
"205 423 OFFCURVE",
"153 383 OFFCURVE",
"122 325 OFFCURVE",
"108 256 OFFCURVE",
"108 228 QCURVE"
);
}
);
width = 489;
},
{
associatedMasterId = "3C57ECF2-80FF-487A-B259-F9D598FB850F";
layerId = "B8551E6A-226A-4F72-997C-FB2558B07F32";
name = "Jul 23 18, 14:38";
paths = (
{
closed = 1;
nodes = (
"29 83 OFFCURVE",
"139 -4 OFFCURVE",
"249 -4 CURVE SMOOTH",
"359 -4 OFFCURVE",
"470 83 OFFCURVE",
"470 246 CURVE SMOOTH",
"470 408 OFFCURVE",
"359 491 OFFCURVE",
"249 491 CURVE SMOOTH",
"139 491 OFFCURVE",
"29 408 OFFCURVE",
"29 246 CURVE SMOOTH {name = hr00;}"
);
},
{
closed = 1;
nodes = (
"153 353 OFFCURVE",
"197 397 OFFCURVE",
"249 397 CURVE SMOOTH",
"302 397 OFFCURVE",
"346 353 OFFCURVE",
"346 240 CURVE SMOOTH",
"346 128 OFFCURVE",
"302 90 OFFCURVE",
"249 90 CURVE SMOOTH",
"197 90 OFFCURVE",
"153 128 OFFCURVE",
"153 240 CURVE SMOOTH"
);
}
);
visible = 1;
width = 499;
}
);
leftKerningGroup = o;
rightKerningGroup = o;
unicode = 006F;
userData = {
com.typemytype.robofont.mark = (
0.713,
0.6,
1,
1
);
};
},
{
glyphname = oacute;
lastChange = "2018-07-23 17:46:20 +0000";
layers = (
{
layerId = "7A2A571C-0203-4ADD-BC50-2735B3AB72B4";
paths = (
{
closed = 1;
nodes = (
"42 288 OFFCURVE",
"68 376 OFFCURVE",
"119 442 OFFCURVE",
"194 481 OFFCURVE",
"244 481 QCURVE {name = mh01;}",
"297 481 OFFCURVE",
"374 441 OFFCURVE",
"423 373 OFFCURVE",
"447 286 OFFCURVE",
"447 240 QCURVE",
"447 193 OFFCURVE",
"423 106 OFFCURVE",
"374 37 OFFCURVE",
"297 -4 OFFCURVE",
"244 -4 QCURVE",
"192 -4 OFFCURVE",
"116 38 OFFCURVE",
"66 106 OFFCURVE",
"42 194 OFFCURVE",
"42 240 QCURVE {name = hr00;}"
);
},
{
closed = 1;
nodes = (
"108 196 OFFCURVE",
"123 134 OFFCURVE",
"156 85 OFFCURVE",
"208 54 OFFCURVE",
"244 54 QCURVE",
"282 54 OFFCURVE",
"335 86 OFFCURVE",
"367 138 OFFCURVE",
"381 203 OFFCURVE",
"381 235 QCURVE",
"381 266 OFFCURVE",
"367 333 OFFCURVE",
"334 388 OFFCURVE",
"282 423 OFFCURVE",
"244 423 QCURVE {name = mh02;}",
"205 423 OFFCURVE",
"153 383 OFFCURVE",
"122 325 OFFCURVE",
"108 256 OFFCURVE",
"108 228 QCURVE"
);
},
{
closed = 1;
nodes = (
"274 725 LINE {name = mh03;}",
"301 725 LINE",
"345 673 LINE",
"205 553 LINE",
"170 586 LINE"
);
}
);
width = 489;
},
{
layerId = "3C57ECF2-80FF-487A-B259-F9D598FB850F";
paths = (
{
closed = 1;
nodes = (
"29 83 OFFCURVE",
"139 -4 OFFCURVE",
"249 -4 CURVE SMOOTH",
"359 -4 OFFCURVE",
"470 83 OFFCURVE",
"470 246 CURVE SMOOTH",
"470 408 OFFCURVE",
"359 491 OFFCURVE",
"249 491 CURVE SMOOTH",
"139 491 OFFCURVE",
"29 408 OFFCURVE",
"29 246 CURVE SMOOTH {name = hr00;}"
);
},
{
closed = 1;
nodes = (
"153 353 OFFCURVE",
"197 397 OFFCURVE",
"249 397 CURVE SMOOTH",
"302 397 OFFCURVE",
"346 353 OFFCURVE",
"346 240 CURVE SMOOTH",
"346 128 OFFCURVE",
"302 90 OFFCURVE",
"249 90 CURVE SMOOTH",
"197 90 OFFCURVE",
"153 128 OFFCURVE",
"153 240 CURVE SMOOTH"
);
},
{
closed = 1;
nodes = (
"382 630 LINE",
"305 736 LINE",
"269 722 LINE",
"143 561 LINE",
"189 509 LINE"
);
}
);
width = 499;
}
);
leftKerningGroup = o;
rightKerningGroup = o;
unicode = 00F3;
userData = {
com.typemytype.robofont.mark = (
0.713,
0.6,
1,
1
);
};
},
{
glyphname = ocircumflex;
lastChange = "2018-07-23 17:46:20 +0000";
layers = (
{
layerId = "7A2A571C-0203-4ADD-BC50-2735B3AB72B4";
paths = (
{
closed = 1;
nodes = (
"238 691 LINE {name = mh01;}",
"254 691 LINE",
"369 550 LINE",
"366 544 LINE",
"312 544 LINE",
"245 602 LINE",
"179 544 LINE",
"126 544 LINE",
"122 548 LINE {name = hr00;}"
);
},
{
closed = 1;
nodes = (
"42 288 OFFCURVE",
"68 376 OFFCURVE",
"119 442 OFFCURVE",
"194 481 OFFCURVE",
"244 481 QCURVE {name = mh02;}",
"297 481 OFFCURVE",
"374 441 OFFCURVE",
"423 373 OFFCURVE",
"447 286 OFFCURVE",
"447 240 QCURVE",
"447 193 OFFCURVE",
"423 106 OFFCURVE",
"374 37 OFFCURVE",
"297 -4 OFFCURVE",
"244 -4 QCURVE",
"192 -4 OFFCURVE",
"116 38 OFFCURVE",
"66 106 OFFCURVE",
"42 194 OFFCURVE",
"42 240 QCURVE"
);
},
{
closed = 1;
nodes = (
"108 196 OFFCURVE",
"123 134 OFFCURVE",
"156 85 OFFCURVE",
"208 54 OFFCURVE",
"244 54 QCURVE {name = hr01;}",
"282 54 OFFCURVE",
"335 86 OFFCURVE",
"367 138 OFFCURVE",
"381 203 OFFCURVE",
"381 235 QCURVE",
"381 266 OFFCURVE",
"367 333 OFFCURVE",
"334 388 OFFCURVE",
"282 423 OFFCURVE",
"244 423 QCURVE {name = mh03;}",
"205 423 OFFCURVE",
"153 383 OFFCURVE",
"122 325 OFFCURVE",
"108 256 OFFCURVE",
"108 228 QCURVE"
);
}
);
width = 489;
},
{
layerId = "3C57ECF2-80FF-487A-B259-F9D598FB850F";
paths = (
{
closed = 1;
nodes = (
"229 700 LINE {name = mh02;}",
"262 700 LINE",
"396 540 LINE {name = mh03;}",
"390 529 LINE",
"312 529 LINE",
"245 581 LINE",
"178 529 LINE {name = mv01;}",
"101 529 LINE {name = mv02;}",
"96 541 LINE {name = mh01;}"
);
},
{
closed = 1;
nodes = (
"29 307 OFFCURVE",
"67 398 OFFCURVE {name = mh04;}",
"129 460 OFFCURVE",
"208 491 OFFCURVE",
"249 491 QCURVE",
"290 491 OFFCURVE",
"370 460 OFFCURVE",
"432 398 OFFCURVE",
"470 307 OFFCURVE",
"470 246 QCURVE",
"470 185 OFFCURVE",
"432 91 OFFCURVE",
"370 28 OFFCURVE",
"290 -4 OFFCURVE",
"249 -4 QCURVE",
"208 -4 OFFCURVE",
"129 28 OFFCURVE",
"67 91 OFFCURVE",
"29 185 OFFCURVE",
"29 246 QCURVE"
);
},
{
closed = 1;
nodes = (
"153 198 OFFCURVE",
"168 141 OFFCURVE",
"195 105 OFFCURVE",
"229 90 OFFCURVE",
"249 90 QCURVE",
"269 90 OFFCURVE",
"304 105 OFFCURVE",
"331 141 OFFCURVE",
"346 198 OFFCURVE",
"346 240 QCURVE",
"346 282 OFFCURVE",
"331 342 OFFCURVE",
"304 380 OFFCURVE",
"269 397 OFFCURVE",
"249 397 QCURVE",
"229 397 OFFCURVE",
"195 380 OFFCURVE",
"168 342 OFFCURVE",
"153 282 OFFCURVE",
"153 240 QCURVE"
);
}
);
width = 499;
}
);
leftKerningGroup = o;
rightKerningGroup = o;
unicode = 00F4;
userData = {
com.typemytype.robofont.mark = (
0.713,
0.6,
1,
1
);
};
},
{
glyphname = odieresis;
lastChange = "2018-07-23 17:46:20 +0000";
layers = (
{
layerId = "7A2A571C-0203-4ADD-BC50-2735B3AB72B4";
paths = (
{
closed = 1;
nodes = (
"132 639 OFFCURVE",
"160 668 OFFCURVE",
"181 668 QCURVE {name = mh01;}",
"200 668 OFFCURVE",
"229 639 OFFCURVE",
"229 619 QCURVE",
"229 600 OFFCURVE",
"200 570 OFFCURVE",
"181 570 QCURVE",
"160 570 OFFCURVE",
"132 600 OFFCURVE",
"132 619 QCURVE {name = hr00;}"
);
},
{
closed = 1;
nodes = (
"272 639 OFFCURVE",
"299 668 OFFCURVE",
"320 668 QCURVE {name = mh02;}",
"339 668 OFFCURVE",
"367 639 OFFCURVE",
"367 619 QCURVE",
"367 600 OFFCURVE",
"339 570 OFFCURVE",
"320 570 QCURVE",
"299 570 OFFCURVE",
"272 600 OFFCURVE",
"272 619 QCURVE"
);
},
{
closed = 1;
nodes = (
"42 288 OFFCURVE",
"68 376 OFFCURVE",
"119 442 OFFCURVE",
"194 481 OFFCURVE",
"244 481 QCURVE {name = mh03;}",
"297 481 OFFCURVE",
"374 441 OFFCURVE",
"423 373 OFFCURVE",
"447 286 OFFCURVE",
"447 240 QCURVE",
"447 193 OFFCURVE",
"423 106 OFFCURVE",
"374 37 OFFCURVE",
"297 -4 OFFCURVE",
"244 -4 QCURVE",
"192 -4 OFFCURVE",
"116 38 OFFCURVE",
"66 106 OFFCURVE",
"42 194 OFFCURVE",
"42 240 QCURVE"
);
},
{
closed = 1;
nodes = (
"108 196 OFFCURVE",
"123 134 OFFCURVE",
"156 85 OFFCURVE",
"208 54 OFFCURVE",
"244 54 QCURVE",
"282 54 OFFCURVE",
"335 86 OFFCURVE",
"367 138 OFFCURVE",
"381 203 OFFCURVE",
"381 235 QCURVE",
"381 266 OFFCURVE",
"367 333 OFFCURVE",
"334 388 OFFCURVE",
"282 423 OFFCURVE",
"244 423 QCURVE {name = mh04;}",
"205 423 OFFCURVE",
"153 383 OFFCURVE",
"122 325 OFFCURVE",
"108 256 OFFCURVE",
"108 228 QCURVE"
);
}
);
width = 489;
},
{
layerId = "3C57ECF2-80FF-487A-B259-F9D598FB850F";
paths = (
{
closed = 1;
nodes = (
"105 660 OFFCURVE",
"141 696 OFFCURVE",
"167 696 QCURVE",
"193 696 OFFCURVE",
"229 660 OFFCURVE",
"229 634 QCURVE {name = mh01;}",
"229 608 OFFCURVE",
"193 572 OFFCURVE",
"167 572 QCURVE {name = av02;}",
"141 572 OFFCURVE",
"105 608 OFFCURVE",
"105 634 QCURVE {name = hr00;}"
);
},
{
closed = 1;
nodes = (
"267 660 OFFCURVE",
"303 696 OFFCURVE",
"329 696 QCURVE",
"355 696 OFFCURVE",
"391 660 OFFCURVE",
"391 634 QCURVE",
"391 608 OFFCURVE",
"355 572 OFFCURVE",
"329 572 QCURVE {name = av01;}",
"303 572 OFFCURVE",
"267 608 OFFCURVE",
"267 634 QCURVE {name = mh02;}"
);
},
{
closed = 1;
nodes = (
"29 307 OFFCURVE {name = mv01;}",
"67 398 OFFCURVE",
"129 460 OFFCURVE {name = mh04;}",
"208 491 OFFCURVE",
"249 491 QCURVE",
"290 491 OFFCURVE",
"370 460 OFFCURVE",
"432 398 OFFCURVE {name = mv02;}",
"470 307 OFFCURVE",
"470 246 QCURVE {name = mh05;}",
"470 185 OFFCURVE",
"432 91 OFFCURVE {name = mh06;}",
"370 28 OFFCURVE",
"290 -4 OFFCURVE",
"249 -4 QCURVE",
"208 -4 OFFCURVE",
"129 28 OFFCURVE",
"67 91 OFFCURVE {name = mh07;}",
"29 185 OFFCURVE",
"29 246 QCURVE {name = mh03;}"
);
},
{
closed = 1;
nodes = (
"153 198 OFFCURVE",
"168 141 OFFCURVE",
"195 105 OFFCURVE",
"229 90 OFFCURVE",
"249 90 QCURVE",
"269 90 OFFCURVE",
"304 105 OFFCURVE",
"331 141 OFFCURVE",
"346 198 OFFCURVE",
"346 240 QCURVE",
"346 282 OFFCURVE",
"331 342 OFFCURVE",
"304 380 OFFCURVE",
"269 397 OFFCURVE",
"249 397 QCURVE",
"229 397 OFFCURVE",
"195 380 OFFCURVE",
"168 342 OFFCURVE",
"153 282 OFFCURVE",
"153 240 QCURVE"
);
}
);
width = 499;
}
);
leftKerningGroup = o;
rightKerningGroup = o;
unicode = 00F6;
userData = {
com.typemytype.robofont.mark = (
0.713,
0.6,
1,
1
);
};
},
{
glyphname = ograve;
lastChange = "2018-07-23 17:46:20 +0000";
layers = (
{
layerId = "7A2A571C-0203-4ADD-BC50-2735B3AB72B4";
paths = (
{
closed = 1;
nodes = (
"42 288 OFFCURVE",
"68 376 OFFCURVE",
"119 442 OFFCURVE",
"194 481 OFFCURVE",
"244 481 QCURVE {name = mh01;}",
"297 481 OFFCURVE",
"374 441 OFFCURVE",
"423 373 OFFCURVE",
"447 286 OFFCURVE",
"447 240 QCURVE",
"447 193 OFFCURVE",
"423 106 OFFCURVE",
"374 37 OFFCURVE",
"297 -4 OFFCURVE",
"244 -4 QCURVE",
"192 -4 OFFCURVE",
"116 38 OFFCURVE",
"66 106 OFFCURVE",
"42 194 OFFCURVE",
"42 240 QCURVE {name = hr00;}"
);
},
{
closed = 1;
nodes = (
"108 196 OFFCURVE",
"123 134 OFFCURVE",
"156 85 OFFCURVE",
"208 54 OFFCURVE",
"244 54 QCURVE",
"282 54 OFFCURVE",
"335 86 OFFCURVE",
"367 138 OFFCURVE",
"381 203 OFFCURVE",
"381 235 QCURVE",
"381 266 OFFCURVE",
"367 333 OFFCURVE",
"334 388 OFFCURVE",
"282 423 OFFCURVE",
"244 423 QCURVE {name = mh02;}",
"205 423 OFFCURVE",
"153 383 OFFCURVE",
"122 325 OFFCURVE",
"108 256 OFFCURVE",
"108 228 QCURVE"
);
},
{
closed = 1;
nodes = (
"177 673 LINE",
"221 726 LINE {name = mh03;}",
"247 726 LINE",
"351 586 LINE",
"317 553 LINE"
);
}
);
width = 489;
},
{
layerId = "3C57ECF2-80FF-487A-B259-F9D598FB850F";
paths = (
{
closed = 1;
nodes = (
"29 83 OFFCURVE",
"139 -4 OFFCURVE",
"249 -4 CURVE SMOOTH",
"359 -4 OFFCURVE",
"470 83 OFFCURVE",
"470 246 CURVE SMOOTH",
"470 408 OFFCURVE",
"359 491 OFFCURVE",
"249 491 CURVE SMOOTH",
"139 491 OFFCURVE",
"29 408 OFFCURVE",
"29 246 CURVE SMOOTH {name = hr00;}"
);
},
{
closed = 1;
nodes = (
"153 353 OFFCURVE",
"197 397 OFFCURVE",
"249 397 CURVE SMOOTH",
"302 397 OFFCURVE",
"346 353 OFFCURVE",
"346 240 CURVE SMOOTH",
"346 128 OFFCURVE",
"302 90 OFFCURVE",
"249 90 CURVE SMOOTH",
"197 90 OFFCURVE",
"153 128 OFFCURVE",
"153 240 CURVE SMOOTH"
);
},
{
closed = 1;
nodes = (
"117 630 LINE",
"194 736 LINE",
"230 722 LINE",
"356 561 LINE",
"310 509 LINE"
);
}
);
width = 499;
}
);
leftKerningGroup = o;
rightKerningGroup = o;
unicode = 00F2;
userData = {
com.typemytype.robofont.mark = (
0.713,
0.6,
1,
1
);
};
},
{
glyphname = oslash;
lastChange = "2018-07-23 17:46:20 +0000";
layers = (
{
layerId = "7A2A571C-0203-4ADD-BC50-2735B3AB72B4";
paths = (
{
closed = 1;
nodes = (
"63 -90 LINE",
"60 -77 LINE",
"119 41 LINE",
"79 76 OFFCURVE",
"42 182 OFFCURVE",
"42 240 QCURVE",
"42 288 OFFCURVE",
"68 376 OFFCURVE",
"119 442 OFFCURVE",
"194 481 OFFCURVE",
"244 481 QCURVE {name = mh01;}",
"269 481 OFFCURVE",
"311 471 OFFCURVE",
"330 463 QCURVE",
"399 602 LINE {name = mh02;}",
"450 602 LINE {name = mh03;}",
"449 587 LINE",
"373 435 LINE",
"411 401 OFFCURVE",
"447 297 OFFCURVE",
"447 240 QCURVE",
"447 193 OFFCURVE",
"423 106 OFFCURVE",
"374 37 OFFCURVE",
"297 -4 OFFCURVE",
"244 -4 QCURVE",
"200 -4 OFFCURVE",
"162 12 QCURVE",
"111 -90 LINE {name = hr00;}"
);
},
{
closed = 1;
nodes = (
"108 193 OFFCURVE",
"127 125 OFFCURVE",
"148 99 QCURVE {name = mh04;}",
"302 408 LINE {name = mh05;}",
"290 415 OFFCURVE",
"261 423 OFFCURVE {name = mh06;}",
"244 423 QCURVE {name = mh07;}",
"205 423 OFFCURVE",
"153 383 OFFCURVE",
"122 325 OFFCURVE",
"108 256 OFFCURVE",
"108 228 QCURVE"
);
},
{
closed = 1;
nodes = (
"282 54 OFFCURVE",
"335 86 OFFCURVE",
"367 138 OFFCURVE",
"381 203 OFFCURVE",
"381 235 QCURVE",
"381 270 OFFCURVE",
"362 344 OFFCURVE",
"342 373 QCURVE {name = mh08;}",
"189 66 LINE",
"213 54 OFFCURVE",
"244 54 QCURVE"
);
}
);
width = 489;
},
{
layerId = "3C57ECF2-80FF-487A-B259-F9D598FB850F";
paths = (
{
closed = 1;
nodes = (
"29 307 OFFCURVE",
"67 398 OFFCURVE",
"129 460 OFFCURVE",
"208 491 OFFCURVE",
"249 491 QCURVE {name = ah01;}",
"267 491 OFFCURVE",
"285 488 QCURVE",
"325 585 LINE",
"443 585 LINE",
"442 572 LINE",
"388 440 LINE",
"424 410 OFFCURVE",
"470 313 OFFCURVE",
"470 246 QCURVE",
"470 185 OFFCURVE",
"432 91 OFFCURVE",
"370 28 OFFCURVE",
"290 -4 OFFCURVE",
"249 -4 QCURVE",
"239 -4 OFFCURVE",
"219 -2 OFFCURVE",
"209 0 QCURVE",
"167 -105 LINE",
"52 -105 LINE",
"49 -92 LINE",
"107 51 LINE",
"72 83 OFFCURVE",
"29 180 OFFCURVE",
"29 246 QCURVE {name = hr00;}"
);
},
{
closed = 1;
nodes = (
"346 283 OFFCURVE",
"337 315 QCURVE",
"249 90 LINE {name = ah03;}",
"269 90 OFFCURVE",
"304 105 OFFCURVE",
"331 141 OFFCURVE",
"346 198 OFFCURVE",
"346 240 QCURVE {name = ah04;}"
);
},
{
closed = 1;
nodes = (
"153 203 OFFCURVE",
"159 178 QCURVE {name = ah05;}",
"248 397 LINE {name = ah02;}",
"228 397 OFFCURVE",
"194 379 OFFCURVE",
"168 341 OFFCURVE",
"153 282 OFFCURVE",
"153 240 QCURVE"
);
}
);
width = 499;
}
);
leftKerningGroup = o;
rightKerningGroup = o;
unicode = 00F8;
userData = {
com.typemytype.robofont.mark = (
0.713,
0.6,
1,
1
);
};
},
